<?xml version="1.0" encoding="UTF-8" standalone="no"?>
<!-- Created with Inkscape (http://www.inkscape.org/) -->

<svg
   width="109.99994mm"
   height="68.000015mm"
   viewBox="0 0 109.99994 68.000015"
   version="1.1"
   id="svg5"
   xml:space="preserve"
   xmlns:inkscape="http://www.inkscape.org/namespaces/inkscape"
   xmlns:sodipodi="http://sodipodi.sourceforge.net/DTD/sodipodi-0.dtd"
   xmlns="http://www.w3.org/2000/svg"
   xmlns:svg="http://www.w3.org/2000/svg"><sodipodi:namedview
     id="namedview7"
     pagecolor="#ffffff"
     bordercolor="#000000"
     borderopacity="0.25"
     inkscape:showpageshadow="2"
     inkscape:pageopacity="0.0"
     inkscape:pagecheckerboard="0"
     inkscape:deskcolor="#d1d1d1"
     inkscape:document-units="mm"
     showgrid="false"
     inkscape:zoom="0.37282197"
     inkscape:cx="-894.52883"
     inkscape:cy="-710.79502"
     inkscape:window-width="1904"
     inkscape:window-height="1001"
     inkscape:window-x="2"
     inkscape:window-y="25"
     inkscape:window-maximized="0"
     inkscape:current-layer="layer1" /><defs
     id="defs2"><style
       type="text/css"
       id="style2">  .fil0 {fill:black} .fil2 {fill:#FF0009} .fil1 {fill:#E31E25;fill-rule:nonzero}  </style></defs><g
     inkscape:label="Warstwa 1"
     inkscape:groupmode="layer"
     id="layer1"
     transform="translate(710.51882,303.74444)"><path
       d="m -698.20271,-303.74444 c -6.80477,0 -12.31612,3.86122 -12.31612,8.61543 v 33.45104 c 0,4.75457 5.51135,8.61543 12.31612,8.61543 h 54.1923 l 7.86409,17.31811 9.3621,-17.31811 h 14.00965 c 6.80467,0 12.25569,-3.86086 12.25569,-8.61543 v -23.13371 h -0.0609 v -8.0835 h 0.0609 v -2.23358 c 0,-4.75421 -5.45102,-8.61543 -12.25569,-8.61543 z m 6.64099,11.38081 c 3.5178,0 7.00971,0.78368 10.38436,2.33997 l -3.3809,5.79672 c -1.84649,-1.26178 -3.73653,-1.86136 -5.61473,-1.86136 -0.90723,0 -1.69859,0.17851 -2.41486,0.58504 -0.81175,0.46264 -1.26789,1.09017 -1.26789,1.86125 0,0.75709 0.56364,1.42073 1.63013,1.96774 0.47747,0.25242 1.8988,0.65937 4.28652,1.27624 2.99242,0.77116 5.1261,1.88121 6.39944,3.2973 1.09834,1.20568 1.62995,2.73377 1.62995,4.62688 0,4.85127 -2.40585,8.04733 -7.24465,9.51955 -1.68732,0.51876 -3.49178,0.74462 -5.43357,0.74462 -4.07477,0 -7.86428,-1.07093 -11.35022,-3.24425 l 3.62229,-6.00949 c 2.54688,2.01899 5.05094,3.03122 7.48638,3.03122 1.09814,0 2.01304,-0.2425 2.77704,-0.69123 0.89141,-0.50467 1.32831,-1.20179 1.32831,-2.12719 0,-0.84119 -0.46214,-1.5666 -1.44898,-2.1272 -0.73209,-0.42073 -1.94791,-0.84191 -3.68281,-1.27661 -2.10095,-0.54673 -3.44349,-0.90662 -3.98459,-1.11686 -0.85947,-0.32244 -1.56863,-0.68219 -2.17345,-1.11685 -1.73491,-1.26178 -2.59601,-3.19166 -2.59601,-5.74353 0,-2.66378 0.85783,-4.89503 2.65639,-6.64756 2.1011,-2.06101 4.8901,-3.08453 8.39189,-3.08453 z m 72.8103,0 c 3.51761,0 6.94922,0.78368 10.32374,2.33997 l -3.38092,5.79672 c -1.84646,-1.26178 -3.7365,-1.86136 -5.61476,-1.86136 -0.90723,0 -1.69861,0.17851 -2.41494,0.58504 -0.81172,0.46264 -1.20737,1.09017 -1.20737,1.86125 0,0.75709 0.50313,1.42073 1.56966,1.96774 0.47752,0.25242 1.95921,0.65937 4.34679,1.27624 2.9924,0.77116 5.1262,1.88121 6.39975,3.2973 1.09813,1.20568 1.62995,2.73377 1.62995,4.62688 0,4.85127 -2.40606,8.04733 -7.24482,9.51955 -1.68715,0.51876 -3.5522,0.74462 -5.49396,0.74462 -4.07473,0 -7.8039,-1.07093 -11.28971,-3.24425 l 3.6223,-6.00949 c 2.54669,2.01899 4.99053,3.03122 7.42602,3.03122 1.09834,0 2.0734,-0.2425 2.83743,-0.69123 0.89143,-0.50467 1.32816,-1.20179 1.32826,-2.12719 -10e-5,-0.84119 -0.52253,-1.5666 -1.50946,-2.1272 -0.73212,-0.42073 -1.94796,-0.84191 -3.68281,-1.27661 -2.10097,-0.54673 -3.44348,-0.90662 -3.9846,-1.11686 -0.85953,-0.32244 -1.56852,-0.68219 -2.17334,-1.11685 -1.73506,-1.26178 -2.59604,-3.19166 -2.59604,-5.74353 0,-2.66378 0.91818,-4.89503 2.71684,-6.64756 2.10096,-2.06101 4.89007,-3.08453 8.39178,-3.08453 z m -51.67961,0.69144 h 8.39199 l 6.58064,15.31666 7.00322,-15.31666 h 8.45219 l 4.89027,28.71767 h -8.45229 l -2.41483,-16.53984 -7.90901,16.53984 h -3.32041 l -7.54671,-16.53984 -2.77713,16.53984 h -8.39189 z"
       fill="#ff6600"
       id="path3829"
       style="fill:#216778;fill-opacity:1;stroke-width:1.30587" /></g></svg>
