<?xml version="1.0" encoding="UTF-8" standalone="no"?>
<!-- Created with Inkscape (http://www.inkscape.org/) -->

<svg
   width="110mm"
   height="67.999992mm"
   viewBox="0 0 110 67.999992"
   version="1.1"
   id="svg5"
   xml:space="preserve"
   xmlns:inkscape="http://www.inkscape.org/namespaces/inkscape"
   xmlns:sodipodi="http://sodipodi.sourceforge.net/DTD/sodipodi-0.dtd"
   xmlns="http://www.w3.org/2000/svg"
   xmlns:svg="http://www.w3.org/2000/svg"><sodipodi:namedview
     id="namedview7"
     pagecolor="#ffffff"
     bordercolor="#000000"
     borderopacity="0.25"
     inkscape:showpageshadow="2"
     inkscape:pageopacity="0.0"
     inkscape:pagecheckerboard="0"
     inkscape:deskcolor="#d1d1d1"
     inkscape:document-units="mm"
     showgrid="false" /><defs
     id="defs2"><style
       type="text/css"
       id="style2">  .fil0 {fill:black} .fil2 {fill:#FF0009} .fil1 {fill:#E31E25;fill-rule:nonzero}  </style><style
       type="text/css"
       id="style2-3">  .fil0 {fill:black} .fil2 {fill:#FF0009} .fil1 {fill:#E31E25;fill-rule:nonzero}  </style><style
       type="text/css"
       id="style2-0">  .fil0 {fill:black} .fil2 {fill:#FF0009} .fil1 {fill:#E31E25;fill-rule:nonzero}  </style></defs><g
     inkscape:label="Warstwa 1"
     inkscape:groupmode="layer"
     id="layer1"
     transform="translate(-374.05415,-61.847185)"><path
       d="m -207.44415,384.47761 c -3.7638,0 -7.4432,0.74814 -10.8343,2.17882 l 130.518596,111.1177 130.518502,-111.1177 c -3.3802,-1.43068 -6.9014,-2.17882 -10.665,-2.17882 H -207.44685 Z m -28.44,19.17386 c -3.8534,7.17171 -6.0947,15.89031 -6.0947,25.27416 v 172.78071 c 0,10.08405 2.7178,19.34318 7.1103,26.79925 l 110.036,-130.29395 -111.0501,-94.56161 z m 296.079598,0 -110.714599,94.34326 110.035999,130.51234 c 4.3593,-7.45607 6.941,-16.7152 6.941,-26.79925 v -119.6189 h -0.1676 V 440.4741 h 0.1676 v -11.54847 c 0,-9.42848 -2.4074,-18.08302 -6.2639,-25.27416 z m -117.821099,100.22426 -30.133103,25.70993 -29.963496,-25.49207 -110.7146,132.90936 c 5.8187,5.74513 13.0862,9.15145 20.9912,9.15145 H 32.094748 c 7.905,0 15.2068,-3.40587 20.9919,-9.15145 L -57.627951,503.87523 Z"
       fill="#ff6600"
       id="path3827"
       style="fill:#216778;fill-opacity:1;stroke-width:4.2771"
       transform="matrix(0.35663725,0,0,0.25986256,460.3528,-38.064152)" /></g></svg>
