<?xml version="1.0" encoding="UTF-8" standalone="no"?>
<!-- Created with Inkscape (http://www.inkscape.org/) -->

<svg
   width="265.10217mm"
   height="261.09113mm"
   viewBox="0 0 265.10217 261.09113"
   version="1.1"
   id="svg5"
   xml:space="preserve"
   xmlns:inkscape="http://www.inkscape.org/namespaces/inkscape"
   xmlns:sodipodi="http://sodipodi.sourceforge.net/DTD/sodipodi-0.dtd"
   xmlns="http://www.w3.org/2000/svg"
   xmlns:svg="http://www.w3.org/2000/svg"><sodipodi:namedview
     id="namedview7"
     pagecolor="#ffffff"
     bordercolor="#000000"
     borderopacity="0.25"
     inkscape:showpageshadow="2"
     inkscape:pageopacity="0.0"
     inkscape:pagecheckerboard="0"
     inkscape:deskcolor="#d1d1d1"
     inkscape:document-units="mm"
     showgrid="false" /><defs
     id="defs2"><style
       type="text/css"
       id="style2">  .fil0 {fill:black} .fil2 {fill:#FF0009} .fil1 {fill:#E31E25;fill-rule:nonzero}  </style><style
       type="text/css"
       id="style2-4">  .fil0 {fill:black} .fil2 {fill:#FF0009} .fil1 {fill:#E31E25;fill-rule:nonzero}  </style><style
       type="text/css"
       id="style2-8">  .fil0 {fill:black} .fil2 {fill:#FF0009} .fil1 {fill:#E31E25;fill-rule:nonzero}  </style><style
       type="text/css"
       id="style2-3">  .fil0 {fill:black} .fil2 {fill:#FF0009} .fil1 {fill:#E31E25;fill-rule:nonzero}  </style><style
       type="text/css"
       id="style2-31">  .fil0 {fill:black} .fil2 {fill:#FF0009} .fil1 {fill:#E31E25;fill-rule:nonzero}  </style><style
       type="text/css"
       id="style2-9">  .fil0 {fill:black} .fil2 {fill:#FF0009} .fil1 {fill:#E31E25;fill-rule:nonzero}  </style><style
       type="text/css"
       id="style2-2">  .fil0 {fill:black} .fil2 {fill:#FF0009} .fil1 {fill:#E31E25;fill-rule:nonzero}  </style></defs><g
     inkscape:label="Warstwa 1"
     inkscape:groupmode="layer"
     id="layer1"
     transform="translate(950.29067,1000.195)"><g
       id="layer1-8"
       transform="translate(-447.85857,-448.15443)"><g
         style="clip-rule:evenodd;fill-rule:evenodd;image-rendering:optimizeQuality;shape-rendering:geometricPrecision;text-rendering:geometricPrecision"
         id="g157"
         transform="matrix(0.04117307,0,0,0.04117307,-599.44548,-460.36599)"><g
           id="Livello_x0020_1"
           transform="matrix(0.93471341,0,0,0.92060504,20681.835,4296.5375)"
           inkscape:label="Livello 1"
           inkscape:groupmode="layer"><metadata
             id="CorelCorpID_0Corel-Layer" /><g
             id="g11"
             transform="translate(-19622.327,-7102.4749)"
             style="display:inline"><path
               class="fil1"
               d="m 1843,459 256,-39 -123,-13 z m 218,-21 -265,41 -34,49 z m 115,-22 5,1 v -2 z m 9,1 8,1 -6,1 1,1 361,22 89,-146 -456,119 z m -5,3 -33,5 -22,23 55,-26 z m -180,-23 143,16 170,-138 z m -30,-1 c 1,-1 3,-1 4,-1 l 370,-146 c 0,0 1,0 2,0 l 3,-2 c 1,0 2,0 3,0 l 260,-114 24,-11 -9,10 147,5 c 0,0 1,0 1,0 l 245,-76 v 0 h 1 l 290,-44 c 4,-1 7,2 7,5 1,3 -1,5 -3,6 l 47,-9 c 1,0 1,0 1,0 h 1 1 l 156,11 36,-10 c 3,-1 7,0 8,4 1,3 -1,6 -4,7 l -6,2 46,3 c 0,0 1,0 1,0 l 203,29 v 0 0 l 310,75 v 0 0 l 80,15 -12,-58 c -1,-3 2,-6 5,-7 3,-1 6,1 7,5 l 13,63 371,70 v 0 0 0 h 1 v 0 0 0 1 0 0 h 1 v 0 0 c 0,0 0,0 0,0 h 1 v 0 l 52,43 255,100 94,19 c 3,0 5,3 4,7 0,3 -3,5 -7,4 l -28,-5 179,70 c 2,1 4,3 4,6 l 139,197 93,102 104,21 c 3,1 5,4 4,7 0,3 -4,5 -7,5 l -87,-18 161,174 c 2,3 2,7 -1,9 -2,2 -6,2 -8,0 l -172,-187 -120,-25 315,284 c 2,3 2,7 0,9 -2,2 -6,3 -8,0 l -324,-292 -42,172 c -1,3 -4,5 -8,4 -3,0 -5,-4 -4,-7 l 43,-176 -448,-112 2,9 c 0,4 -2,7 -6,7 -3,1 -6,-2 -6,-5 l -2,-14 -17,-4 v 0 l -4,-1 v -1 l -353,-177 -91,5 280,248 c 3,2 3,6 1,9 -3,2 -6,3 -9,0 l -289,-256 -129,8 11,81 294,106 c 3,1 4,4 3,8 -1,3 -4,4 -8,3 l -287,-103 7,52 c 1,3 -1,6 -5,7 -3,0 -6,-2 -7,-5 l -8,-59 -202,-73 76,216 c 1,3 -1,6 -4,7 -3,2 -6,0 -8,-3 l -80,-228 -4,-12 11,4 197,-12 -19,-137 -307,-17 -260,32 28,17 315,54 c 3,1 6,4 5,7 -1,3 -4,6 -7,5 l -285,-49 241,146 c 3,2 4,6 3,8 -1,3 -5,5 -8,3 l -356,-171 152,222 c 2,3 1,7 -1,9 -3,2 -7,1 -9,-2 l -160,-234 -133,197 162,91 c 3,2 4,5 2,8 -1,3 -5,4 -8,3 l -163,-92 -18,27 c -2,3 -6,3 -8,2 -3,-2 -4,-6 -2,-9 l 18,-26 -193,-108 -152,129 -47,133 c -1,3 -5,4 -8,3 -3,-1 -5,-4 -3,-7 l 40,-113 -78,66 c -3,2 -6,2 -9,-1 -2,-2 -2,-6 1,-8 l 94,-80 28,-80 -501,180 c -4,1 -7,0 -8,-3 -1,-4 0,-7 4,-8 l 485,-175 -407,-24 -111,182 c 0,0 0,0 0,1 -1,1 -3,2 -4,2 l -615,106 -419,236 c -3,2 -7,1 -8,-2 -2,-3 -1,-7 2,-8 l 413,-233 -53,-49 -106,-10 -264,289 c -2,3 -6,3 -8,1 -3,-3 -3,-7 -1,-9 l 266,-291 130,-187 -5,1 c -3,1 -7,-1 -7,-4 -1,-3 1,-7 4,-8 l 21,-5 z m -210,145 c -3,1 -5,0 -7,-1 l -82,119 38,-18 c -1,-2 0,-4 2,-6 2,-3 6,-3 8,0 l 2,1 371,-173 23,-23 -15,7 16,-12 z m 419,-105 -79,37 -226,225 c -1,2 -3,2 -5,2 l -88,-8 45,42 600,-104 -235,-192 -23,213 c 0,3 -3,6 -7,5 -3,0 -5,-3 -5,-6 z m -112,52 -337,157 36,33 102,10 z m -349,162 -42,20 71,7 z m 493,-211 227,186 104,-171 -291,-18 201,50 c 3,1 5,4 4,7 -1,4 -4,6 -7,5 z m 382,-201 -12,5 68,36 27,-31 z m -27,11 -339,142 407,-106 z m -244,89 231,-97 h -1 l -43,4 z m 331,-44 -90,149 431,26 8,1 -3,7 -26,72 131,-111 -62,-20 h -4 c -3,1 -6,-1 -7,-4 z m -304,-33 -158,128 284,-140 -124,11 c -1,1 -1,1 -2,1 z m 157,-27 28,-14 c 0,-1 1,-1 2,-1 l 3,-3 -103,24 z m 47,-34 39,-46 -179,79 z m 64,-56 -44,51 189,-45 1,-1 z m -58,67 -12,14 8,4 36,-4 c 0,0 0,0 1,0 l 118,-16 38,-43 z m 252,-60 -42,10 -40,46 273,-38 z M 1499,627 c 3,-2 7,-2 9,1 2,2 2,6 -1,8 l -145,122 -141,155 -77,184 c -1,3 -4,5 -8,4 -3,-2 -4,-5 -3,-8 l 66,-157 -261,262 154,-66 c 3,-1 7,1 8,4 2,3 0,6 -3,8 l -182,76 -157,143 c -2,3 -6,3 -9,0 -2,-2 -2,-6 1,-9 l 157,-142 11,-27 c 0,-1 0,-1 0,-1 l 76,-135 1,-1 1,-1 188,-128 v -1 h 1 l 27,-13 141,-155 v 0 l 1,-1 z m -313,305 -182,124 -75,133 z m -224,449 c 2,-2 6,-2 8,0 3,3 2,7 0,9 l -290,265 10,106 49,53 233,-413 c 2,-3 5,-4 8,-3 3,2 4,6 3,9 l -237,419 -105,612 2,4 -5,3 c 0,0 -1,0 -1,0 l -181,110 24,408 183,-486 c 1,-3 5,-5 8,-4 3,1 5,5 4,8 l -189,501 79,-27 81,-94 c 2,-3 6,-3 8,-1 3,2 3,6 1,9 l -67,78 113,-39 c 3,-2 7,0 8,3 1,3 -1,7 -4,8 l -132,46 -130,151 108,193 26,-18 c 3,-1 7,-1 9,2 2,3 1,7 -2,8 l -27,19 92,162 c 1,3 0,7 -3,9 -3,1 -6,0 -8,-3 l -91,-161 -195,134 h -1 l 233,159 c 3,2 3,6 2,8 -2,3 -6,4 -9,2 L 346,3473 v 8 l 14,77 167,276 c 2,2 1,6 -2,8 -3,2 -7,1 -9,-2 l -150,-248 53,291 c 0,4 -2,7 -5,7 -4,1 -7,-1 -7,-5 l -59,-322 -5,-9 -22,553 136,20 13,-198 1,-29 9,25 225,79 c 4,1 5,5 4,8 -1,3 -4,5 -8,3 l -215,-75 72,201 59,9 c 3,0 6,3 5,7 0,3 -3,5 -7,5 l -52,-8 103,288 c 1,3 0,6 -4,7 -3,1 -6,0 -7,-3 l -106,-294 -80,-11 -8,128 254,289 c 2,3 2,7 0,9 -3,2 -7,2 -9,-1 l -246,-280 -6,93 174,350 c 0,1 1,1 1,2 v 0 c 3,1 5,4 5,7 0,2 -1,3 -3,4 l 3,10 18,3 c 3,0 5,3 5,7 -1,3 -4,5 -7,5 l -13,-2 105,447 6,1 180,-43 c 3,-1 6,1 7,4 1,3 -1,7 -5,7 l -170,42 291,325 c 3,3 2,7 0,9 -3,2 -6,2 -9,-1 l -297,-331 31,130 194,177 c 2,3 3,6 0,9 -2,2 -6,2 -8,0 l -181,-165 21,91 c 1,3 -1,6 -4,7 -4,1 -7,-1 -8,-5 l -25,-108 -94,-86 v 0 L 470,5134 c -2,-1 -3,-2 -3,-4 l -25,-213 -80,-156 41,219 c 0,3 -2,6 -5,7 -3,0 -7,-2 -7,-5 l -48,-258 -2,-5 c -1,-1 -1,-2 -1,-3 v 0 L 230,4581 c -3,0 -6,-2 -7,-5 l -56,-368 -72,-11 c -3,-1 -5,-4 -5,-7 1,-3 4,-6 7,-5 l 67,10 -16,-53 v 5 l -9,-35 -73,-306 c 0,0 -1,0 -1,0 l -27,-203 -1,-3 3,-3 38,-26 -8,-27 c 0,-2 0,-4 2,-6 l -16,-54 -25,80 c -1,4 -4,5 -7,4 -4,-1 -5,-4 -4,-7 l 29,-98 -30,-100 c -1,-3 1,-7 4,-8 4,-1 7,1 8,4 l 25,83 19,-64 88,-323 -20,-207 -64,274 c 0,2 -1,4 -3,4 l -47,191 c -1,3 -4,5 -7,4 -4,0 -6,-4 -5,-7 l 48,-197 c 1,-2 2,-3 4,-4 l 49,-213 -45,121 c -1,4 -5,5 -8,4 -3,-1 -5,-5 -3,-8 l 77,-208 7,-29 c -2,1 -5,0 -7,-2 -1,-1 -1,-2 -1,-4 l -5,-148 -11,9 11,-24 116,-263 v 0 l 143,-362 -2,-11 c 0,-3 2,-6 6,-7 1,0 2,0 2,1 l 70,-178 5,-23 c 1,-3 4,-5 7,-4 4,0 6,4 5,7 l -2,8 187,-131 z m -228,445 -42,-45 8,88 c 0,2 -1,4 -2,5 l -227,229 -34,75 213,-22 c 4,0 7,2 7,5 0,4 -2,7 -5,7 l -213,22 192,236 z m -56,-60 -37,-40 -156,346 202,-204 z m -35,-55 33,35 -7,-82 -128,90 c 1,1 2,3 1,5 l -110,367 29,-30 172,-384 v 0 c 1,-1 2,-2 3,-2 0,-1 0,-1 1,-1 v 0 0 0 0 c 0,0 0,0 1,0 v 0 c 1,0 2,0 3,0 l 1,1 c 0,0 1,0 1,1 z m -115,51 -48,35 -42,264 z m -102,412 21,-46 -23,22 -5,16 z m -8,-2 -2,4 -1,-8 -20,39 26,-24 z m -5,-26 -18,-135 -125,316 100,-95 z m -9,-159 15,118 41,-259 z m 93,461 c 1,3 -1,7 -4,7 -4,1 -7,-1 -8,-4 l -48,-198 18,289 170,-104 -186,-228 z m -53,115 -149,90 124,383 v 1 0 0 l 19,66 112,-130 -70,24 -9,24 -2,-29 z m -146,74 145,-88 -20,-329 z m -18,12 -36,-69 -5,12 10,83 z m -43,-82 -11,-21 -15,13 -44,187 43,-37 16,-118 c 0,-1 1,-2 1,-3 z m -1,-30 8,16 164,-340 -29,26 -142,285 z m 15,30 35,67 113,-376 z m -25,-47 6,-51 -16,70 v 0 z m 34,-167 -18,134 112,-223 z m -27,61 -78,177 45,-39 z m -38,159 -50,43 4,145 2,-1 z m -33,193 -11,45 19,192 38,-276 z m 62,-69 8,-7 -2,-35 z m 57,-33 -30,26 28,227 z m -48,41 -11,10 -47,339 88,208 z m 174,334 -114,-352 -3,321 39,311 49,-100 z m 22,76 -14,-49 -19,116 z m -86,320 28,-176 -39,81 z m 47,-212 -36,222 187,-129 -105,-187 z m -102,98 18,44 13,-27 -30,-238 z m 24,58 17,40 -7,-59 z m 2,36 -9,-21 -2,5 z m -15,-36 -12,-28 v 27 l 8,10 z m -34,-81 -95,-224 -82,306 14,55 57,-216 c 1,-1 1,-3 3,-4 2,-2 6,-1 8,2 l 98,134 z m 66,160 -34,-47 -10,21 v 3 c 0,1 -1,1 -1,2 l 30,48 14,-19 v -5 z m -42,-58 -2,-2 v 6 z m -20,-27 -101,-139 -60,224 20,77 144,-103 z m 7,-94 2,-270 -30,-244 z m -195,123 -19,61 17,57 17,-62 z m 4,142 c 0,1 0,2 -1,3 l 4,16 30,-21 -16,-60 z m 47,3 37,141 109,-150 -5,-91 z m 28,157 -39,-149 -29,21 74,259 2,-20 4,30 109,-255 -2,-33 -108,149 -8,10 z m 129,-182 19,-26 -22,-37 z m 26,-15 -25,34 1,24 25,-57 z m -139,688 29,-18 -35,-257 -18,190 z m 40,-26 32,-20 43,-363 -9,-168 -107,251 z m 45,-29 48,-31 -14,-253 z m 49,-17 -51,33 -21,175 92,190 z m -64,41 -28,19 14,101 z m -39,26 -28,18 56,361 c 1,0 2,1 3,2 l 101,125 -2,-36 -86,-82 c -2,-1 -2,-3 -2,-4 l -23,-241 c 0,-1 0,-1 0,-1 z m 107,-207 17,-425 -28,229 z m 9,-461 -30,70 7,125 z m 146,607 76,10 -65,-180 z m -12,10 -126,-18 119,135 z m -294,-271 -82,-285 -31,22 27,199 66,270 z m 6594,321 4,-7 -5,32 c 0,0 0,0 -1,0 l -80,437 c 2,2 3,6 2,8 l -20,35 -125,290 v 0 l -126,235 c -2,3 -5,4 -8,3 -3,-2 -4,-5 -3,-8 l 126,-235 78,-182 -188,338 c -1,0 -1,1 -2,2 -1,1 -2,2 -3,3 l -62,46 v 1 c -2,3 -4,4 -7,4 l -140,76 v 1 l -41,214 c -1,3 -4,5 -7,5 -3,-1 -6,-4 -5,-7 l 37,-194 -21,28 -35,157 c -1,3 -4,5 -7,4 -3,0 -5,-4 -5,-7 l 29,-131 -214,280 c -2,3 -6,4 -9,1 -3,-2 -3,-5 -1,-8 l 230,-301 9,-39 h -18 l -260,291 c -2,3 -6,3 -8,1 -3,-3 -3,-6 -1,-9 l 253,-283 h -114 c -3,0 -6,-3 -6,-6 0,-4 3,-7 6,-7 h 124 l 30,-33 -171,-43 c -4,-1 -6,-4 -5,-8 1,-3 4,-5 8,-4 l 175,44 78,-295 v 0 0 l 41,-181 1,-4 1,-1 156,-311 -41,-48 -191,196 c -2,2 -6,2 -8,0 -2,-3 -3,-6 0,-9 l 195,-200 192,-238 -286,40 c -4,1 -7,-1 -7,-5 -1,-3 2,-6 5,-7 l 296,-42 6,-107 -32,-135 v 0 l -55,-215 -67,111 -7,105 c 0,3 -3,6 -6,6 -3,0 -6,-3 -6,-7 l 5,-82 -34,56 c -1,3 -5,4 -8,2 -3,-2 -4,-6 -2,-8 l 46,-76 20,-331 -181,64 v 0 0 l -36,12 h -1 -1 l -37,-1 h -1 -1 l -39,-10 v 0 0 l -257,-72 7,390 70,68 c 3,2 3,6 1,8 -3,3 -7,3 -9,0 l -62,-59 2,101 c 0,3 -3,6 -6,6 -3,0 -6,-3 -6,-6 l -2,-112 -133,-127 -147,293 -167,226 -9,123 597,-131 c 3,0 6,2 7,5 0,3 -2,7 -5,7 l -587,129 351,169 v 0 l 217,103 c 3,1 5,5 3,8 -1,3 -5,4 -8,3 l -213,-102 -164,133 153,246 c 2,1 3,2 4,3 1,2 1,3 1,4 v 1 l -1,3 -65,211 c 0,0 0,1 0,1 l -136,339 356,-282 c 3,-2 7,-2 9,1 2,3 2,7 -1,9 l -368,291 16,9 242,-166 c 3,-2 6,-1 8,2 2,3 1,6 -1,8 l -238,163 155,98 c 3,1 4,5 2,8 -2,3 -6,4 -8,2 l -160,-100 -65,44 -42,61 100,162 c 2,3 1,7 -2,8 -3,2 -7,1 -8,-2 l -97,-157 -164,240 c -2,2 -6,3 -9,1 -2,-2 -3,-5 -1,-8 l 167,-244 -9,-14 -286,361 c -2,3 -6,3 -9,1 -2,-2 -3,-6 -1,-9 l 278,-349 -341,136 c 0,0 -1,1 -1,1 l -211,63 -3,1 -2,-1 c 0,0 0,0 0,0 l -252,-157 -132,164 101,214 c 2,3 0,7 -3,8 -3,2 -6,0 -8,-3 l -103,-217 -170,-351 -128,587 c 0,4 -3,6 -7,5 -3,-1 -5,-4 -4,-7 l 130,-597 -123,9 -225,168 h -1 v 0 l -274,166 108,113 112,2 c 3,0 6,3 6,6 0,4 -3,6 -6,6 l -100,-2 58,61 c 0,1 0,1 0,1 l 263,41 c 4,1 6,4 6,7 -1,3 -4,6 -7,5 l -279,-43 c -2,-1 -3,-2 -4,-4 l -351,-73 -62,223 39,29 c 2,2 3,6 1,8 -2,3 -6,4 -9,1 l -34,-26 -17,62 c -1,3 -5,5 -8,4 -3,-1 -5,-4 -4,-7 l 18,-66 -296,-224 -145,3 -153,200 c -2,3 -6,3 -9,1 -2,-2 -3,-6 -1,-8 l 155,-203 v 0 l 54,-68 -634,-520 -85,-1 19,400 70,86 c 2,3 1,7 -1,9 -3,2 -7,2 -9,-1 l -59,-74 9,214 c 1,2 0,4 -2,5 -1,1 -4,2 -6,1 l -721,-242 -126,-7 99,145 c 2,3 1,7 -1,8 -3,2 -7,2 -9,-1 l -104,-153 -203,-10 c -3,-1 -6,-3 -6,-7 0,-3 3,-6 6,-6 l 194,11 -140,-205 -184,115 c -3,2 -7,1 -8,-2 -2,-2 -1,-6 2,-8 l 181,-114 -364,-289 c -3,-2 -3,-6 -1,-9 2,-2 6,-3 8,-1 l 354,281 -69,-172 v -1 l -124,-353 -31,-15 c -3,-1 -5,-5 -3,-8 1,-3 5,-4 8,-3 l 11,5 c 0,-1 0,-2 1,-4 l 128,-204 -21,-24 c -2,-2 -2,-6 1,-8 2,-2 6,-2 8,0 l 18,21 80,-127 -65,-122 -363,175 c -3,1 -7,0 -8,-3 -2,-3 -1,-7 2,-8 l 364,-175 -86,-161 -187,-41 -65,276 c -1,4 -4,6 -7,5 -3,-1 -5,-4 -5,-7 l 65,-277 -98,-21 c -3,-1 -5,-4 -5,-8 1,-3 4,-5 7,-4 l 99,21 49,-210 -285,10 c -3,0 -6,-2 -6,-6 0,-3 2,-6 6,-6 l 298,-9 142,266 294,64 -35,-546 -141,-235 -72,68 -77,360 c -1,3 -4,5 -7,4 -3,0 -6,-4 -5,-7 l 73,-342 -265,253 c -3,2 -6,2 -9,0 -2,-3 -2,-6 1,-9 l 278,-265 28,-132 -15,14 11,-19 -401,168 c -4,2 -7,0 -8,-3 -2,-3 0,-7 3,-8 l 404,-169 -349,-143 -129,171 c -2,3 -5,3 -8,1 -3,-2 -3,-5 -1,-8 l 127,-168 -48,-20 c -4,-1 -5,-5 -4,-8 1,-3 5,-4 8,-3 l 51,21 191,-254 -171,-132 -164,-6 c -3,0 -6,-2 -6,-6 0,-3 3,-6 6,-6 l 148,5 -82,-63 c -2,-2 -3,-6 -1,-9 2,-2 6,-3 9,-1 l 95,74 117,4 -119,-499 c 0,-3 2,-6 5,-7 3,-1 6,1 7,5 l 117,490 299,-561 -370,19 c -4,0 -7,-2 -7,-6 0,-3 2,-5 5,-6 0,0 0,0 0,-1 v 0 l 243,-721 18,-345 c 0,-3 3,-6 6,-5 4,0 6,3 6,6 l -17,331 41,-35 12,-346 1,-5 5,-1 344,-18 8,-9 1,7 711,-239 11,-12 -1,17 v 0 0 l -17,367 565,-300 -491,-117 c -3,-1 -5,-4 -4,-7 0,-4 4,-6 7,-5 l 499,119 -5,-118 -73,-95 c -2,-3 -2,-6 1,-8 3,-2 6,-2 9,1 l 63,81 -6,-148 c 0,-3 3,-6 6,-6 4,0 6,3 7,6 l 5,164 133,172 249,-188 -22,-50 c -1,-3 0,-7 3,-8 3,-1 7,0 8,3 l 21,47 172,-130 c 3,-2 7,-1 9,2 2,2 1,6 -1,8 l -175,132 144,326 173,-385 c 1,-3 5,-4 8,-3 3,2 4,5 3,8 l -177,395 2,5 c 1,3 0,6 -3,8 0,0 -1,0 -1,0 l 146,-30 266,-279 c 2,-2 6,-2 8,0 3,2 3,6 1,9 l -254,265 354,-73 c 4,-1 7,2 7,5 1,3 -1,6 -4,7 l -371,77 -68,71 242,139 536,37 -3,-7 4,2 -64,-289 -260,-138 -6,1 v -7 c 0,-1 0,-1 1,-1 l 9,-295 c 1,-3 3,-5 7,-5 3,0 6,3 6,6 l -10,287 209,-50 -22,-101 c -1,-3 1,-6 4,-7 4,-1 7,1 7,4 l 23,101 278,-66 c 3,-1 7,1 7,4 1,4 -1,7 -4,8 l -279,66 41,185 162,86 175,-364 c 1,-3 5,-4 8,-3 3,2 4,5 3,8 l -176,365 124,65 128,-79 -23,-20 c -3,-3 -3,-6 -1,-9 2,-2 6,-3 9,0 l 26,23 193,-119 -5,-8 15,5 377,137 h 1 l 173,63 -279,-351 c -2,-3 -2,-7 1,-9 3,-2 6,-2 9,1 l 287,361 112,-180 c 2,-3 6,-4 9,-2 3,2 4,5 2,8 l -115,183 205,141 -10,-194 c -1,-3 2,-6 5,-6 4,0 6,2 7,6 l 10,203 153,105 c 3,2 4,5 2,8 -2,3 -6,4 -9,2 l -145,-100 7,126 242,721 c 0,0 0,0 0,1 v 0 c 1,0 1,0 1,0 v 0 1 0 0 0 0 0 0 c -1,2 -1,3 -2,3 0,1 0,1 0,1 v 0 h -1 v 0 c 0,1 0,1 0,1 h -1 v 0 c 0,0 -1,1 -1,1 v 0 c -1,0 -1,0 -1,0 v 0 0 0 0 h -1 v 0 0 l -213,-10 73,59 c 2,2 3,6 1,8 -2,3 -6,3 -9,1 l -85,-69 -471,-21 581,731 4,-5 c 1,-1 1,-1 1,-1 l 154,-119 30,-161 c 1,-4 4,-6 7,-5 4,1 6,4 5,7 l -28,148 106,-83 c 3,-2 7,-1 9,1 2,3 1,7 -1,9 l -117,91 -51,268 222,279 37,9 35,1 33,-11 143,-254 -58,-253 -92,-104 c -2,-3 -2,-6 1,-9 2,-2 6,-2 8,1 l 77,87 -27,-119 c -1,-4 1,-7 4,-8 3,0 7,2 7,5 l 33,141 75,85 v 0 l 39,51 130,-405 -15,-62 -166,-101 -23,28 c -2,2 -6,3 -8,1 -3,-3 -3,-6 -1,-9 l 22,-26 -134,-81 -5,7 -2,-14 -107,-615 -90,-160 h -75 c -3,0 -6,-2 -6,-6 0,-3 3,-6 6,-6 h 68 l -140,-248 c -1,-3 0,-6 3,-8 2,-2 6,-1 8,2 l 143,254 h 87 l -263,-342 c -2,-3 -1,-6 1,-8 3,-2 7,-2 9,1 l 254,331 -37,-193 c -1,-3 2,-6 5,-7 3,0 6,2 7,5 l 41,213 v 0 l 1,3 86,51 c 2,0 3,1 4,2 0,0 1,1 1,1 l 95,57 v -2 c -1,-4 1,-7 4,-8 3,-1 6,1 7,4 l 5,15 6,4 1,1 1,1 119,187 1,2 v 2 l -19,170 91,184 64,-62 9,-8 2,11 54,289 60,53 c 2,2 3,4 2,6 0,1 0,1 0,2 l -4,158 76,243 v 1 l 29,132 c 1,1 1,1 1,2 v 2 l 1,1 h -1 l 12,154 c 1,3 -2,6 -5,6 -4,0 -7,-2 -7,-6 l -10,-136 -30,47 15,97 2,-8 2,37 c 0,1 0,1 0,1 l 14,252 v 0 1 0 0 l 7,160 c 0,0 0,0 0,0 v 4 c 0,2 -1,4 -3,5 l -132,405 z m -5498,-2568 1,-29 -32,28 z m 26,-385 -12,329 160,-137 179,-209 z m -12,345 -2,35 110,-127 z m 362,-323 c 1,1 2,1 3,2 2,3 1,7 -1,9 l -2,1 23,376 84,5 258,-554 c 2,-3 5,-4 8,-3 4,2 5,5 3,8 l -241,519 558,-638 -696,234 z m -11,22 -183,157 -160,186 365,22 z m -130,96 129,-111 -2,-37 z m -225,261 c -2,3 -6,3 -8,1 -2,-1 -2,-3 -3,-4 l -41,-3 -234,697 639,-559 -519,241 c -3,2 -7,0 -8,-3 -2,-3 0,-6 3,-8 l 554,-257 -5,-85 -376,-23 z m 390,21 5,75 57,-51 -48,56 60,-6 6,-60 -11,9 5,-10 -13,7 13,-15 z m 150,-64 428,-373 c 3,-2 6,-2 9,1 2,2 2,6 -1,8 l -455,397 534,-283 16,-357 z m 1115,-560 c 0,1 0,1 0,1 v 8 l -5,-2 -583,310 -15,322 h 2 l 621,-534 v 0 0 c 0,0 1,0 1,0 l 97,-57 -122,-157 z m -601,324 -567,301 69,64 484,-48 z m -20,330 -467,46 282,265 z m -483,48 -75,7 -7,79 260,279 98,-65 16,-26 z m -88,8 -61,6 56,60 z m 14,-13 63,-6 -58,-55 z m -151,78 -613,536 360,-18 286,-538 -397,456 c -2,3 -6,3 -9,1 -2,-2 -2,-6 0,-9 z m 532,198 5,5 446,-257 -264,-61 z m -5,12 -1,-1 -2,2 z m -115,91 17,19 c 3,2 3,6 0,8 -2,3 -6,2 -9,0 l -18,-20 -289,192 h 226 l 148,-249 z m -19,-2 -252,-270 -40,465 z m -263,-282 -65,-70 -304,570 327,-17 z m -50,496 -325,16 -310,582 -7,14 -3,-11 -104,-3 157,121 57,-96 v -1 0 0 0 0 c 0,0 0,0 0,0 h 1 c 0,-1 0,-1 0,-1 v 0 0 h 1 c 0,-1 0,-1 1,-1 v 0 0 0 0 0 0 h 1 v 0 0 0 0 0 0 0 c 1,0 1,0 1,0 h 1 c 0,0 0,0 0,0 v 0 0 h 1 v 0 0 0 h 1 v 0 0 1 0 0 0 0 0 h 1 c 0,0 0,1 1,1 v 0 0 0 c 0,1 0,1 0,1 l 1,1 v 0 0 0 0 0 0 0 1 0 l 2,10 z m -533,642 -13,22 14,-17 z m -57,96 -188,249 349,143 -59,-277 z m 97,91 -36,-167 -54,66 z m -26,-179 42,197 134,151 180,-302 164,-679 z m 47,221 54,252 68,-114 z m 902,-1149 -157,265 h 436 l 432,-356 -682,73 z m -165,277 -176,296 71,311 106,-96 370,-449 c 1,-1 2,-2 4,-2 l 85,-6 -18,-54 z m -185,311 -232,390 -59,241 361,-326 z m -253,426 -162,271 23,26 85,-77 z m -168,282 -54,90 74,-67 z m 199,-358 218,-367 -63,-274 z m 227,-382 166,-279 h -230 z m 185,245 -106,96 35,154 11,-6 c 0,-1 0,-1 0,-1 v 0 0 0 h 1 v 0 0 0 0 0 0 0 0 c 1,0 1,0 2,0 v 0 0 h 1 v 0 c 1,0 1,0 2,1 v 0 0 0 h 1 v 0 0 0 0 0 l 377,359 10,-258 z m -117,106 -369,333 -14,60 418,-243 z m -385,348 -72,65 13,15 46,-27 z m -81,73 -61,55 73,-42 z m 525,-271 -10,6 94,410 200,34 95,-90 z m -21,13 -425,246 -15,61 c 2,1 4,3 4,6 v 0 l 528,88 z m -440,255 -34,19 23,26 z m -44,26 -116,67 67,38 77,-73 z m 36,41 v 0 l -74,70 82,48 z m -186,160 61,-58 -36,-60 z m 70,-67 9,-8 -31,-28 z m 18,-16 4,-4 -23,-13 z m 14,2 -5,6 100,91 -2,-43 z m -14,14 -12,11 130,218 -8,-129 z m 122,95 495,447 -1,-4 9,10 115,-118 -54,-235 -115,110 -3,3 -4,-3 -445,-258 z m 497,465 -496,-448 9,139 434,725 102,44 z m -501,-528 448,261 117,-111 -42,-183 -530,-88 z m 575,140 147,-140 -186,-31 z m 269,-255 128,-122 -119,-122 z m 138,-114 -137,129 135,129 9,-9 -1,7 293,-127 z m -152,143 -82,78 79,13 z m -93,89 -159,151 54,234 188,-194 6,-176 z m 225,25 -120,-114 -3,93 z m -91,-1184 -356,431 327,337 z m -18,780 119,123 -91,-839 z m 33,-775 100,910 311,135 20,-9 -259,-783 z m 82,1192 -130,-21 -6,161 z m -136,158 -26,680 67,81 100,-906 z m -27,698 -7,181 72,-103 z m -18,165 7,-179 -67,-80 z m 7,-197 25,-653 -184,190 86,374 z m -206,365 c 0,1 0,2 0,2 v 0 1 0 0 0 0 c 0,0 -1,0 -1,0 v 0 1 0 c 0,0 0,0 0,0 v 1 h -1 v 0 0 l -184,195 111,205 81,7 95,-270 -105,-176 z m -12,-1 -6,-57 -131,-218 -382,-164 339,629 z m -9,-86 -16,-141 -93,-40 z m -52,-598 48,449 217,93 -70,-305 z m 49,463 17,160 114,189 89,-255 z m -49,-482 189,229 -79,-343 z m -964,137 176,39 -129,-243 z m 474,116 -275,-60 82,153 z m -9,-533 33,527 380,163 z m 11,546 -190,91 61,115 z m -1012,50 -16,264 48,-200 z m -31,309 20,-331 -119,-240 20,408 z m 21,-355 5,-84 -107,-122 z m 172,373 -122,-246 -56,233 z m 4,13 -101,-8 103,15 z m -267,-33 42,4 -44,-42 z m 272,53 -191,-28 v 0 l 13,27 -1,-1 199,430 31,6 12,-145 c 0,-2 2,-4 4,-5 z m -210,-31 -57,-8 81,159 -17,-145 z m -7,-23 -62,-128 4,73 z m -75,-157 -91,-187 20,206 75,71 z m 1011,19 316,595 167,-177 -345,-639 z m 284,561 -292,-549 -77,125 z m -376,-414 -118,189 500,250 z m 32,278 -146,-73 2,6 z m 675,213 44,81 26,-75 z m 32,85 -47,-87 -241,-21 z m -53,-99 -105,-195 -161,171 z m -289,-17 -503,-233 118,339 c 2,-1 5,0 6,2 l 245,285 110,58 27,-447 -6,-1 z m -916,44 -46,-10 -5,56 79,72 z m -58,-12 -23,-5 19,42 z m -38,-9 -53,-11 c -2,-1 -3,-2 -4,-4 l -121,-237 21,177 180,126 z m -47,-22 40,8 -192,-414 17,141 z m 98,21 42,9 -32,-134 z m 222,513 c -1,-1 -1,-1 -1,-1 l -68,-48 c -3,-2 -3,-6 -1,-9 2,-3 5,-3 8,-1 l 13,9 -229,-235 c -3,-2 -3,-6 0,-8 2,-3 6,-3 8,0 l 276,282 43,18 -83,-103 c -2,-3 -2,-7 1,-9 3,-2 6,-1 8,1 l 97,121 117,49 c 3,1 5,5 3,8 -1,3 -4,4 -8,3 l -96,-41 109,137 1,1 103,-22 c 3,-1 6,1 7,4 1,4 -1,7 -5,8 l -92,20 289,228 c 3,2 3,6 1,9 -2,2 -6,3 -8,1 l -263,-208 53,68 167,167 186,147 c 3,2 3,6 1,8 -2,3 -6,3 -8,1 l -185,-145 c -1,0 -1,0 -2,-1 l -1,-1 c 0,0 0,0 0,0 l -167,-168 -1,-1 v 0 l -82,-104 v -1 l -2,-2 c -1,0 -1,-1 -1,-1 L 973,5740 Z m 580,-16 123,6 -105,-122 -152,-81 z m -216,-388 67,170 145,77 z m 722,-1 -317,-117 243,273 z m -332,-117 -27,445 163,87 117,-247 z m -28,458 -4,54 c 0,1 0,2 0,2 l 697,234 -404,-453 -117,248 -3,5 -5,-3 z m -15,45 3,-51 -87,-47 z m 384,-378 -74,158 411,462 -10,-214 z m 531,6 -106,-2 622,510 109,-96 -220,-109 c 0,0 0,-1 0,-1 h -1 v 0 0 0 z m -223,-5 -296,-6 314,391 z m -301,-18 301,6 -3,-66 -268,-23 z m 313,6 70,2 -73,-60 z m 90,2 113,3 -9,-21 -179,-43 z m -369,-103 258,23 -168,-281 z m 195,-536 241,514 393,-107 318,-221 z m 246,525 40,86 40,9 279,-193 z m 47,100 6,14 13,-9 z m -22,-18 -37,-79 -135,37 z m -42,-90 -239,-509 -89,255 176,296 z m -151,-642 -78,113 959,187 -32,-109 z m 19,-9 826,187 -127,-429 z m 839,190 102,23 176,-233 -193,-256 c -2,-3 -2,-7 1,-9 3,-2 7,-1 9,1 l 190,254 191,-253 60,-193 -664,230 z m 115,26 258,58 25,-134 -113,-150 z m 270,61 139,31 -116,-154 z m 128,41 -130,-29 -13,68 z m -142,-32 -264,-60 -67,90 107,102 210,-57 z m -277,-63 -90,-20 30,101 z m -237,-477 -121,-409 -249,205 c -2,2 -6,1 -8,-1 -2,-3 -2,-7 1,-9 l 253,-208 -38,-127 -540,793 z m -152,-557 38,127 241,-199 -112,-48 -164,116 z m 41,139 122,414 664,-230 -536,-389 z m 412,1100 127,119 46,-43 24,-130 z m 136,128 23,22 10,-54 z m 34,32 250,235 c 3,3 3,7 1,9 -3,2 -6,3 -9,0 l -245,-230 -66,361 484,-33 -207,-602 -194,182 z m -13,4 -30,-28 -284,268 c -3,2 -7,2 -9,0 -2,-3 -2,-6 0,-9 l 284,-267 -132,-125 -161,44 -134,391 398,96 z m -181,-170 -100,-94 -46,133 z m 212,68 170,-160 -148,40 z m -326,-157 -286,198 240,-66 z m -316,219 -299,206 432,105 132,-384 z m -312,216 -21,14 393,293 69,-201 z m 453,109 -71,205 219,110 246,-219 z m 160,320 329,165 179,-109 -262,-275 z m 304,166 -314,-157 -110,98 85,64 z m -323,17 280,211 60,-216 z m -35,-11 -74,-56 -46,57 z m 314,-394 259,272 272,-165 -49,-140 z m 423,462 -54,-56 -235,-5 z m -65,-69 -101,-106 -167,101 z m -2359,254 c -3,-1 -5,-4 -5,-7 1,-4 4,-6 7,-5 l 194,37 -331,-254 c -3,-2 -3,-6 -1,-9 2,-3 5,-3 8,-1 l 342,262 v -86 l -254,-143 c -3,-2 -4,-6 -2,-9 1,-3 5,-4 8,-2 l 248,140 v -69 c 0,-3 2,-6 6,-6 3,0 6,3 6,6 v 76 l 161,91 609,104 c 0,0 1,-1 1,-1 3,-2 7,-1 8,2 l 85,140 25,-21 c 3,-2 7,-2 9,1 2,2 2,6 -1,8 l -27,23 100,167 61,14 406,-130 -50,-38 c 0,0 0,-1 -1,-1 l -191,-168 c -3,-2 -3,-6 -1,-8 2,-3 6,-3 9,-1 l 190,167 123,7 257,-144 -19,-54 c -1,-3 1,-6 4,-7 3,-1 7,0 8,3 l 17,52 35,-19 c 3,-1 6,0 8,3 2,2 1,6 -2,8 l -37,20 54,157 586,-134 c 3,0 6,2 7,5 1,3 -1,6 -5,7 l -254,58 c 0,0 0,1 1,1 1,3 0,7 -2,8 l -58,35 84,-6 c 3,0 6,2 7,5 0,4 -3,7 -6,7 l -108,8 -94,57 201,63 h 1 l 138,33 103,-5 42,-298 c 1,-3 4,-6 7,-5 3,0 6,3 5,7 l -41,287 239,-192 v 0 l 199,-195 c 3,-2 6,-2 9,0 2,3 2,6 0,9 l -195,190 49,41 313,-157 c 0,-1 1,-1 1,-1 l 9,-4 v 2 l 160,-31 10,-8 c 2,-2 5,-2 7,0 l 291,-77 -44,-175 c 0,-3 2,-7 5,-7 3,-1 6,1 7,4 l 43,171 33,-30 v -124 c 0,-3 2,-6 6,-6 3,0 6,3 6,6 v 113 l 280,-253 c 2,-2 6,-2 8,1 2,2 2,6 0,8 l -288,260 v 19 l 44,-10 303,-231 c 3,-2 7,-1 9,1 2,3 1,7 -2,9 l -282,215 127,-29 c 3,0 6,2 7,5 1,3 -1,7 -5,7 l -152,34 -30,23 191,-38 c 3,-1 6,1 7,4 1,4 -1,7 -5,7 l -214,43 -68,125 5,-3 -13,18 -2,4 -21,37 4,-16 -33,43 v 0 l -1,2 h -1 l -226,125 70,-14 232,-125 c 3,-1 7,0 8,3 2,3 1,6 -2,8 l -233,125 v 1 h -1 l -108,21 -215,118 2,2 -10,2 v 0 0 l -63,18 c -1,1 -2,2 -4,2 l -7,1 h -1 c 0,0 -1,1 -2,1 l -359,59 h -1 l -23,74 c -1,2 -2,3 -3,4 v 0 c 0,0 0,0 -1,0 v 0 c 0,0 -1,1 -1,1 l -404,56 5,4 -22,-1 c 0,0 -1,0 -1,0 l -163,-8 v 0 h -1 l -289,20 h -1 v 0 l -156,-12 c -1,0 -1,0 -2,0 l -132,-31 h -1 l -245,-76 h -2 l -160,5 v 0 0 c 0,0 0,0 -1,0 v 0 c 0,-1 -1,-1 -1,-1 v 0 0 c -1,0 -2,-1 -2,-1 h -1 l -74,-86 -193,-96 -67,66 c -2,3 -6,3 -8,0 -3,-2 -3,-6 0,-8 l 63,-63 -187,-93 -168,19 v 0 0 c -1,0 -2,0 -3,-1 l -204,-77 h -1 v -1 l -66,-45 c -3,-1 -4,-5 -2,-8 2,-3 6,-3 9,-2 l 65,45 202,77 139,-16 -321,-96 c 0,2 -1,3 -3,4 -3,2 -6,1 -8,-2 l -4,-7 -23,-7 c -3,-1 -5,-4 -4,-7 1,-3 4,-5 7,-4 l 10,3 -58,-96 c 0,0 0,-1 -1,-1 -1,-1 -1,-2 -1,-3 l -53,-87 z m 244,46 v 0 l -12,-2 45,73 59,-54 z m 131,-18 -149,-84 v 86 l 121,23 z m 10,7 -23,21 53,9 z m -34,31 -68,62 63,105 338,101 -254,-254 z m 52,-30 33,33 129,24 h 2 l 1,1 230,178 187,-136 z m 48,48 255,255 82,-60 -226,-174 z m 636,201 -127,106 220,50 z m -140,102 133,-113 -80,-134 -192,139 z m -18,1 -131,-101 -78,56 z m -396,-17 c -2,-1 -3,-2 -4,-5 z m 367,65 35,-34 -183,-39 z m 50,-32 -38,38 183,92 c 2,-1 5,0 6,1 l 30,-17 z m 193,107 59,-34 -13,-22 -210,-47 z m 66,-24 -55,32 108,68 17,-20 z m -66,39 -34,19 69,77 129,-3 -46,-19 h -1 v 0 z m 130,66 43,17 -29,-32 z m 88,-98 -12,13 288,69 z m -21,23 -45,50 45,51 438,66 69,-45 z m -53,41 40,-44 -100,-24 z m 49,-54 10,-11 -71,-4 z m 280,-72 -207,49 265,1 z m -257,49 257,-62 v 0 l 149,-38 -90,-44 -394,126 z m -146,-9 22,-7 -30,-6 z m 45,-1 -14,4 44,2 z m 378,-179 40,31 47,-26 z m 80,433 47,-31 -347,-52 170,52 z m 147,-82 -67,44 114,17 89,-24 z m -82,54 -46,30 139,10 190,-13 -154,-8 c 0,0 0,0 0,0 v 0 h -1 z m -380,-204 436,130 -149,-129 z m 653,-188 -51,-151 -239,134 z m -309,-6 -56,31 94,47 211,-54 -11,1 38,-8 z m 318,19 -263,67 195,97 201,-122 z m -281,72 -152,38 62,54 h 278 z m 210,104 h -286 l 157,136 137,-41 -186,-57 c -3,-1 -5,-4 -4,-7 1,-3 4,-5 7,-4 l 204,62 22,-7 z m 27,-1 3,2 h -16 l 49,78 170,-52 c 4,-1 7,1 8,4 1,4 -1,7 -4,8 l -168,50 9,15 110,33 178,-156 z m 190,-141 84,-51 -198,15 z m 107,-65 69,-42 -242,55 z m -105,78 -192,116 354,-18 40,-35 z m 396,97 70,17 -8,-20 z m 56,26 -99,-23 -186,9 -172,150 z m -141,-33 -95,-23 -34,29 z m 174,41 -9,-3 -450,135 524,-40 z m -616,117 11,18 49,1 z m 19,31 5,8 31,-8 z m 12,19 25,41 28,13 98,-21 -82,-52 z m 8,36 -21,-33 -52,14 z m -27,-44 -8,-11 -176,-1 115,31 z m -15,-24 -15,-23 -41,-13 -118,36 z m -24,-39 -4,-5 -7,2 z m 78,123 h -1 l -107,-29 -74,20 z m 80,4 94,5 -29,-19 z m -11,-77 79,50 404,-86 z m 93,60 36,22 318,-98 z m 391,-244 90,127 234,-144 z m 59,208 20,-63 -360,111 z m 181,-408 -203,164 249,-125 z m 347,156 5,-58 -169,41 25,25 z m 6,-71 6,-87 -161,125 z m 7,-103 7,-91 -299,150 104,87 z m 20,-96 -7,86 146,-113 z m -8,102 -7,94 254,-63 195,-100 28,-123 -296,58 z m -8,107 -4,57 212,-108 z m -308,-48 -278,140 328,-18 55,-34 z m 163,128 19,20 72,-24 z m 29,30 20,20 56,-46 z m 28,29 13,13 185,-102 -119,23 z m 1,17 -10,-9 -22,18 z m -18,-18 -24,-24 -316,109 294,-49 3,-1 z m -33,-34 -23,-23 -94,5 -211,131 z m -34,-34 -21,-22 -40,25 z m 696,-378 -33,6 -20,91 z m -220,30 177,-34 3,-14 z m 190,-37 35,-7 v -14 l -32,7 z m -465,368 115,-22 219,-121 -104,26 z m 406,-207 -129,66 97,-24 z m 106,-185 v 11 l 21,-15 z m -12,-9 v -11 l -16,14 z m 452,-284 c -3,-1 -5,-4 -4,-7 0,-3 4,-5 7,-5 l 103,24 75,-75 -24,-102 c -1,-3 1,-7 5,-7 3,-1 6,1 7,4 l 21,93 139,-193 c 1,-2 5,-3 8,-1 1,1 2,3 2,4 l 77,-98 c 2,-3 6,-3 9,-1 2,2 3,6 1,8 l -196,251 137,-118 81,-81 c 3,-2 7,-2 9,1 2,2 2,6 0,8 l -82,81 v 0 l -183,157 -7,11 -1,-3 -64,64 3,1 -11,7 -158,184 v 0 l -78,78 c -1,1 -1,2 -2,3 l -202,152 c -3,2 -6,1 -8,-1 -2,-3 -2,-7 1,-9 l 199,-150 c 0,0 0,-1 1,-1 l 80,-81 v 0 l 118,-136 -251,196 c -2,2 -6,1 -8,-1 -2,-3 -2,-7 1,-9 l 97,-76 c -1,0 -3,-1 -4,-3 -2,-2 -1,-6 2,-8 l 194,-139 z m -217,-289 7,12 21,-31 z m 110,-89 -13,-8 -22,32 z m -63,43 29,-43 -43,23 -24,46 z m -33,-9 -286,153 260,-104 z m -382,190 392,-210 207,-389 -191,-90 -340,154 -157,347 z m 411,-220 47,-25 102,-255 z m -1202,-68 3,-13 2,4 42,-98 -154,114 z m 20,22 164,339 127,-158 z m 1374,-344 61,-195 -242,109 z m 59,-208 -151,-243 -317,256 214,102 z m -157,-253 -188,-301 -122,226 -6,330 z m -172,-298 181,290 158,-127 z m -151,247 -142,263 137,47 z m -147,273 -90,167 223,-120 z m -101,186 -125,232 250,-113 111,-245 z m -138,230 119,-219 -165,88 z m 129,-239 98,-181 -428,-150 151,428 z m 104,-191 154,-286 3,-172 -611,262 14,42 z m 166,-309 108,-199 -105,45 z m -144,644 -248,113 101,213 z m 24,-24 319,-144 -209,-99 z m -291,616 113,-252 -103,-219 -256,319 z m 120,-238 -107,237 192,-58 z m -1046,60 204,-152 -250,18 z m 222,-165 172,-128 -650,-449 206,596 z m -474,-589 658,454 263,-611 z m 620,586 302,187 254,-317 -326,7 z m 1,-14 202,-109 -157,3 z m 226,-121 282,-152 -155,-439 -41,-14 -262,608 z m 286,-141 -260,140 308,-6 z m -164,-465 -13,-36 -13,-19 -6,44 z m 0,-49 612,-263 -456,-658 z m -976,193 915,-156 -722,-498 z m -76,-566 -178,236 108,144 z m 78,-220 -62,198 -76,415 125,167 193,-656 z m 184,112 55,-187 -229,67 z m 59,-201 72,-245 -580,-413 -169,120 433,610 z m 81,-233 -67,229 187,-55 z m -71,243 -59,198 736,508 7,-55 -486,-710 z m 67,-271 v 0 0 l 231,-663 -414,-122 -205,247 z m 12,18 124,180 597,-176 7,-58 -98,-74 z m 131,191 477,695 111,-869 z m 487,710 13,18 156,-922 -55,17 z m 115,-901 48,-14 -42,-31 z m -2466,786 528,-775 -6,-16 -422,-115 z m 537,-787 v 0 h -1 z m 7,-11 2,-3 c 1,-2 4,-3 6,-2 l 93,-140 -187,-81 74,223 z m 308,-69 519,377 -414,-584 -166,117 z m -5,-362 -119,180 56,82 166,-117 z m -126,191 -58,89 59,26 52,-37 z m -65,100 -77,117 132,-94 z m -5,-16 63,-95 -67,-98 -201,87 7,21 z m 70,-106 109,-166 -171,75 z m -608,145 405,110 -75,-225 -32,-14 z m 313,-136 12,5 -3,-9 z m 309,134 96,41 -50,-74 z m -293,-154 198,-86 -443,-655 z m 210,-91 183,-79 -503,-415 c -3,-2 -3,-6 -1,-9 2,-2 6,-3 8,0 l 511,421 c 1,0 1,1 1,1 l 109,152 165,-117 -180,-128 c -1,-1 -1,-1 -2,-2 l -420,-511 c -2,-2 -2,-6 0,-8 3,-2 7,-2 9,1 l 414,503 80,-184 -674,-456 -244,-85 75,224 z m -645,-951 151,222 -64,-192 z m 67,-69 15,44 46,-3 z m 18,56 11,33 210,73 -162,-110 z m -3,28 -9,-27 -58,4 z m -3,-90 68,46 219,-15 z m 85,57 187,127 757,262 16,-36 -134,-310 -555,-61 z m 226,153 634,429 79,-181 z m 645,436 98,67 95,-62 -76,-177 -37,-12 z m 109,74 161,109 -72,-167 z m 164,126 -175,-119 -181,120 177,126 z m -186,-126 -92,-63 -75,173 z m 144,-608 -129,298 24,55 221,77 z m -136,313 -11,25 26,9 z m 0,-30 128,-294 h -7 l 8,-8 -98,-103 -64,5 -96,100 z m 37,85 71,164 139,-91 z m 76,175 77,179 198,-239 -126,-37 z m -1173,-668 365,40 450,-30 -381,-368 z m 434,47 473,52 -81,-78 z m 635,946 551,392 -373,-518 z m 781,-33 c -3,-2 -3,-6 -1,-9 2,-3 5,-3 8,-1 l 256,193 232,-175 -23,-103 -436,-128 -231,666 618,-125 -160,-120 -256,193 c -2,2 -6,1 -8,-2 -2,-2 -2,-6 1,-8 l 253,-191 z m 273,190 166,124 109,-22 4,-33 -54,-238 z m 179,134 84,63 10,-82 z m 95,72 44,33 -29,-127 -3,1 z m 47,-7 v -94 l -20,4 z m 0,-106 v -253 l -30,228 7,30 z m 12,-331 v 11 c 0,1 0,1 0,1 v 317 l 177,-36 50,-52 z m 0,341 1,136 161,-169 z m -15,-342 -82,62 48,211 34,-271 z m -85,49 80,-61 -101,-30 z m 298,241 62,-13 -25,-26 z m 76,-16 365,-74 -96,-397 -539,185 231,245 276,-287 c 2,-2 6,-2 9,0 2,2 2,6 0,8 l -277,288 z m 366,-61 -357,72 226,239 c 2,2 2,6 -1,8 -2,3 -6,3 -8,0 l -230,-244 -87,17 -178,185 602,208 z m -630,291 449,649 128,-172 19,-271 z m 590,459 151,-203 -133,-46 z m -14,41 -117,156 109,-47 z m 66,-786 -33,484 139,48 146,-292 z m 394,359 -7,-362 -120,241 z m -7,-408 5,-228 -73,-92 -74,84 z m 6,-247 3,-137 -63,48 -6,7 z m 15,-147 -4,161 25,31 46,-244 z m -4,180 -4,162 26,-134 z m 32,40 -36,191 241,68 z m -433,210 255,242 128,-256 -150,-249 z m -5,-13 232,-261 -122,-203 -205,71 z m 240,-270 74,-83 -574,-721 50,207 14,-21 5,-7 5,7 301,410 v 0 l 3,4 c 0,0 0,0 0,0 z m -881,52 531,-183 -105,-437 z m 543,-187 201,-69 -294,-400 -15,23 z M 4067,2657 c 2,-3 6,-3 8,-1 3,2 3,6 1,8 l -206,249 410,120 242,-698 -788,536 c -1,0 -1,1 -2,1 l 126,37 z m 224,380 429,126 -187,-821 z m 442,130 104,30 -166,-876 h -129 c 0,1 -1,1 -1,1 z m 147,-14 408,-593 -55,-226 z m 352,-847 1,-3 5,6 465,21 -399,-320 -340,117 z m -383,889 376,-874 h -542 z m -1122,-334 787,-535 -908,97 119,441 c 0,-1 1,-2 2,-3 z m -138,-462 -15,-90 -66,4 z m -17,-102 -19,-110 -83,87 27,28 z m -22,-125 -34,-200 -410,-95 -5,9 361,379 z m -36,-213 -92,-534 -63,15 -247,426 z m -80,-535 93,538 183,42 112,-118 -264,-453 z m 95,551 32,186 139,-146 z m 34,201 21,120 141,-9 222,-215 -233,-54 z m 23,132 17,97 108,-105 z m -753,-369 3,-3 4,4 v 0 0 l 392,380 190,-13 31,-33 -364,-383 -3,-3 2,-4 6,-10 -499,-115 -436,252 z m 411,392 81,78 85,-89 z m 199,-1061 -105,61 46,41 z m -116,67 -289,167 313,-74 27,-47 z m -326,188 -391,225 490,113 242,-419 z m -408,221 367,-211 -631,149 -1,1 z m 404,-233 320,-185 -150,-133 -218,-45 -600,517 z m 331,-191 121,-70 -259,-52 z m 395,686 234,54 125,-121 4,-4 2,2 461,49 -58,-135 -703,-404 -216,-15 262,450 3,4 -3,3 z m 248,57 349,81 -234,-193 z m 376,87 302,70 -95,-221 -449,-48 z m 271,75 -250,-58 84,69 z m -277,-64 -380,-88 -217,210 690,-46 z m -879,120 -22,23 41,-3 z m 88,-863 -44,-76 -66,69 z m -51,-87 -39,-68 -66,115 33,29 z m -22,-63 31,54 22,-23 z m 38,65 50,86 199,14 -223,-128 z m -52,-89 v 0 h 2 c -1,0 -2,0 -2,0 z m -76,145 -20,35 47,-11 z m 1268,846 h -1 l -100,72 h 114 z m -24,1 -166,11 71,58 z m -183,12 -718,48 -115,112 908,-97 z m 218,-19 15,78 h 534 l -265,-177 z m 1484,3026 h 10 l 3,-15 z m 22,0 h 16 l 1,-1 6,-34 -16,4 z m 7,13 h -9 l -4,16 z m 4,-57 14,-4 27,-152 z m 27,-7 125,-28 99,-196 63,-253 -94,7 -143,186 z m 87,-7 -89,20 -6,32 z m 60,-37 40,-30 24,-98 z m 57,-798 39,46 124,-249 z m 47,56 87,102 42,-189 10,-191 z m 82,115 -88,-104 -150,300 92,-7 z m 15,-1 21,20 3,-58 z m 32,32 22,21 97,-296 -114,184 z m 32,31 43,43 73,-396 -2,3 z m 37,55 -42,-42 -29,91 z m -51,-52 -19,-18 -4,89 z m -30,-30 -24,-23 -41,168 58,-4 z m -278,174 -34,150 121,-157 z m 113,-21 87,-7 38,-155 z m 153,0 -57,5 -51,207 z m 88,-53 -73,50 -135,267 -27,108 228,-407 z m -40,-563 5,-1 -2,4 18,5 -17,-73 z m 23,21 -23,-6 -8,141 z m 16,-5 86,73 7,-21 37,-498 z m 82,86 -87,-75 -46,201 -6,114 128,-207 z m -152,262 4,-67 -22,97 z m 5,-605 22,92 7,-125 z m 32,134 25,105 135,-459 -150,172 z m -148,-542 -17,278 62,-102 z m 54,162 112,-185 -103,-209 -60,193 z m 111,-161 -107,177 55,216 33,-38 z m 13,-27 83,50 6,-21 -62,-205 c -1,-3 1,-7 4,-8 3,-1 7,1 8,5 l 56,187 42,-135 -1,-2 -136,-157 z m 93,56 5,3 -3,-9 z m 21,12 24,15 v -172 l -36,118 z m 36,22 12,7 18,-67 -30,-110 z m 23,14 33,19 -20,-70 z m 37,36 -41,-24 -19,72 80,122 -6,-137 -12,-30 c -1,-1 -1,-2 -2,-3 z m -51,-31 -9,-5 v 39 z m -21,-12 -19,-12 19,63 z m -35,-21 -13,-8 -52,169 c -1,4 -4,5 -8,5 -3,-1 -5,-5 -4,-8 l 53,-172 -79,-48 -19,353 156,-180 z m 118,57 v 1 l 1,2 -10,-180 -20,74 z m -72,-300 1,-3 v 18 5 l 41,-65 -66,-440 -14,-12 z m -507,209 169,-59 -39,-171 z m 235,-263 -40,-82 -30,53 15,204 z m -33,-96 38,79 43,-138 62,-259 -17,-76 z m 46,95 98,200 v -278 l -54,-63 z m -94,-9 -15,27 26,111 z m -19,9 17,-31 -9,-121 -58,-66 z m 28,-50 25,-44 -31,-40 z m 133,-104 50,57 v -265 z m 62,71 128,148 -128,-434 z m -28,-452 7,-22 -14,-9 z m 10,9 -5,14 7,30 z m 6,-50 28,-53 -71,-112 z m 34,-65 17,-32 -92,-188 -27,26 14,55 z m 26,-22 -18,33 59,93 -21,-108 z m -25,46 -29,56 79,69 19,-17 z m 28,-60 13,12 -49,-262 -59,57 z m 78,86 -46,-41 23,122 20,48 z m 57,820 24,-89 -17,-111 -41,67 v 10 z m 44,325 -82,-125 -36,488 z m -2218,-1544 275,-96 -147,-98 -222,-24 z m 290,-101 338,-118 -299,-161 -189,179 z m 364,-115 407,326 221,10 -239,-708 -55,3 87,163 3,6 -6,3 z m -1839,-748 62,36 58,-61 z m 339,195 667,384 -150,-348 z m 684,394 291,167 189,-178 -630,-339 z m 264,166 -256,-147 55,125 z m 225,-185 177,-167 -594,-316 -223,138 z m 188,-160 -177,166 305,164 418,-197 -86,-163 -451,27 10,19 z m 3,-15 450,-27 -57,-108 -287,-246 -362,-132 z m 464,-28 50,-3 -96,-82 z m -87,-137 -78,-146 -161,-58 z m -57,-132 82,154 121,104 -7,-123 z m -343,279 -248,-497 -188,116 z m -24,-6 -423,-368 -126,77 z m -781,-162 208,-128 -117,-62 z m -13,-2 94,-194 -154,-81 z m -116,-473 -200,48 239,127 z m -223,45 c 0,-1 0,-2 0,-2 z m -549,205 3,-7 -148,-334 -245,186 111,99 z m -487,-99 184,38 -98,-87 z m 3685,1643 11,-10 -15,-60 z m 21,-19 44,-38 -67,-60 z m 75,-50 -13,11 15,14 z m -22,20 -49,43 110,453 -36,-474 z m -60,52 -13,12 93,313 z m 103,-31 -7,-16 1,11 z m 85,268 -53,-171 53,351 30,-48 z m -553,-586 134,81 110,-133 -106,-138 z m 144,88 155,93 -51,-220 z m 169,102 15,9 -53,-202 -10,-16 z m -58,-254 3,-3 -13,-52 z m 13,-13 25,-24 -67,-135 z m -6,23 -3,3 6,9 z m -275,-661 -63,67 15,80 254,254 -101,-339 z m -73,78 -21,23 31,31 z m -29,13 26,-28 -22,-120 h -87 z m 37,-39 54,-59 -73,-44 z m -29,67 101,583 136,-187 -178,-232 -1,-1 v -1 l -23,-128 z m 245,386 59,-82 -254,-255 20,109 z m 64,-68 -57,78 96,124 z m 15,-185 -107,-169 92,309 z m -382,-574 c 2,2 2,6 -1,8 -2,2 -6,2 -8,-1 l -225,-289 -23,93 c 0,3 -4,5 -7,5 -3,-1 -5,-4 -4,-8 l 24,-101 -139,-111 39,96 c 2,3 0,6 -3,8 -3,1 -7,-1 -8,-4 l -48,-116 -122,-97 c -2,-3 -3,-6 -1,-9 2,-3 6,-3 9,-1 l 105,84 -19,-45 c -1,-3 0,-6 3,-8 1,0 1,0 1,0 l -52,-58 c -3,-3 -2,-7 0,-9 3,-2 6,-2 9,1 l 230,254 v -1 l 8,10 z m -393,-428 101,81 -124,-138 z M 3115,428 h 1 v 0 l 74,-36 -123,21 z m 14,8 188,105 127,-188 -31,13 22,-16 -203,35 z m 330,-105 1,-2 2,2 22,-16 -49,-30 -24,11 z m -417,74 186,-32 92,-45 -317,-39 -315,3 z m 228,-39 149,-26 -78,-9 z m 232,-26 35,7 -14,-9 z m 63,24 -63,-11 223,107 z m -62,-36 h 3 l -1,-1 z m 22,-3 208,-25 -144,-8 -70,29 z m 277,-34 347,-43 9,-14 -375,-24 -169,71 z m 363,-45 64,-8 -57,-3 z m 129,-3 -138,17 -31,48 397,22 -174,-84 z m -153,19 -270,33 215,11 v 0 l 22,1 -2,-8 7,6 z m 192,-36 14,1 -140,-47 -17,26 z m 65,6 175,15 h 2 l 2,2 v 0 l 19,8 -21,-17 -348,-66 z m 199,38 40,43 49,17 -58,-48 z m 57,61 6,6 13,1 z m 18,19 50,53 -10,-51 z m 36,56 -54,-57 -73,-4 z m -66,-70 -12,-13 -215,-73 -35,-2 173,83 z m -30,-32 -41,-44 -110,-7 z m 54,-7 50,41 107,21 z m 59,60 13,62 142,18 z m 15,78 24,191 285,58 148,-11 -7,-29 z m 11,189 -11,-89 3,87 z m 257,64 204,51 -12,-54 -151,11 v 0 h -1 z m -519,-195 242,124 -7,-184 z m 697,136 -9,-41 -265,-135 -142,-18 z m 2,-47 12,53 52,24 -127,-180 -178,-22 238,121 c 1,1 2,2 2,3 v 0 c 1,1 1,1 1,1 z m 16,68 5,23 37,-3 z m 8,34 13,58 122,25 -80,-87 z m -741,-199 192,-49 -260,16 66,33 c 1,0 1,0 2,0 z m -511,-5 181,65 -11,-76 z m 298,-31 -135,-120 17,127 z m -105,-109 122,108 83,-5 z m 229,101 329,-20 -161,-78 -407,-22 z m -117,-212 -82,-12 -3,6 z m -95,-14 -301,-41 -61,26 358,22 z m -248,-46 255,35 18,-28 -82,-24 z m -415,144 54,-22 -21,-2 z m 80,-33 169,-71 -95,-6 -105,75 z m 194,-82 69,-29 -304,-82 -15,27 173,45 c 3,1 5,4 4,8 0,1 -1,2 -2,3 l -30,21 z m -286,109 26,-19 -62,-3 z m 42,-30 105,-76 -153,-9 -44,80 z m 120,-87 32,-22 -164,-43 -30,55 z m -55,-142 -41,28 456,53 -214,-52 z m -60,25 40,-26 -60,-4 -41,12 z m -110,199 44,-81 -231,-15 133,96 z m 50,-93 31,-57 -50,-14 -213,56 z m 37,-68 11,-20 -44,11 z m -120,192 -5,2 20,8 z m -19,9 -19,9 57,7 z m -41,6 26,-12 -49,-21 -223,3 z m 40,-19 9,-5 -14,-9 h -28 z m 21,-11 9,-4 h -15 z m -761,-57 47,6 12,-14 z m 62,8 64,8 210,-62 -258,35 z m 94,12 209,26 284,-4 -234,-98 z m 119,27 -148,-19 -71,21 z m -178,-23 -45,-5 -22,25 z m 368,-88 -27,4 241,102 h 40 l -135,-98 z m 107,-5 8,-2 220,-58 -61,-16 -257,70 z m 252,-66 59,-16 -62,-19 -60,18 z m 591,49 -433,-50 248,67 z m -1164,-3 193,12 217,-59 z m 2026,299 167,20 -197,-77 -134,-26 z M 3023,73 2896,112 3118,65 v 0 l 192,-36 z m -175,61 528,-60 64,-19 -77,-23 -243,45 z m 272,-57 z m 297,-42 43,14 28,-9 z m -54,-16 c 0,0 1,0 1,0 z"
               id="path9"
               style="display:inline;fill:#d5f6ff" /></g><path
             class="fil2"
             d="m -16072.327,-223.47487 c -1,0 -2,-1 -3,-1 -5,-2 -9,-6 -9,-11 0,-15 19,-15 28,-16 8,0 24,-1 31,1 5,2 8,6 9,11 15,-1 34,-1 42,2 5,2 9,6 9,12 0,11 -11,14 -19,15 -8,2 -16,2 -24,3 -12,1 -44,3 -55,-2 -5,-2 -9,-6 -9,-11 0,-1 0,-2 0,-3 z m 2606,-1379.00003 c 1,9 -7,21 -12,27 -6,9 -20,26 -33,19 -16,-8 -2,-29 5,-38 2,-3 4,-6 8,-10 -1,-3 0,-6 1,-9 -7,7 -16,14 -25,9 -16,-8 -2,-29 5,-38 7,-9 21,-26 34,-20 8,5 8,13 5,21 7,-7 16,-14 25,-9 16,8 2,29 -5,38 -2,3 -4,7 -8,10 z m -4,-223 c -5,2 -9,1 -14,-2 -2,-1 -5,-3 -6,-6 -10,-19 13,-56 24,-71 10,-13 35,-43 54,-32 3,2 5,4 6,6 5,9 3,21 -2,34 5,-2 9,-1 14,2 2,1 4,3 6,6 10,19 -13,56 -24,71 -10,13 -35,43 -54,32 -3,-2 -5,-4 -6,-6 -5,-9 -3,-21 2,-34 z m -176,-119 c 1,-1 2,-2 2,-2 9,-10 25,-22 38,-14 3,2 5,4 6,7 8,14 -4,35 -14,45 -8,9 -23,21 -36,15 0,1 -1,1 -2,2 -8,10 -25,22 -38,13 -2,-1 -4,-3 -6,-6 -7,-14 5,-35 14,-46 9,-9 23,-20 36,-14 z m 649,-1006 c -3,6 -6,11 -10,15 -5,6 -13,10 -21,8 -17,-4 -19,-27 -18,-41 1,-22 9,-58 25,-74 5,-6 13,-10 21,-8 15,4 18,23 18,37 3,-2 7,-3 11,-2 13,3 14,18 13,28 -1,12 -5,32 -12,41 -4,5 -9,8 -15,7 -6,-2 -10,-6 -12,-11 z m 239,-547 c -1,0 -1,-1 -1,-1 -10,-1 -11,-10 -11,-18 -1,-5 0,-11 0,-16 0,-11 0,-37 18,-33 6,1 9,6 10,12 1,0 3,0 4,0 11,2 12,16 12,24 1,11 1,21 0,32 0,10 -1,21 -3,31 -1,9 -4,25 -18,22 -11,-3 -11,-16 -12,-25 0,-9 0,-19 1,-28 z m -437,231 c 1,-1 2,-2 2,-3 5,-5 11,-8 17,-7 13,2 18,15 19,26 2,15 -2,37 -12,49 -4,4 -10,7 -17,6 -13,-1 -17,-15 -19,-26 0,-5 0,-10 0,-16 -1,2 -3,4 -4,5 -5,5 -12,7 -18,6 -12,-2 -18,-14 -19,-25 -2,-16 2,-37 14,-48 5,-4 11,-7 18,-6 12,3 17,15 19,26 0,4 0,8 0,13 z m -563,2027 c 0,7 -4,14 -8,20 -7,9 -15,18 -24,26 -8,8 -17,16 -27,23 -8,6 -19,13 -28,7 -12,-8 -4,-22 2,-30 6,-9 15,-18 23,-26 9,-9 18,-17 28,-24 5,-4 13,-9 21,-9 0,-7 4,-14 7,-19 7,-10 15,-19 23,-27 8,-9 17,-18 27,-25 7,-5 19,-13 28,-7 12,7 5,21 -1,30 -7,9 -15,19 -23,27 -8,8 -17,17 -27,24 -5,4 -13,10 -21,10 z m -366,261.00003 c 3,-3 7,-6 9,-8 9,-7 29,-19.00003 38,-6 10,12 -8,27 -17,34 -7,5 -18,12 -28,12 -3,3 -7,6 -10,8 -9,6 -28,18 -37,6 -7,-8 -2,-17 5,-24 -6,1 -12,1 -17,-4 -11,-13 8,-29 17,-36 9,-7.00003 29,-21.00003 39,-9.00003 8,9.00003 0,20.00003 -8,28.00003 3,-1 6,-1 9,-1 z m -896,570 c -1,0 -2,1 -3,1 -4,3 -9,5 -13,6 -7,3 -24,10 -31,9 -5,-1 -8,-4 -10,-8 -2,-7 1,-12 6,-16 2,-1 3,-2 5,-2 4,-3 9,-5 14,-6 6,-3 23,-10 31,-9 2,1 4,2 5,3 3,-2 6,-3 8,-4 9,-5 18,-8 27,-12 10,-4 44,-18 55,-16 4,1 8,4 9,8 3,7 -1,13 -7,17 -2,2 -5,3 -8,5 -9,4 -18,8 -26,11 -11,4 -45,18 -55,16 -3,-1 -5,-2 -7,-3 z m 555,-717.00003 c -9,-15 8,-34 19,-43 13,-9 37,-20 49,-5 12,14 -2,32 -14,42 9,16 -8,34 -20,42 -12,9 -36,19 -48,4 -10,-13 2,-30 14,-40 z m 50,237.00003 c -15,7 -31,9 -39,-1 -9,-10 -3,-23 4,-33 8,-10 20,-20 31,-27 14,-10 54,-35 70,-17 5,6 5,13 2,20 15,-6 30,-8 38,2 8,10 1,23 -6,32 -8,9 -19,18 -30,24 -14,9 -52,31 -67,13 -3,-4 -4,-8 -3,-13 z m -1120,428 c -16,-1 -33,-6 -36,-20 -1,-2 -1,-5 -1,-7 3,-24 44,-35 63,-38 18,-2 56,-4 62,18 1,3 1,5 1,8 -1,10 -11,18 -22,24 0,0 0,0 0,0 4,3 6,6 7,11 1,14 -15,20 -25,23 -12,3 -32,5 -43,-2 -3,-2 -6,-6 -6,-11 -1,-2 0,-4 0,-6 z m 28,-334 c 2,-14 17,-23 29,-27 16,-5 41,-6 50,10 1,2 2,5 3,7 2,17 -16,28 -29,33 -9,3 -21,4 -32,2 -3,13 -19,21 -30,24 -15,4 -41,5 -51,-9 -2,-2 -3,-5 -3,-8 -2,-17 17,-27 31,-30 9,-3 21,-4 32,-2 z m -282,120 c -13,1 -28,-3 -34,-14 -2,-3 -2,-6 -2,-8 -1,-17 16,-26 29,-30 15,-3 40,-3 48,13 1,2 2,5 2,8 1,8 -3,14 -9,19 14,-1 31,1 38,12 2,3 3,6 3,9 1,17 -18,25 -32,27 -14,3 -39,3 -48,-11 -2,-2 -3,-5 -3,-8 0,-7 3,-13 8,-17 z m -364,-176 c 10,-3 21,-3 30,-1 13,2 29,10 31,26 0,5 -1,9 -4,13 -10,16 -35,20 -52,16 -13,-2 -29,-10 -30,-26 -1,-4 0,-8 2,-12 -11,4 -23,4 -33,2 -14,-2 -31,-10 -32,-26 -1,-5 1,-10 4,-14 1,-2 3,-4 5,-6 -5,-4 -9,-10 -9,-17 -1,-5 1,-10 3,-14 11,-16 37,-20 55,-17 2,1 5,2 8,2 -4,-6 -5,-15 0,-23 10,-18 35,-23 53,-19 19,4 38,22 27,43 -10,17 -35,22 -53,18 -2,0 -3,-1 -5,-1 1,2 2,5 2,7 0,5 -1,10 -4,14 -1,3 -3,5 -5,7 5,4 9,9 9,17 0,4 0,8 -2,11 z m 724,-236.00003 c 0,0 0,0 1,0 17,-6 43,-6 53,13 10,20 -10,38 -28,45 -17,6 -43,6 -53,-13 -1,-3 -2,-6 -2,-8 -1,0 -2,0 -3,1 -17,5 -45,4 -54,-14 -11,-21 11,-39 29,-45 17,-6 45,-5 54,14 2,2 3,5 3,7 z m -1141,449.00003 c -2,0 -4,-1 -5,-1 -13,-3 -33,-11 -32,-27 0,-3 1,-6 2,-8 9,-15 35,-14 49,-12 13,3 33,11 33,28 -1,1 -1,2 -1,3 13,-1 25,0 34,2 20,4 55,18 54,43 0,4 -1,8 -3,11 -14,25 -60,24 -83,19 -20,-4 -55,-18 -54,-43 0,-4 1,-8 3,-11 1,-1 2,-3 3,-4 z m -58,-588.00003 c -13,-11 -22,-26 -22,-44 0,-6 1,-11 2,-16 13,-39 62,-48 97,-38 29,8 60,32 60,65 0,5 0,11 -2,16 -12,37 -58,47 -93,39 5,7 6,15 3,24 -9,21 -37,24 -56,19 -19,-4 -43,-21 -34,-44 7,-17 28,-22 45,-21 z m -1572,246.00003 c 11,0 24,10 31,15 8,7 26,21 17,33 -1,2 -3,4 -5,4 -11,5 -27,-8 -35,-14 -2,-1 -4,-3 -6,-4 -10,0 -23,-10 -30,-16 -8,-6 -26,-20 -18,-33 2,-2 3,-3 6,-4 10,-5.00003 27,8 35,14 2,2 3,3 5,5 z m 5026,-3026.00003 c 0,0 -1,1 -2,1 -19,2 -27,-24 -29,-39 -2,-15 0,-42 19,-45 19,-2 28,24 29,38 4,-3 8,-5 13,-5 30,-4 44,41 47,64 2,15 2,31 -3,46 -3,12 -11,25 -26,27 -29,4 -44,-41 -47,-64 -1,-7 -1,-15 -1,-23 z m -191,361 c 5,-8 12,-14 22,-14 21,-1 29,24 29,41 0,17 -8,42 -29,42 -5,0 -9,-2 -13,-4 -5,10 -12,18 -23,18 -8,0 -14,-4 -18,-9 -5,5 -11,9 -19,9 -11,1 -19,-7 -24,-17 -4,3 -9,5 -15,5 -22,1 -31,-24 -31,-42 -1,-19 9,-43 30,-43 11,-1 19,5 24,14 4,-4 9,-6 16,-7 8,0 15,4 19,11 4,-6 10,-9 18,-9 5,0 10,2 14,5 z m -359,-423 c 8,35 -2,83 -41,94 -4,1 -9,1 -14,1 -34,-1 -57,-33 -65,-64 -8,-34 2,-83 41,-93 5,-2 9,-2 14,-2 18,0 33,10 45,23 -2,-17 4,-39 22,-45 22,-7 39,17 43,36 4,19 1,48 -21,55 -9,3 -17,0 -24,-5 z m -4954,2123 c 1,-1 2,-1 3,-1 16,-7 34,11 42,23 7,11 18,32 5,43 -1,2 -3,3 -5,3 -13,6 -28,-6 -37,-17 -1,1 -2,1 -4,2 -16,5 -32,-14 -40,-25 -7,-12 -16,-33 -3,-43 1,-1 3,-2 5,-3 13,-4 26,7 34,18 z m -708,-611 c 1,-3 3,-6 7,-7 6,-2 11,0 15,4 6,7 12,24 15,33 2,10 6,26 -7,30 -5,2 -11,0 -14,-4 -1,0 -2,-1 -2,-2 -2,2 -4,3 -7,4 -5,2 -10,0 -14,-4 -6,-6 -11,-20 -13,-29 -2,-9 -6,-24 7,-28 4,-1 9,0 13,3 z m 484,-569 c 3,-3 7,-6 12,-7 2,-1 5,-1 8,-1 19,3 28,30 29,46 2,15 -1,39 -19,43 -2,1 -5,1 -8,1 -8,-1 -14,-7 -19,-14 -3,3 -6,6 -10,7 -3,0 -6,1 -8,0 -19,-2 -28,-28 -29,-44 -2,-15 1,-38 18,-42 3,-1 6,-1 8,-1 8,1 14,6 18,12 z m -679,-432 c 0,0 0,0 0,0 7,0 12,5 14,11 5,14 6,44 6,60 0,7 0,15 -1,23 -1,8 -4,18 -14,19 -7,0 -12,-5 -14,-11 -3,-8 -4,-21 -5,-33 0,0 -1,0 -1,0 -8,0 -12,-6 -14,-12 -3,-14 -2,-37 -2,-51 0,-3 0,-6 0,-8 0,-8 0,-15 1,-23 1,-8 3,-18 14,-19 8,0 12,6 13,12 2,9 3,21 3,32 z m 118,-766 c 1,2 2,4 3,6 3,9 0,26 -3,35 -2,10 -7,26 -20,24 -5,-1 -9,-5 -11,-10 -2,-8 0,-21 2,-30 -2,-2 -3,-4 -4,-7 -3,-9 1,-26 4,-35 1,-4 2,-9 4,-13 3,-6 9,-11 17,-10 5,1 9,5 10,10 2,7 0,21 -2,30 z m 62,-210 c -1,0 -2,0 -3,0 -6,-2 -9,-7 -10,-12 -2,-10 3,-27 7,-36 2,-4 4,-8 6,-11 4,-5 10,-9 17,-7 6,2 9,6 10,12 1,10 -4,26 -8,35 0,2 -1,3 -2,5 1,0 2,0 2,0 6,2 10,6 11,12 3,10 -1,28 -5,38 -1,4 -3,8 -5,12 -4,6 -10,10 -17,8 -6,-1 -9,-6 -11,-11 -2,-10 2,-28 6,-38 0,-2 1,-4 2,-7 z m 439,-130 c 4,-2 9,-3 14,-2 4,2 8,5 10,9 9,13 3,37 -4,51 -6,11 -17,26 -32,21 -5,-1 -8,-4 -11,-8 -5,-9 -4,-22 -1,-34 -5,2 -10,3 -16,2 -4,-2 -7,-5 -10,-9 -7,-14 -1,-36 6,-49 6,-10 18,-24 32,-20 5,2 8,5 10,9 5,8 4,20 2,30 z m -225,607 c 3,0 5,0 8,0 5,0 10,3 15,6 20,18 18,62 11,85 -5,19 -18,48 -41,47 -5,-1 -11,-3 -15,-7 -20,-18 -18,-61 -11,-85 1,-4 2,-10 5,-15 -4,-1 -7,-2 -9,-5 -11,-10 -10,-34 -7,-47 3,-12 11,-29 26,-28 4,0 8,2 11,5 10,10 10,31 7,44 z m 288,-171 c 6,-8 14,-14 24,-13 4,0 7,1 10,4 16,11 15,38 11,54 -5,14 -15,33 -33,31 -3,0 -7,-2 -10,-4 -2,-1 -3,-2 -4,-3 -5,8 -13,14 -23,13 -4,0 -8,-2 -11,-4 -16,-11 -15,-38 -10,-55 4,-14 15,-32 32,-31 4,1 7,2 10,4 2,1 3,2 4,4 z m 392,102 c -7,-13 -7,-31 -3,-45 6,-20 27,-40 49,-29 20,11 23,39 17,58 -6,20 -25,39 -46,30 19,24 19,62 8,89 -11,25 -35,50 -65,48 -8,0 -15,-3 -22,-7 -34,-20 -37,-69 -24,-102 11,-26 35,-50 65,-49 7,1 15,3 21,7 z m -402,-1142 c 2,-11 10,-24 15,-31 7,-9 20,-21 33,-14 4,2 6,6 7,10 3,13 -8,32 -16,42 -7,9 -19,22 -32,15 0,0 0,0 0,0 -2,11 -8,23 -14,30 -6,10 -18,23 -31,17 -4,-2 -7,-6 -8,-10 -3,-13 6,-33 14,-43 6,-10 18,-23 31,-17 0,1 1,1 1,1 z m -216,-66 c 1,3 1,6 0,9 -2,9 -9,22 -15,30 -2,3 -4,6 -7,9 -4,5 -11,8 -18,4 -5,-3 -7,-9 -6,-15 1,-4 3,-9 6,-14 -1,-3 -1,-6 -1,-9 2,-9 10,-22 15,-30 2,-3 4,-6 7,-9 5,-5 11,-8 18,-4 6,3 7,9 6,15 -1,4 -3,9 -5,14 z m 163,-84 c 3,2 5,5 5,8 2,12 -8,29 -15,38 -6,9 -18,21 -30,14 -4,-2 -7,-6 -7,-11 -2,-11 8,-28 15,-37 5,-8 15,-17 25,-16 -3,-2 -4,-5 -5,-9 -2,-12 8,-29 15,-38 6,-8 19,-20 30,-13 4,2 7,6 7,10 3,12 -7,29 -14,38 -6,7 -16,17 -26,16 z m 863,-1079 c 0,-3 1,-5 3,-7 6,-8 18,-16 27,-21 8,-4 21,-10 28,0 3,5 2,12 -2,17 -5,7 -18,16 -27,20 -5,3 -13,7 -19,6 -1,2 -2,4 -3,6 -6,8 -18,17 -26,22 -8,5 -20,12 -28,2 -4,-6 -3,-12 1,-17 5,-8 17,-17 25,-22 6,-3 14,-8 21,-6 z m -326,329 c -3,2 -5,4 -7,6 -8,5 -19,13 -28,4 -4,-5 -4,-12 -1,-17 5,-8 17,-18 24,-24 6,-4 15,-10 22,-8 2,-2 5,-4 7,-5 7,-6 19,-13 27,-4 5,5 4,11 1,17 -4,8 -16,18 -24,24 -5,4 -14,10 -21,7 z m -260,259 c 2,3 1,7 0,11 -4,9 -14,20 -21,27 -6,7 -17,16 -26,8 -5,-4 -6,-11 -3,-17 2,-5 6,-11 11,-17 -1,-3 -1,-7 0,-11 4,-9 14,-20 21,-27 6,-7 17,-16 27,-8 5,5 5,11 3,17 -2,5 -7,11 -12,17 z m 59,176 c 2,0 4,1 6,3 3,2 4,5 5,9 3,13 -10,30 -19,39 -8,8 -23,21 -35,12 -3,-3 -5,-6 -6,-9 0,-2 0,-5 0,-7 -2,0 -4,-1 -5,-3 -3,-2 -5,-5 -6,-8 -3,-14 10,-31 19,-40 8,-8 23,-20 35,-11 3,2 5,5 6,8 0,2 0,5 0,7 z m 252,240 c 1,-1 1,-1 2,-2 9,-10 26,-20 40,-11 3,2 6,6 7,9 7,17 -6,39 -18,50 -9,10 -26,20 -40,11 -3,-2 -6,-5 -7,-9 -2,-4 -2,-9 -2,-14 -1,2 -3,3 -5,5 -10,8 -27,17 -40,7 -3,-3 -5,-6 -6,-10 -5,-17 9,-37 21,-47 11,-9 28,-17 40,-7 4,2 6,6 7,10 1,2 1,5 1,8 z m 1728,-498 c 0,0 0,0 0,0 -2,-5 -4,-11 -4,-16 -5,-40 37,-69 72,-74 30,-5 68,3 82,33 2,5 4,10 5,16 4,40 -38,68 -73,74 -21,3 -46,0 -64,-12 0,1 0,2 0,3 3,24 -22,39 -42,42 -20,3 -49,-4 -51,-28 -3,-24 22,-39 42,-42 10,-2 23,0 33,4 z m -1867,-5 c 1,-12 14,-25 23,-32 8,-7 23,-17 33,-7 3,3 5,8 4,12 -1,12 -15,26 -23,34 -6,4 -15,10 -23,10 -1,12 -12,25 -20,32 -8,7 -21,16 -32,8 -3,-3 -5,-7 -5,-12 0,-12 12,-26 20,-34 6,-5 14,-11 23,-11 z m 155,155 c 1,15 -14,31 -24,39 -10,7 -26,15 -37,5 -3,-3 -5,-6 -5,-10 -2,-15 13,-31 24,-39 7,-5 17,-11 25,-10 -1,-14 13,-31 22,-39 9,-8 25,-17 37,-8 3,3 5,6 5,10 3,14 -11,32 -21,41 -7,5 -17,12 -26,11 z m 385,-34 c 6,0 12,2 17,7 3,3 5,7 5,11 3,19 -14,37 -29,46 -12,7 -31,11 -42,-1 -3,-3 -5,-7 -5,-11 -2,-12 5,-25 14,-34 -5,-1 -9,-2 -13,-6 -3,-3 -5,-8 -6,-12 -3,-18 13,-36 27,-44 11,-7 28,-12 39,-1 3,3 5,7 6,12 2,12 -5,24 -13,33 z m -231,-283 c 5,0 11,1 15,5 2,3 4,6 4,9 1,14 -15,30 -25,38 -10,7 -27,16 -37,5 -2,-2 -4,-5 -4,-8 -5,0 -10,-1 -14,-5 -2,-3 -3,-6 -4,-9 -1,-14 15,-29 25,-36 9,-7 27,-15 37,-4 1,1 2,3 3,5 z m 376,-491 c 10,-5 23,-10 28,2 4,9 -2,15 -8,20 -5,3 -10,6 -15,9 -6,4 -20,12 -29,10 -10,5 -23,10 -29,-1 -4,-9 3,-16 9,-20 4,-4 9,-7 14,-9 7,-4 21,-13 30,-11 z m 64,267 c 1,1 1,3 1,5 2,15 -16,29 -28,35 -11,6 -30,12 -39,0 -2,-3 -3,-5 -3,-8 -2,-15 16,-29 28,-35 5,-3 12,-6 19,-7 -1,-2 -2,-4 -2,-5 -1,-16 18,-29 30,-35 11,-5 30,-11 39,2 1,2 2,5 3,8 1,15 -18,28 -30,34 -5,2 -11,5 -18,6 z m 620,-89 c 15,-3 35,-2 41,13 1,2 2,4 2,6 1,18 -23,31 -38,35 -14,4 -38,5 -45,-12 -1,-1 -2,-3 -2,-5 0,-3 0,-6 1,-8 -13,2 -28,1 -35,-12 -1,-2 -1,-5 -2,-7 -1,-18 21,-31 35,-35 14,-4 35,-5 42,10 1,2 2,5 2,7 0,3 0,6 -1,8 z m 93,-412 c 5,-3 11,-5 16,-6 11,-3 34,-8 39,7 3,9 -4,15 -12,19 -5,3 -11,5 -17,7 -11,3 -34,8 -39,-7 0,-1 0,-3 0,-4 -5,2 -10,4 -16,6 -10,3 -32,8 -37,-7 -3,-9 4,-15 11,-19 5,-3 11,-5 17,-7 11,-3 33,-8 37,7 1,1 1,3 1,4 z m 373,498 c 3,3 5,6 7,10 0,1 1,4 1,6 1,18 -21,29 -36,33 -16,3 -44,3 -52,-16 -1,-2 -1,-4 -1,-6 -1,-10 5,-17 12,-23 -3,-2 -5,-5 -6,-8 -1,-2 -1,-4 -1,-6 -2,-19 20,-30 35,-34 17,-4 45,-3 53,15 0,2 1,4 1,6 1,10 -5,18 -13,23 z m 3212,705 c 3,3 5,7 7,9 7,9 23,31 7,40 -13,7 -27,-13 -33,-21 -5,-7 -15,-19 -14,-29 -3,-3 -5,-6 -7,-9 -6,-9 -22,-30 -6,-38 8,-4 15,1 20,6 5,4 9,9 13,14 4,6 13,18 13,28 z m -946,-474 c 11,9 22,24 16,38 -1,1 -2,3 -3,4 -12,13 -33,5 -44,-3 -13,-8 -31,-27 -23,-43 0,0 0,0 0,0 -10,-10 -20,-24 -14,-37 0,-2 1,-4 3,-5 11,-12 31,-4 43,4 12,8 29,26 22,42 z m -1163,-228 c 7,6 13,13 13,22 1,2 0,4 0,6 -5,18 -30,21 -45,20 -17,-2 -44,-12 -44,-32 -1,-3 0,-5 0,-7 2,-4 4,-8 7,-11 -7,-5 -12,-11 -12,-20 0,-2 0,-4 1,-6 4,-18 28,-22 44,-20 17,1 42,11 43,31 0,2 0,4 0,6 -2,5 -4,9 -7,11 z m -1265,-563 c -1,1 -2,1 -3,1 -11,2 -33,5 -37,-10 -3,-16 20,-21 31,-23 8,-2 23,-4 31,2 2,0 3,-1 4,-1 11,-2 33,-5 36,10 4,16 -19,21 -30,23 -8,2 -24,4 -32,-2 z m 266,277 c -3,0 -6,1 -9,1 -15,2 -40,-1 -43,-20 -2,-20 23,-28 38,-29 14,-2 39,1 43,18 10,-5 23,-8 34,-10 15,-2 32,-1 46,3 13,4 25,13 27,27 2,14 -8,26 -19,33 -13,8 -29,13 -44,15 -14,2 -31,2 -46,-3 -12,-4 -25,-12 -27,-27 0,-3 0,-6 0,-8 z m 1555,-182 c 3,3 3,8 1,12 -6,14 -27,8 -38,4 -5,-2 -11,-4 -16,-8 -7,-4 -14,-11 -10,-20 2,-4 4,-6 8,-7 -3,-4 -5,-8 -3,-13 1,-1 1,-2 2,-3 8,-11 28,-3 38,1 5,2 11,4 16,7 6,4 12,11 9,19 0,1 -1,3 -1,4 -2,1 -4,3 -6,4 z m -991,-228 c 7,0 14,1 20,2 10,2 23,5 22,17 -1,13 -14,14 -23,15 -11,0 -21,0 -31,-1 -10,0 -21,-1 -31,-3 -8,-2 -21,-5 -21,-15 -7,0 -13,-1 -20,-2 -9,-1 -23,-2 -23,-15 1,-13 15,-14 24,-14 10,-1 20,-1 30,-1 10,1 21,1 30,2 9,1 23,3 23,15 z m -2596,991 c 11,-13 25,-27 37,-38 4,-4 9,-9 13,-13 2,-1 3,-2 5,-3 5,-4 12,-5 17,0 6,6 4,14 -1,19 -11,14 -25,28 -38,39 -5,5 -10,10 -15,14 -11,13 -25,27 -37,38 -4,4 -9,9 -13,13 -2,1 -3,2 -5,3 -5,4 -12,5 -17,0 -6,-7 -3,-14 1,-19 11,-14 25,-28 38,-40 5,-4 10,-9 15,-13 z m 3631,3630 c 6,-11 15,-20 26,-26 23,-11 54,-8 65,17 11,25 -7,52 -29,63 -2,1 -4,2 -6,3 -4,9 -9,18 -17,24 -19,18 -49,19 -64,-5 -14,-22 -6,-52 13,-68 4,-3 8,-6 12,-8 z m 35,36 c 0,-3 -1,-7 -3,-10 -3,-5 -8,-7 -14,-7 0,3 0,6 1,8 3,7 9,9 16,9 z m -2956,1687.00003 -10,-8 13,4 c 9,-8 28,2 36,7 5,2 10,5 14,8 6,2 12,5 17,8 5,3 10,6 15,10 5,4 10,9 9,15 l 10,8 -11,-3 c 0,0 0,0 0,0 l 10,9 -13,-4 c -9,8 -27,-2 -36,-7 -4,-2 -9,-5 -13,-9 -6,-2 -12,-5 -17,-7 -5,-3 -11,-7 -15,-10 -5,-4 -10,-10 -10,-16 l -9,-7 10,3 c 0,0 0,-1 0,-1 z m -627,-1492.00003 c 2,-4 6,-6 11,-7 19,-5 37,14 44,30 7,14 10,35 -4,45 -2,2 -5,4 -7,4 -5,1 -9,1 -13,0 -3,4 -7,7 -13,9 -20,5 -38,-16 -46,-31 -7,-15 -10,-36 4,-47 3,-2 5,-4 8,-4 6,-2 11,-1 16,1 z m -647,-2753 c 0,0 0,0 0,0 10,4 11,15 11,24 -2,22 -16,55 -28,75 -6,10 -18,28 -33,22 -9,-4 -11,-15 -10,-24 0,-5 2,-11 3,-17 0,-1 -1,-1 -2,-1 -9,-4 -10,-14 -10,-23 2,-21 16,-52 28,-70 7,-10 19,-27 33,-20 9,4 11,14 10,22 0,4 -1,8 -2,12 z m 1274,-400 c -1,24 -14,49 -30,65 -20,21 -54,39 -82,23 -5,-3 -9,-6 -13,-11 -11,-14 -13,-33 -9,-50 4,-19 15,-37 28,-51 14,-15 34,-27 54,-29 2,-26 21,-51 41,-65 24,-17 62,-27 87,-6 3,4 7,7 9,12 1,1 2,3 3,5 14,33 -10,71 -37,90 -15,10 -33,17 -51,17 z m 4657,3 -1,-7 7,13 c 3,3 5,6 7,9 7,9 17,25 20,36 4,7 9,15 10,22 2,5 1,11 -3,15 l 6,31 -17,-28 c -2,0 -4,-1 -6,-2 l 1,7 -8,-13 c -2,-3 -5,-6 -7,-8 -7,-10 -17,-26 -20,-37 -4,-7 -8,-15 -10,-22 -1,-5 0,-11 4,-15 l -5,-29 16,26 c 2,0 4,1 6,2 z m -1432,-601 c 2,4 2,8 2,13 0,4 -2,9 -4,12 -10,14 -30,12 -43,6 -17,-6 -37,-23 -36,-43 1,-7 4,-12 8,-16 -2,-4 -3,-8 -2,-12 0,-4 1,-7 3,-10 10,-15 30,-12 44,-7 16,7 37,23 36,42 -1,6 -4,11 -8,15 z m -2749,-734 c 18,-4 39,-5 44,11 3,11 -8,22 -16,28 -11,8 -23,14 -36,19 -14,6 -56,21 -66,1 -17,4 -35,5 -40,-9 -3,-12 7,-22 15,-28 10,-8 23,-14 34,-19 14,-6 55,-23 65,-3 z m 2571,237 c 13,6 30,18 26,33 0,2 0,3 -1,5 -8,15 -32,10 -44,5 -11,-4 -28,-14 -32,-27 -11,-6 -22,-17 -20,-30 4,-19 28,-17 42,-12 11,4 26,13 29,26 z m -1419,-620 c 3,0 6,-1 10,-1 10,0 20,1 30,2 9,0 23,2 23,14 0,2 0,4 -1,5 l 6,2 h -7 c -4,7 -14,7 -21,8 -10,1 -20,1 -30,1 -10,0 -31,0 -41,-2 -4,0 -7,0 -11,0 -10,0 -20,-1 -30,-1 -9,-1 -23,-2 -23,-15 0,-2 0,-4 1,-5 l -6,-2 h 7 c 4,-6 14,-7 21,-8 10,-1 20,-1 30,-1 11,0 31,0 42,3 z m -3315,3309 c 3,14 2,35 2,49 0,3 0,5 -1,8 0,8 0,15 -1,23 -1,8 -4,18 -14,18 -8,0 -12,-5 -13,-12 -2,-7 -2,-15 -2,-22 -1,-10 -1,-20 0,-29 -1,-1 -1,-1 -1,-2 -3,-13 -1,-37 0,-50 0,-10 1,-36 17,-35 6,0 11,5 12,11 2,11 2,29 1,41 z m 608,1404 c 12,4 22,21 26,32 5,12 10,35 -5,43 -1,1 -3,1 -5,2 -14,2 -26,-15 -32,-28 -12,-4 -21,-18 -26,-28 -5,-12 -9,-31 4,-40 2,-1 4,-2 7,-2 13,-2 24,10 31,21 z m 2530,-1547 c -2,-18 2,-36 12,-52 27,-45 86,-56 130,-31 45,25 63,80 36,125 -20,32 -59,48 -95,42 3,21 -1,43 -11,62 -24,45 -80,61 -124,33 -43,-28 -57,-87 -33,-132 17,-32 50,-50 85,-47 z m 629,-3120 c 11,1 36,4 34,20 -3,16 -28,11 -38,10 -11,-2 -37,-4 -34,-21 2,-16 27,-11 38,-9 z m -428,8 c 11,0 39,-1 39,16 0,17 -28,16 -39,16 -12,0 -39,1 -39,-16 0,-17 27,-16 39,-16 z m 165,0 c 11,0 37,0 37,16 0,17 -26,16 -37,16 -11,0 -38,1 -38,-16 0,-16 27,-16 38,-16 z m 160,83 c 12,0 38,3 37,20 -1,17 -26,17 -39,17 -12,-1 -37,-4 -36,-21 1,-17 26,-17 38,-16 z m -483,0 c 12,-1 37,0 38,17 1,17 -24,20 -37,21 -12,0 -37,0 -38,-17 -1,-17 24,-21 37,-21 z m 215,109 c 14,0 39,4 39,22 0,18 -25,22 -39,22 -13,0 -39,-4 -39,-22 0,-18 26,-22 39,-22 z m 436,-114 c 16,2 64,10 62,33 -3,24 -52,20 -68,18 -15,-2 -64,-9 -61,-33 3,-24 52,-19 67,-18 z m -819,0 c 16,-2 65,-4 67,20 2,24 -46,31 -62,32 -16,2 -65,5 -67,-20 -2,-24 46,-31 62,-32 z m 408,163 c 21,0 84,4 84,34 0,31 -63,35 -84,35 -21,0 -83,-4 -83,-35 0,-30 62,-34 83,-34 z m -342,-249 c 11,-1 36,-4 37,12 2,17 -24,18 -35,19 -11,1 -36,3 -38,-13 -1,-16 25,-17 36,-18 z m -98,-5 c 11,-1 35,-4 37,12 1,16 -23,18 -34,19 -10,1 -35,4 -36,-12 -2,-16 22,-17 33,-19 z m 1100,233 c 18,4 65,19 61,44 -4,27 -54,20 -72,16 -18,-4 -65,-19 -61,-44 4,-28 54,-20 72,-16 z m 88,-129 c 12,2 35,8 32,24 -3,16 -27,13 -38,11 -12,-2 -35,-8 -32,-24 3,-16 27,-13 38,-11 z m -91,-26 c 11,2 31,8 28,23 -3,15 -23,13 -34,11 -11,-2 -31,-8 -28,-23 3,-15 23,-13 34,-11 z m 220,86 c 7,1 13,4 18,7 7,4 14,11 11,20 -5,16 -28,10 -39,7 -6,-2 -13,-4 -18,-8 -7,-4 -13,-11 -11,-20 5,-15 28,-10 39,-6 z m 389,111 c 11,4 23,10 33,16 8,6 17,14 14,25 -1,1 -1,2 -1,3 -11,18 -51,2 -65,-3 -11,-5 -23,-10 -32,-17 -8,-5 -18,-14 -14,-25 0,-1 0,-2 1,-3 10,-17 51,-2 64,4 z m 18,76 c 12,5 25,11 36,19 9,6 20,17 15,29 -9,22 -55,5 -70,-1 -12,-5 -25,-11 -36,-19 -8,-6 -19,-16 -15,-28 9,-22 55,-6 70,0 z m 244,-21 c 6,2 11,5 16,8 7,5 12,13 8,21 -8,13 -27,6 -37,2 -6,-2 -11,-5 -16,-8 -7,-5 -12,-13 -8,-21 8,-13 27,-6 37,-2 z m 148,78 c 5,2 11,5 15,9 6,5 11,14 5,22 -8,11 -27,3 -36,-2 -5,-3 -11,-6 -15,-10 -6,-5 -11,-14 -6,-22 9,-11 28,-2 37,3 z m 56,110 c 9,7 30,22 18,35 -9,11 -29,0 -38,-6 -10,-7 -30,-22 -19,-35 10,-11 29,0 39,6 z m 88,91 c 10,6 32,22 20,36 -10,11 -31,-1 -41,-7 -9,-7 -32,-23 -20,-36 10,-12 31,1 41,7 z m 201,130 c 5,4 11,9 15,14 5,7 9,17 1,24 -12,10 -31,-5 -40,-13 -5,-4 -10,-9 -14,-14 -5,-7 -9,-17 -1,-24 12,-10 31,5 39,13 z m -245,-67 c 14,10 52,39 40,61 -13,23 -56,-2 -71,-12 -14,-10 -52,-39 -40,-61 13,-23 56,2 71,12 z m -174,-48 c 12,7 35,22 27,38 -8,18 -34,6 -46,0 -12,-7 -35,-22 -27,-38 8,-18 35,-6 46,0 z m -1766,-123 c 17,0 45,6 46,27 1,21 -27,29 -44,30 -17,0 -45,-6 -46,-27 -1,-21 27,-29 44,-30 z m -307,-102 c 15,-2 43,0 47,19 3,20 -24,29 -39,31 -15,2 -42,0 -46,-19 -4,-20 23,-29 38,-31 z m -378,-329 c 10,-2 21,-4 31,-6 10,-1 25,-2 27,11 1,12 -12,16 -20,19 -10,4 -21,7 -31,10 -10,2 -21,5 -32,6 -9,1 -24,3 -26,-11 -2,-11 11,-16 20,-19 10,-4 20,-7 31,-10 z m 874,492 c 18,0 43,9 44,30 0,21 -25,30 -42,30 -18,1 -43,-8 -44,-29 0,-21 25,-31 42,-31 z m 140,-60 c 17,0 44,8 45,29 0,21 -27,28 -44,28 -17,-1 -43,-8 -44,-29 -1,-22 27,-28 43,-28 z m 212,-59 c 16,1 40,10 41,29 0,21 -26,27 -42,25 -16,-1 -40,-10 -40,-29 -1,-22 25,-27 41,-25 z m 94,-44 c 15,2 39,9 40,28 0,1 0,3 -1,5 -4,17 -27,19 -41,18 -15,-2 -39,-10 -40,-28 0,-2 0,-3 0,-5 5,-17 27,-19 42,-18 z m -46,-62 c 14,1 39,8 40,26 1,21 -27,24 -41,22 -15,-1 -40,-8 -41,-26 -1,-20 27,-23 42,-22 z m 275,200 c 16,3 40,15 39,34 -1,2 -1,4 -2,6 -6,17 -29,18 -44,16 -16,-3 -40,-15 -39,-35 0,-2 1,-4 2,-6 6,-16 29,-18 44,-15 z m 316,-121 c 14,4 38,14 36,31 -2,20 -29,19 -44,16 -14,-3 -37,-13 -35,-31 2,-20 29,-19 43,-16 z m -26,169 c 9,3 18,7 25,13 8,5 14,14 12,23 -4,22 -34,18 -48,13 -9,-3 -18,-7 -26,-13 -7,-5 -13,-14 -11,-23 4,-21 34,-18 48,-13 z m 121,49 c 15,6 35,21 32,40 0,2 -1,5 -2,7 -9,14 -30,11 -44,6 -15,-6 -35,-21 -32,-39 0,-3 1,-5 3,-7 8,-15 30,-12 43,-7 z m 979,266 c 6,4 12,10 16,16 5,7 8,17 1,24 -12,11 -33,-3 -43,-11 -5,-4 -11,-10 -15,-16 -6,-7 -9,-17 -1,-24 12,-11 33,3 42,11 z m 17,81 c 10,9 27,30 13,43 -13,11 -34,-4 -44,-13 -9,-9 -27,-30 -12,-43 12,-11 33,4 43,13 z m 50,101 c 6,5 11,12 14,19 3,9 4,19 -4,25 -14,11 -34,-6 -43,-16 -5,-5 -10,-12 -14,-19 -3,-9 -4,-19 4,-25 14,-11 34,6 43,16 z m 180,-51 c 9,8 26,27 12,38 -11,11 -30,-4 -38,-12 -9,-8 -26,-27 -13,-38 12,-11 30,4 39,12 z m 89,117 c 8,9 23,30 8,41 -13,9 -31,-8 -39,-17 -8,-10 -23,-31 -8,-42 13,-9 31,8 39,18 z m 26,-106 c 9,9 42,43 22,56 -9,6 -20,-1 -28,-7 -9,-7 -18,-15 -26,-23 -9,-10 -42,-44 -23,-57 10,-6 21,1 29,7 9,7 18,15 26,24 z m 99,85 c 8,8 25,27 10,37 -12,7 -26,-10 -33,-17 -7,-8 -25,-27 -9,-36 12,-8 25,9 32,16 z m -73,119 c 7,9 23,32 7,42 -14,9 -31,-9 -39,-19 -8,-10 -23,-32 -7,-42 13,-9 31,9 39,19 z m 22,94 c 8,10 24,32 9,43 -14,9 -32,-9 -40,-19 -9,-9 -24,-32 -9,-43 14,-9 32,9 40,19 z m 221,-43 c 6,9 21,30 5,38 -8,3 -15,-2 -20,-8 -3,-4 -7,-9 -10,-13 -6,-9 -21,-30 -5,-37 8,-4 15,2 20,7 3,4 7,9 10,13 z m -556,-482 c 5,4 10,9 13,14 5,7 8,17 0,24 -11,10 -30,-4 -39,-12 -4,-4 -9,-9 -13,-15 -5,-7 -7,-16 0,-23 12,-10 30,4 39,12 z m 94,33 c 4,4 9,8 12,13 6,6 9,16 1,23 -11,9 -27,-5 -36,-12 -4,-4 -8,-8 -12,-13 -5,-7 -8,-16 0,-23 11,-9 27,5 35,12 z m -50,-68 c 8,8 28,25 13,36 -11,8 -27,-6 -35,-13 -8,-7 -27,-25 -12,-36 11,-8 26,7 34,13 z m -2813,-208 c 16,-5 43,-6 51,13 7,20 -17,35 -33,40 -16,5 -43,6 -51,-13 -7,-20 17,-36 33,-40 z m -26,157 c 17,-5 44,-3 50,18 7,21 -15,37 -32,42 -18,6 -45,4 -51,-17 -6,-21 15,-37 33,-43 z m -183,-512 c 12,-3 37,-6 39,12 2,15 -20,23 -32,26 -12,3 -37,6 -39,-12 -2,-16 20,-24 32,-26 z m -303,-29 c 11,-4 33,-11 38,4 3,9 -3,16 -10,20 -5,3 -11,5 -17,7 -10,4 -32,11 -38,-4 -3,-9 4,-16 10,-20 6,-3 11,-6 17,-7 z m -376,146 c 10,-4 32,-13 38,2 3,9 -3,16 -9,20 -5,4 -11,7 -16,9 -11,5 -33,13 -39,-2 -3,-9 3,-15 10,-20 5,-3 10,-6 16,-9 z m 478,85 c 12,-4 36,-8 42,8 1,1 1,3 2,4 1,17 -22,28 -35,31 -13,4 -36,8 -43,-7 -1,-1 -1,-3 -1,-5 -2,-16 22,-27 35,-31 z m -289,156 c 13,-4 34,-7 42,8 1,2 1,4 2,6 1,17 -20,30 -34,34 -13,5 -34,8 -42,-7 -1,-2 -1,-4 -1,-7 -2,-17 20,-29 33,-34 z m -510,30 c 10,-6 27,-13 36,-1 1,2 2,5 2,7 1,13 -16,25 -26,31 -10,5 -27,13 -36,1 -1,-3 -2,-5 -2,-8 -1,-13 16,-25 26,-30 z m 62,-36 c 10,-5 27,-12 36,-1 1,3 2,6 2,8 1,13 -16,25 -26,31 -10,5 -27,12 -36,1 -1,-3 -2,-6 -2,-8 -1,-13 16,-25 26,-31 z m 41,-99 c 9,-5 30,-17 38,-2 4,8 -1,16 -7,21 -5,4 -10,7 -15,10 -10,6 -31,17 -38,2 -4,-8 1,-15 7,-20 4,-4 10,-8 15,-11 z m 1736,203 c 19,-1 44,9 45,31 0,22 -25,32 -43,32 -19,0 -44,-9 -45,-31 -1,-22 25,-32 43,-32 z m -203,80 c 19,-1 47,7 48,30 0,22 -27,32 -45,33 -19,1 -47,-7 -48,-30 0,-23 27,-33 45,-33 z m 355,0 c 19,0 46,10 47,32 0,23 -27,32 -46,31 -19,0 -46,-10 -47,-32 0,-23 27,-31 46,-31 z m 244,103 c 19,2 44,15 44,38 1,24 -25,33 -45,31 -20,-2 -45,-16 -45,-38 -1,-24 25,-33 46,-31 z m 124,95 c 19,2 45,14 46,36 0,24 -28,32 -47,31 -19,-2 -45,-15 -45,-37 -1,-24 27,-32 46,-30 z m 204,-156 c 18,4 41,19 39,39 -2,23 -29,28 -47,24 -18,-4 -41,-19 -39,-40 2,-23 29,-27 47,-23 z m 307,38 c 17,5 40,20 38,40 0,4 -1,7 -2,9 -8,16 -30,17 -45,12 -18,-5 -40,-20 -39,-40 1,-3 1,-6 3,-9 8,-16 30,-16 45,-12 z m 106,-18 c 17,5 37,21 36,40 -2,23 -28,27 -46,21 -16,-5 -36,-21 -35,-40 2,-23 28,-26 45,-21 z m -648,243 c 20,2 45,16 46,38 1,25 -26,34 -47,32 -20,-2 -44,-16 -45,-38 -1,-25 26,-34 46,-32 z m -1061,-108 c 19,-2 47,4 50,28 3,22 -22,36 -42,39 -19,3 -47,-4 -50,-27 -3,-23 22,-37 42,-40 z m -512,-114 c 16,-6 45,-8 52,12 8,21 -16,37 -33,42 -16,6 -44,8 -52,-12 -7,-20 16,-37 33,-42 z m -68,55 c 16,-8 43,-11 52,9 8,20 -10,39 -26,47 -16,8 -43,11 -52,-9 -9,-19 10,-39 26,-47 z m -341,130 c 16,-7 44,-11 52,9 5,9 2,20 -4,28 -5,8 -14,14 -22,18 -16,8 -44,11 -53,-8 -4,-10 -1,-20 5,-28 5,-8 13,-14 22,-19 z m 235,123 c 18,-8 47,-9 55,12 9,22 -11,42 -29,50 -18,8 -46,9 -55,-13 -9,-21 11,-41 29,-49 z m 1245,-9 c 35,3 84,23 89,63 1,5 0,10 -1,15 -4,22 -22,37 -41,45 -22,10 -49,14 -73,11 -35,-3 -84,-22 -89,-63 -1,-5 -1,-10 0,-15 5,-21 23,-36 42,-45 22,-10 48,-13 73,-11 z m -40,190 c 24,3 44,24 40,48 -3,25 -29,39 -52,36 -24,-4 -44,-24 -40,-49 4,-24 29,-38 52,-35 z m 935,43 c 31,17 56,52 48,88 -1,5 -3,9 -5,13 -19,40 -70,42 -104,23 -31,-17 -56,-52 -48,-88 1,-5 2,-9 4,-13 19,-40 70,-42 105,-23 z m 317,-227 c 18,4 40,20 39,41 -2,23 -28,30 -48,25 -18,-4 -40,-20 -38,-41 1,-23 28,-30 47,-25 z m 503,405 c 33,14 68,51 62,89 -1,9 -5,17 -11,23 -19,21 -51,19 -75,8 -32,-13 -67,-50 -61,-88 1,-9 4,-17 11,-24 18,-20 51,-18 74,-8 z m 308,-307 c 22,16 50,51 46,80 -1,7 -4,14 -10,19 -18,15 -45,3 -61,-9 -23,-16 -51,-51 -47,-80 1,-8 5,-14 10,-19 18,-15 45,-3 62,9 z m -194,-50 c 13,9 31,29 24,46 -1,2 -2,4 -4,6 -12,13 -33,5 -45,-3 -14,-9 -32,-29 -24,-46 1,-2 2,-4 3,-6 12,-13 34,-5 46,3 z m 406,24 c 6,6 11,12 14,20 4,8 5,18 -3,24 -13,12 -34,-3 -44,-12 -6,-6 -11,-13 -14,-20 -4,-8 -4,-18 3,-25 13,-11 34,3 44,13 z m 18,340 c 11,10 26,32 17,48 -2,3 -3,4 -5,6 -14,11 -34,-1 -44,-11 -12,-10 -27,-32 -17,-49 1,-2 3,-4 5,-5 13,-11 33,1 44,11 z m 147,-33 c 10,12 22,33 14,48 -1,3 -4,6 -7,8 -13,8 -29,-3 -38,-13 -10,-11 -21,-32 -14,-48 2,-3 4,-5 7,-7 13,-9 29,3 38,12 z m 149,68 c 9,10 20,29 18,43 0,6 -3,10 -8,13 -12,7 -25,-4 -32,-13 -9,-10 -20,-30 -18,-44 0,-5 3,-10 7,-12 13,-8 26,4 33,13 z m 179,-13 c 13,17 33,50 34,72 0,7 -3,14 -9,18 -16,9 -34,-12 -43,-22 -13,-17 -33,-50 -34,-72 0,-7 3,-14 9,-18 16,-9 35,12 43,22 z m 92,69 c 7,8 17,24 17,35 0,6 -2,11 -7,14 -10,7 -21,-3 -28,-10 -7,-9 -17,-24 -17,-35 -1,-6 2,-12 7,-15 10,-6 21,3 28,11 z m -99,109 c 9,10 19,28 17,42 -1,4 -4,9 -8,11 -12,7 -25,-3 -32,-12 -9,-10 -20,-28 -17,-42 1,-5 4,-9 8,-11 12,-8 25,3 32,12 z m 75,179 c 7,11 16,31 11,44 -1,5 -4,9 -9,11 -12,5 -24,-7 -30,-16 -8,-11 -16,-31 -12,-44 2,-5 5,-9 10,-11 12,-5 24,7 30,16 z m 247,132 c 10,17 23,49 22,69 -1,7 -4,14 -11,17 -15,7 -29,-14 -36,-25 -10,-18 -24,-50 -22,-69 0,-8 3,-15 10,-17 16,-7 30,14 37,25 z m 15,-158 c 6,8 13,23 13,32 0,6 -2,11 -7,14 -12,6 -20,-5 -25,-14 -6,-8 -13,-22 -13,-32 0,-5 2,-11 7,-13 12,-6 20,5 25,13 z m 34,399 c 9,19 21,56 17,77 -2,7 -5,14 -13,16 -17,5 -30,-20 -36,-33 -8,-19 -20,-56 -16,-77 2,-7 5,-14 13,-16 17,-5 30,20 35,33 z m 111,-111 c 7,17 16,41 19,58 2,8 1,16 -7,20 -6,2 -12,-1 -16,-5 -1,-2 -2,-4 -3,-6 -3,-5 -6,-11 -8,-16 -7,-17 -16,-41 -19,-59 -1,-7 -1,-16 8,-19 6,-2 11,1 15,5 1,2 2,4 3,6 3,5 6,11 8,16 z m -367,178 c 7,14 13,37 2,50 -3,2 -6,4 -9,5 -15,5 -28,-10 -34,-22 -7,-13 -12,-36 -1,-49 2,-2 5,-4 8,-5 15,-5 28,10 34,21 z m 116,119 c 5,13 11,36 3,48 -2,4 -6,7 -10,8 -15,4 -25,-12 -30,-23 -5,-12 -10,-35 -3,-48 3,-4 6,-6 11,-8 14,-3 24,12 29,23 z m 227,95 c 4,10 8,28 2,39 -2,4 -5,7 -10,8 -13,3 -20,-10 -24,-20 -4,-11 -8,-29 -2,-40 2,-4 6,-7 10,-8 13,-3 21,11 24,21 z m 58,-114 c 4,10 8,27 5,37 -1,5 -5,9 -10,11 -7,1 -13,-3 -17,-8 -3,-4 -5,-8 -6,-12 -4,-10 -8,-27 -5,-37 1,-5 5,-9 10,-10 7,-2 13,2 17,7 3,4 4,8 6,12 z m 87,71 c 5,16 13,43 13,58 0,7 -3,14 -11,16 -9,3 -15,-5 -18,-12 -3,-6 -5,-12 -8,-19 -5,-15 -12,-42 -12,-58 0,-7 2,-13 10,-15 9,-3 15,4 18,11 3,6 6,13 8,19 z m -5719,-608 c 8,-13 25,-28 41,-21 3,1 5,3 7,5 14,14 6,39 -4,54 -8,12 -24,27 -41,20 -2,-1 -5,-2 -7,-4 -14,-14 -6,-40 4,-54 z m -330,-644 c 6,-6 16,-16 26,-9 5,4 6,11 3,17 -3,8 -11,19 -17,25 -6,7 -16,17 -26,10 -5,-4 -6,-11 -3,-17 3,-8 11,-19 17,-26 z m 609,-606 c 8,-5 20,-12 28,-2 4,5 3,12 -1,17 -5,7 -18,16 -26,21 -8,5 -20,12 -28,2 -4,-5 -3,-12 1,-17 5,-7 18,-16 26,-21 z m -831,1006 c 6,-8 15,-19 26,-13 5,3 7,7 7,12 1,10 -7,24 -12,32 -6,8 -16,18 -27,12 -4,-2 -7,-7 -7,-12 -1,-9 7,-23 13,-31 z m -135,216 c 5,-8 14,-19 25,-13 5,2 8,8 7,14 0,9 -7,23 -12,31 -5,8 -14,19 -25,14 -6,-3 -8,-9 -7,-15 0,-9 7,-23 12,-31 z m 1901,-302 c 18,-13 47,-17 61,4 14,20 2,47 -16,60 -18,14 -47,17 -61,-4 -14,-20 -2,-47 16,-60 z m -185,331 c 19,-15 48,-17 63,3 15,21 4,48 -14,63 -19,14 -48,17 -63,-4 -15,-21 -4,-48 14,-62 z m -118,116 c 16,-18 44,-27 64,-9 18,17 13,47 -2,65 -16,18 -44,27 -64,9 -19,-17 -14,-47 2,-65 z m -330,185 c 15,-17 42,-25 60,-8 18,16 14,44 -1,61 -15,18 -42,26 -61,9 -18,-16 -13,-45 2,-62 z m 622,70 c 16,-20 45,-28 66,-10 20,17 18,48 3,68 -16,20 -45,28 -66,10 -20,-17 -18,-48 -3,-68 z m 83,-81 c 22,-14 52,-11 65,12 13,23 1,52 -20,65 -22,13 -52,11 -65,-13 -13,-23 -1,-51 20,-64 z m 464,-411 c 45,-6 94,19 98,67 1,7 0,14 -1,20 -8,39 -44,65 -82,70 -45,6 -94,-19 -98,-67 0,-7 0,-14 1,-20 8,-39 44,-65 82,-70 z m -956,941 c 16,-42 60,-73 104,-55 44,18 57,72 42,114 -15,42 -60,73 -104,55 -44,-18 -57,-72 -42,-114 z m -868,96 c 6,-20 25,-41 47,-29 19,11 21,39 15,58 -6,20 -25,41 -47,28 -19,-10 -21,-39 -15,-57 z m -221,-79 c 6,-18 25,-37 45,-26 17,11 17,37 11,54 -6,18 -25,37 -45,26 -17,-11 -18,-37 -11,-54 z m -158,27 c 5,-14 17,-29 33,-27 3,1 6,2 9,4 15,11 14,35 9,51 -5,13 -17,28 -33,26 -3,0 -7,-2 -10,-4 -15,-10 -14,-35 -8,-50 z m -172,128 c 3,-12 11,-30 27,-29 4,0 8,2 11,5 11,12 10,36 7,50 -3,13 -11,30 -26,29 -5,0 -9,-2 -12,-5 -11,-11 -10,-36 -7,-50 z m 101,309 c 2,-14 10,-34 26,-35 4,0 7,0 10,2 17,8 19,34 17,50 -2,14 -9,34 -26,35 -3,0 -7,-1 -10,-2 -16,-8 -19,-34 -17,-50 z m -406,-252 c 3,-13 9,-45 27,-44 6,1 11,5 13,10 9,17 5,55 1,73 -2,13 -8,45 -27,43 -6,0 -10,-4 -13,-10 -8,-16 -4,-54 -1,-72 z m 0,174 c 2,-10 5,-28 19,-27 5,0 10,3 12,7 5,10 4,30 3,41 -1,10 -5,27 -19,27 -5,0 -9,-3 -12,-8 -5,-10 -4,-29 -3,-40 z m -91,-100 c 1,-10 3,-27 17,-26 6,1 10,5 12,10 2,9 1,25 0,34 -2,9 -3,26 -17,25 -6,0 -10,-5 -12,-10 -2,-8 -1,-24 0,-33 z m -3,-100 c 1,-10 4,-26 18,-25 6,1 10,5 11,11 2,8 -1,24 -2,33 -2,10 -5,26 -18,25 -6,-1 -10,-6 -11,-11 -2,-9 0,-25 2,-33 z m 581,-867 c 6,-10 18,-24 31,-19 5,1 8,5 10,9 6,14 -1,36 -9,48 -6,11 -18,25 -31,19 -5,-1 -8,-5 -10,-9 -6,-14 1,-36 9,-48 z m -162,290 c 5,-11 15,-26 29,-22 5,1 9,4 11,8 7,13 2,35 -4,48 -5,10 -15,25 -29,21 -5,-1 -8,-4 -11,-8 -7,-13 -2,-35 4,-47 z m 414,-31 c 6,-16 21,-40 42,-33 20,7 18,35 13,51 -6,16 -22,40 -42,33 -20,-7 -18,-35 -13,-51 z m 54,-64 c 7,-16 25,-35 44,-30 21,6 21,32 14,49 -7,16 -24,35 -44,30 -21,-6 -21,-33 -14,-49 z m 254,-107 c 8,-17 27,-39 48,-33 23,6 22,36 15,53 -8,18 -27,40 -48,34 -23,-7 -22,-36 -15,-54 z m -923,405 c 4,-10 12,-23 24,-20 5,1 9,4 11,9 5,11 0,29 -4,40 -4,9 -12,23 -24,20 -5,-1 -9,-5 -11,-9 -5,-11 -1,-29 4,-40 z m -146,-44 c 2,-5 4,-12 7,-17 3,-7 9,-14 18,-12 7,2 10,9 10,16 1,15 -6,40 -10,55 -2,6 -4,12 -7,17 -3,7 -9,14 -17,12 -8,-2 -11,-8 -11,-15 -1,-15 6,-41 10,-56 z m 116,-257 c 1,-3 3,-7 6,-11 4,-5 10,-9 17,-7 5,2 9,7 10,12 1,10 -4,26 -8,36 -2,4 -3,8 -6,11 -4,5 -10,9 -17,7 -5,-2 -9,-7 -10,-12 -1,-10 4,-26 8,-36 z m 2857,-492 c 25,2 48,22 44,49 -4,26 -31,41 -56,39 -25,-1 -48,-21 -44,-48 4,-26 31,-41 56,-40 z m 749,5 c 24,9 40,34 27,59 -12,23 -42,28 -65,20 -23,-10 -39,-35 -27,-59 12,-23 42,-29 65,-20 z m 274,27 c 41,19 69,65 46,108 -22,42 -78,49 -118,31 -41,-18 -69,-64 -46,-107 22,-42 77,-50 118,-32 z m 701,117 c 18,17 22,45 2,62 -19,16 -48,10 -65,-7 -17,-17 -21,-45 -1,-62 19,-15 48,-9 64,7 z m 518,-41 c 25,26 45,74 23,108 -4,7 -10,13 -18,17 -27,13 -58,-2 -77,-22 -26,-25 -45,-74 -24,-107 5,-8 11,-13 18,-17 27,-14 58,2 78,21 z m 405,-177 c 12,12 24,35 18,52 -1,5 -5,10 -10,13 -12,7 -27,-1 -36,-11 -12,-12 -24,-34 -19,-51 2,-6 5,-10 10,-13 13,-7 28,1 37,10 z m -485,511 c 16,16 24,43 8,62 -16,19 -44,13 -61,-2 -16,-16 -24,-44 -8,-62 16,-19 44,-14 61,2 z m 89,231 c 10,20 10,49 -10,62 -22,15 -46,0 -57,-20 -11,-20 -10,-49 10,-63 21,-14 46,1 57,21 z m 486,-128 c 8,18 11,45 -6,58 -3,2 -6,4 -9,5 -18,4 -34,-12 -41,-27 -8,-17 -11,-45 6,-58 3,-2 6,-3 9,-4 18,-4 34,12 41,26 z m 140,-61 c 10,15 16,40 2,54 -17,17 -39,2 -49,-14 -10,-15 -16,-41 -2,-55 17,-16 39,-1 49,15 z m -1281,-123 c 14,21 14,51 -7,66 -21,16 -50,6 -64,-14 -14,-20 -14,-50 7,-66 21,-16 50,-6 64,14 z m -161,64 c 26,1 50,21 51,47 2,28 -21,47 -48,46 -25,0 -50,-20 -51,-46 -2,-28 21,-47 48,-47 z m -1203,102 c 27,3 49,26 45,54 -4,27 -31,45 -58,42 -27,-3 -49,-26 -45,-54 4,-27 31,-45 58,-42 z m 274,-1 c 27,3 50,26 46,54 -4,28 -32,45 -59,43 -27,-3 -49,-26 -45,-55 4,-27 31,-45 58,-42 z m 493,251 c 23,14 34,45 18,68 -16,24 -48,27 -71,13 -24,-14 -34,-45 -18,-68 16,-24 48,-27 71,-13 z m -464,237 c 9,-50 55,-86 105,-75 51,11 80,62 70,112 -9,49 -55,85 -105,74 -50,-11 -79,-62 -70,-111 z m -834,-200 c 2,-28 27,-48 54,-47 28,1 51,24 49,52 -2,28 -27,49 -55,47 -28,-1 -50,-24 -48,-52 z m -190,192 c 2,-28 24,-52 53,-51 28,2 47,28 46,56 -2,27 -24,52 -53,50 -28,-1 -47,-28 -46,-55 z m -766,239 c 3,-25 24,-48 50,-44 27,3 41,30 38,55 -3,25 -24,48 -51,45 -26,-4 -41,-31 -37,-56 z m -1779,286 c 1,-10 3,-26 16,-26 6,0 10,3 12,8 4,9 4,26 3,35 -1,9 -3,26 -16,26 -6,0 -10,-4 -12,-9 -4,-8 -3,-25 -3,-34 z m -1,160 c 1,-9 3,-26 16,-26 6,0 10,4 12,9 4,8 4,25 3,34 -1,10 -3,26 -16,26 -6,0 -10,-3 -12,-8 -4,-9 -3,-26 -3,-35 z m 85,152 c 1,-9 4,-20 16,-21 8,0 13,6 15,13 4,11 5,29 3,40 -1,9 -4,21 -16,22 -8,0 -13,-6 -15,-13 -4,-11 -5,-29 -3,-41 z m 158,-244 c 2,-18 7,-62 32,-63 5,-1 11,2 15,5 20,18 22,72 20,97 -2,18 -7,62 -32,63 -5,0 -11,-2 -15,-6 -20,-17 -22,-71 -20,-96 z m -50,-15 c 1,-12 5,-30 20,-31 4,0 8,1 11,3 11,9 13,31 12,44 -1,12 -6,31 -21,32 -4,0 -7,-1 -10,-4 -12,-8 -13,-31 -12,-44 z m 357,52 c 2,-17 14,-41 36,-36 19,6 24,31 23,48 -2,18 -14,42 -36,36 -19,-5 -25,-31 -23,-48 z m -60,141 c 0,-15 6,-36 23,-38 3,-1 6,-1 9,0 17,6 22,32 22,48 -1,15 -7,36 -24,38 -3,1 -6,1 -8,0 -18,-6 -23,-32 -22,-48 z m 170,-138 c 1,-19 14,-43 36,-38 21,4 29,29 27,48 -1,19 -14,42 -36,37 -21,-4 -28,-29 -27,-47 z m 80,152 c 1,-19 11,-47 35,-43 21,3 29,30 29,49 0,19 -10,47 -34,43 -21,-4 -30,-31 -30,-49 z m -660,204 c 1,-12 3,-33 18,-35 10,-1 17,8 20,16 9,21 12,56 11,79 0,11 -2,33 -18,34 -10,1 -16,-8 -20,-16 -8,-21 -12,-56 -11,-78 z m -89,-39 c -1,-10 -2,-26 12,-28 5,-1 10,2 13,6 5,8 7,25 8,34 1,9 2,26 -12,28 -5,1 -10,-2 -13,-7 -5,-7 -7,-24 -8,-33 z m 440,35 c -1,-14 3,-35 19,-38 3,-1 6,-1 9,0 17,3 24,28 25,43 1,14 -3,35 -19,39 -3,0 -6,0 -8,0 -18,-4 -25,-28 -26,-44 z m -105,48 c -1,-13 0,-36 17,-39 2,0 5,0 7,1 15,4 21,29 21,43 1,13 0,36 -16,39 -3,0 -5,0 -8,-1 -15,-4 -20,-29 -21,-43 z m 61,46 c -1,-14 1,-36 17,-39 3,-1 6,-1 8,0 17,4 23,29 24,43 1,13 -1,35 -17,39 -3,1 -5,1 -8,0 -16,-4 -23,-29 -24,-43 z m -168,183 c -3,-18 -5,-54 17,-61 3,-1 6,-1 9,0 24,4 35,45 39,64 2,18 4,55 -18,61 -3,1 -6,1 -9,1 -23,-5 -35,-46 -38,-65 z m 307,46 c -3,-14 -2,-35 13,-40 3,-1 6,-2 9,-2 17,2 28,25 31,40 2,14 1,34 -14,40 -3,1 -6,2 -8,1 -18,-1 -28,-24 -31,-39 z m 317,-278 c -1,-20 10,-45 34,-43 22,2 34,27 35,46 1,21 -10,46 -34,43 -22,-2 -34,-26 -35,-46 z m 94,124 c -1,-20 10,-46 34,-44 22,2 33,28 34,47 1,20 -10,47 -34,44 -21,-2 -33,-27 -34,-47 z m 108,-29 c -1,-21 10,-49 35,-46 22,2 34,29 35,49 1,21 -10,48 -34,46 -23,-3 -35,-29 -36,-49 z m 80,-532 c 4,-33 21,-77 58,-82 7,-1 14,0 21,3 21,7 34,26 42,45 9,23 12,49 9,74 -3,32 -21,76 -57,81 -8,1 -15,0 -22,-2 -20,-8 -34,-27 -41,-46 -10,-23 -12,-49 -10,-73 z m -383,-164 c 3,-18 16,-44 38,-38 21,6 25,34 23,52 -3,18 -16,44 -38,38 -21,-6 -25,-34 -23,-52 z m 571,142 c 3,-24 23,-44 48,-40 25,5 38,31 35,54 -4,23 -23,44 -48,39 -25,-4 -38,-30 -35,-53 z m 467,412 c -2,-25 12,-53 39,-54 27,-1 45,24 47,49 3,25 -12,52 -39,53 -27,2 -45,-24 -47,-48 z m -1715,273 c -2,-10 -4,-27 10,-29 5,-2 10,1 13,6 6,7 9,24 10,34 1,9 4,26 -10,29 -5,1 -10,-1 -14,-6 -5,-7 -8,-25 -9,-34 z m 28,95 c -2,-10 -5,-27 8,-30 6,-2 11,1 14,5 6,7 10,24 11,33 2,10 5,27 -8,30 -6,2 -11,-1 -14,-5 -6,-7 -10,-24 -11,-33 z m 57,127 c -2,-10 -5,-27 8,-31 5,-2 11,0 14,5 7,7 12,25 14,35 2,10 5,28 -8,31 -5,2 -11,0 -14,-4 -7,-8 -12,-26 -14,-36 z m 107,382 c -4,-12 -15,-41 1,-48 6,-3 12,-1 17,3 12,11 26,44 32,60 4,11 15,40 -1,47 -6,3 -12,1 -17,-3 -12,-11 -26,-43 -32,-59 z m 76,17 c -4,-13 -12,-43 5,-51 6,-2 12,0 17,3 16,12 31,48 37,67 3,13 12,43 -5,51 -6,2 -13,0 -18,-3 -16,-12 -30,-48 -36,-67 z m 73,-251 c -3,-12 -7,-36 9,-41 2,-1 4,-1 5,-1 16,0 25,23 28,36 3,12 7,36 -9,41 -2,1 -3,1 -5,1 -16,0 -25,-24 -28,-36 z m 164,-29 c -4,-14 -4,-36 12,-42 3,-1 5,-2 8,-2 18,0 30,24 33,39 4,14 4,36 -12,43 -3,1 -5,1 -8,1 -18,0 -30,-23 -33,-39 z m 52,124 c -4,-14 -7,-35 8,-43 2,-1 4,-2 7,-2 18,-2 32,19 37,33 5,13 7,35 -7,43 -3,1 -5,2 -8,2 -18,2 -31,-19 -37,-33 z m 184,56 c -6,-14 -8,-35 7,-44 2,-2 5,-3 8,-3 19,-4 35,16 41,32 6,14 8,34 -7,44 -2,1 -5,2 -8,3 -19,4 -35,-16 -41,-32 z m 17,-108 c -5,-17 -6,-46 16,-50 20,-4 35,20 40,36 5,17 6,46 -16,50 -20,3 -35,-20 -40,-36 z m -42,-312 c -2,-19 5,-45 29,-44 20,2 33,26 35,44 3,19 -5,45 -28,43 -21,-1 -33,-25 -36,-43 z m 2757,-958 c -44,-25 -62,-81 -35,-126 27,-44 86,-55 130,-30 44,25 63,80 35,125 -27,44 -86,55 -130,31 z m -774,552 c -44,-25 -63,-80 -36,-125 27,-44 86,-55 130,-30 44,24 62,80 35,124 -27,44 -85,55 -129,31 z m 296,-67 c -43,-29 -56,-89 -31,-133 25,-45 82,-62 125,-33 44,28 56,88 31,133 -25,45 -81,61 -125,33 z m -754,-411 c 1,-27 23,-52 51,-50 29,1 47,28 46,55 -2,27 -23,52 -52,50 -28,-1 -47,-28 -45,-55 z m 1,274 c 2,-27 23,-51 50,-50 28,1 46,28 45,55 -2,26 -22,51 -50,49 -28,-1 -46,-28 -45,-54 z m -502,508 c -11,-43 6,-96 53,-107 47,-11 87,29 98,71 11,44 -6,97 -53,108 -47,11 -87,-29 -98,-72 z m -449,264 c -18,-34 -17,-86 23,-105 4,-2 8,-3 13,-4 36,-8 70,18 86,49 18,35 17,86 -22,105 -5,2 -9,4 -14,5 -36,7 -70,-19 -86,-50 z m -849,826 c -5,-9 -17,-28 -8,-39 7,-8 17,-3 24,4 4,4 8,10 11,15 6,9 18,28 9,38 -8,9 -18,4 -24,-3 -4,-4 -8,-10 -12,-15 z m -110,-57 c -5,-8 -14,-24 -6,-33 1,-1 3,-2 4,-2 8,-4 14,1 19,7 3,3 5,8 8,12 4,9 13,24 5,33 -1,1 -2,2 -4,3 -8,4 -14,-1 -19,-7 -2,-4 -5,-9 -7,-13 z m 200,143 c -6,-9 -18,-28 -9,-38 8,-9 18,-4 24,3 4,4 8,10 12,15 5,9 18,29 8,39 -7,8 -17,3 -23,-4 -5,-4 -9,-10 -12,-15 z m -277,-291 c -4,-9 -13,-24 -5,-33 1,-1 2,-2 4,-3 8,-4 14,1 19,7 3,4 5,8 7,13 5,8 14,24 6,32 -1,2 -3,3 -4,3 -8,4 -14,-1 -19,-7 -3,-4 -5,-8 -8,-12 z m 290,70 c -5,-11 -13,-32 0,-40 2,-1 4,-2 6,-2 14,-2 27,17 32,28 6,11 14,32 0,40 -1,2 -3,2 -5,3 -15,2 -27,-18 -33,-29 z m 47,172 c -9,-14 -28,-49 -10,-64 2,-1 4,-2 6,-3 22,-6 48,28 58,44 9,14 29,50 11,64 -2,1 -4,2 -6,3 -22,7 -49,-28 -59,-44 z m 65,246 c -6,-9 -16,-26 -5,-35 2,-2 3,-3 5,-3 8,-2 14,2 19,7 5,4 9,9 13,14 6,9 16,26 5,35 -2,2 -4,3 -6,3 -7,2 -13,-2 -18,-7 -5,-4 -9,-9 -13,-14 z m 79,145 c -7,-8 -20,-25 -9,-35 2,-2 3,-3 5,-3 13,-4 27,11 34,20 7,8 19,25 8,35 -1,2 -3,3 -5,3 -12,4 -27,-11 -33,-20 z m 83,-76 c -7,-9 -20,-30 -8,-40 2,-2 4,-3 6,-3 14,-5 30,14 37,24 8,10 21,30 8,41 -1,1 -3,2 -5,3 -14,4 -30,-15 -38,-25 z m 82,18 c -8,-10 -22,-29 -11,-41 1,-1 3,-2 5,-3 14,-6 32,11 40,21 8,9 22,29 11,40 -2,2 -3,3 -5,4 -14,6 -32,-12 -40,-21 z m 99,51 c -8,-10 -23,-28 -12,-41 1,-1 3,-2 4,-3 14,-8 34,7 43,17 9,9 23,28 13,40 -2,2 -3,3 -5,4 -14,8 -33,-8 -43,-17 z m 133,90 c -9,-10 -22,-29 -11,-41 1,-2 3,-3 5,-4 14,-8 33,8 42,18 9,10 22,29 11,41 -1,2 -3,3 -4,4 -15,8 -34,-8 -43,-18 z m -23,-404 c -8,-12 -15,-33 -2,-45 2,-1 4,-3 7,-4 18,-6 37,12 46,26 8,12 15,33 2,45 -2,1 -4,3 -7,4 -18,6 -37,-12 -46,-26 z m 60,205 c -15,-17 -34,-50 -17,-71 2,-3 5,-6 8,-8 27,-14 66,13 83,33 15,17 34,50 17,71 -3,3 -6,6 -9,8 -27,14 -65,-13 -82,-33 z m -218,289 c -8,-8 -21,-25 -11,-36 2,-2 3,-3 5,-4 13,-4 28,11 36,19 7,8 21,25 11,36 -2,1 -4,3 -6,3 -12,5 -27,-10 -35,-18 z m -182,-80 c -7,-7 -22,-23 -11,-33 3,-2 6,-3 9,-3 9,-1 21,13 27,20 7,8 21,23 10,33 -2,2 -5,4 -8,4 -10,0 -22,-14 -27,-21 z m -68,-48 c -7,-8 -21,-23 -11,-33 3,-2 6,-4 9,-4 9,0 21,14 27,21 7,7 21,23 11,33 -3,2 -6,3 -9,3 -9,0 -21,-14 -27,-20 z m 366,215 c -9,-8 -25,-24 -15,-36 2,-2 3,-3 5,-4 13,-6 30,9 38,17 9,8 25,25 15,37 -2,1 -3,3 -5,3 -13,6 -30,-9 -38,-17 z m -110,24 c -10,-9 -36,-34 -23,-49 1,-2 3,-3 5,-4 16,-6 43,19 54,29 9,9 35,34 23,49 -2,2 -4,3 -6,4 -15,6 -43,-19 -53,-29 z m 207,27 c -9,-8 -25,-25 -15,-37 1,-2 3,-3 5,-4 12,-5 31,10 39,18 9,8 25,25 15,37 -1,2 -3,3 -5,4 -13,6 -31,-10 -39,-18 z m 94,24 c -5,-4 -10,-9 -14,-15 -4,-7 -7,-15 -2,-22 2,-2 3,-3 5,-4 13,-7 32,7 41,15 5,5 10,10 14,16 4,6 7,15 1,22 -1,1 -2,3 -4,4 -13,7 -32,-8 -41,-16 z m -213,51 c -7,-7 -23,-21 -13,-32 2,-2 5,-4 8,-4 9,-1 23,11 29,17 7,7 23,21 14,32 -2,2 -5,4 -9,4 -9,1 -22,-11 -29,-17 z m 20,-1317 c -7,-18 -7,-48 16,-54 22,-5 41,17 48,35 7,18 7,48 -17,54 -21,5 -40,-17 -47,-35 z m 415,519 c -18,-25 -30,-65 -8,-90 3,-3 6,-6 9,-8 2,-2 4,-3 7,-4 32,-15 69,9 88,35 18,24 29,64 7,90 -2,3 -5,6 -8,8 -3,2 -5,3 -7,4 -33,14 -70,-10 -88,-35 z m 358,145 c -27,-17 -53,-53 -41,-86 2,-4 4,-8 6,-11 2,-2 3,-4 5,-6 27,-27 73,-16 101,3 26,17 52,53 40,86 -2,4 -4,8 -6,11 -2,2 -3,5 -5,6 -27,27 -73,16 -100,-3 z m 17,-543 c -12,-20 -12,-49 10,-62 22,-12 48,2 60,21 12,20 12,49 -10,62 -22,13 -48,-1 -60,-21 z m 216,-119 c -20,-16 -26,-45 -8,-65 17,-19 47,-17 66,-1 19,16 25,45 8,64 -18,20 -47,18 -66,2 z m 71,-145 c -8,-24 3,-53 29,-60 25,-7 50,11 58,35 8,25 -3,53 -29,60 -25,7 -50,-11 -58,-35 z m 340,-476 c -2,-27 17,-52 45,-53 28,0 49,24 51,51 1,27 -18,52 -46,52 -28,1 -49,-23 -50,-50 z m 654,134 c 27,1 52,21 52,49 0,28 -26,48 -53,47 -27,0 -52,-21 -51,-49 0,-28 25,-48 52,-47 z m 410,-77 c -43,-28 -55,-86 -30,-129 24,-44 78,-60 121,-33 42,28 54,86 30,130 -24,43 -79,60 -121,32 z m 277,-415 c 2,-16 8,-31 18,-44 20,-27 53,-41 86,-38 50,4 89,47 84,98 -2,16 -8,30 -18,43 -19,27 -52,41 -85,38 -50,-4 -90,-46 -85,-97 z m 253,-62 c 2,-27 25,-50 54,-48 28,3 47,30 44,57 -3,28 -26,51 -54,48 -29,-2 -47,-29 -44,-57 z m 0,-391 c 3,-27 25,-49 53,-47 28,3 46,29 44,56 -3,27 -26,50 -54,47 -28,-2 -46,-29 -43,-56 z m 603,26 c -39,-28 -50,-85 -29,-127 21,-42 71,-60 112,-31 39,27 50,84 29,126 -21,43 -71,60 -112,32 z m -15,495 c -32,-35 -31,-93 -1,-129 30,-38 83,-43 116,-6 32,35 31,93 1,130 -30,37 -83,42 -116,5 z m -1158,517 c -25,-11 -38,-40 -26,-65 13,-25 43,-35 68,-24 26,10 38,39 26,64 -12,25 -43,35 -68,25 z m 1765,-1135 c 4,23 -6,51 -31,57 -25,6 -44,-17 -48,-41 -4,-22 6,-51 31,-56 25,-6 44,17 48,40 z m 143,256 c 4,23 -9,48 -33,53 -25,5 -45,-15 -48,-38 -3,-23 9,-49 34,-54 24,-5 44,15 47,39 z m -142,322 c 2,24 -9,52 -34,57 -26,6 -45,-17 -47,-41 -3,-24 9,-52 34,-57 26,-6 45,17 47,41 z m 253,-809 c 5,21 -1,50 -24,57 -24,7 -42,-16 -47,-38 -5,-20 1,-49 24,-56 24,-7 43,16 47,37 z m 398,-169 c 5,17 3,45 -17,53 -21,9 -37,-16 -41,-33 -5,-18 -3,-46 17,-54 21,-8 37,16 41,34 z m 87,61 c 6,17 6,44 -12,53 -20,11 -38,-10 -44,-27 -6,-17 -6,-43 12,-53 20,-10 38,10 44,27 z m -181,582 c 2,32 -10,80 -46,89 -2,0 -4,1 -6,1 -3,0 -7,0 -10,0 -35,-6 -51,-48 -53,-79 -2,-32 10,-80 47,-89 1,0 3,-1 5,-1 3,0 7,0 10,0 35,6 51,48 53,79 z m 547,12 c 0,16 -2,33 -8,48 -5,12 -15,25 -29,25 -31,0 -38,-52 -38,-74 0,-16 2,-33 8,-48 5,-12 15,-25 30,-25 30,0 37,52 37,74 z m 96,-365 c 2,13 3,39 -15,42 -18,4 -25,-22 -27,-36 -1,-13 -2,-39 16,-42 18,-3 25,23 26,36 z m -303,-201 c 4,15 5,41 -11,50 -3,2 -6,2 -9,3 -16,2 -28,-15 -32,-29 -5,-16 -5,-41 11,-50 2,-2 5,-3 8,-3 17,-2 28,15 33,29 z m 58,-36 c 4,14 6,40 -8,50 -2,2 -5,3 -8,4 -17,2 -26,-17 -30,-30 -4,-15 -6,-41 7,-51 3,-2 6,-3 9,-4 17,-2 26,17 30,31 z m 303,-28 c 3,10 6,31 -1,41 -2,3 -5,5 -9,6 -14,2 -21,-16 -23,-27 -3,-11 -6,-31 1,-41 2,-3 5,-5 9,-6 14,-2 21,16 23,27 z m 103,-100 c 3,10 7,26 5,35 0,6 -4,11 -10,12 -7,2 -13,-3 -16,-9 -2,-4 -3,-8 -5,-11 -3,-10 -6,-26 -5,-35 1,-6 5,-11 11,-12 7,-2 13,3 16,9 2,4 3,8 4,11 z m 29,74 c 3,9 6,25 5,34 -1,6 -4,11 -10,13 -8,1 -13,-4 -17,-10 -1,-3 -3,-7 -4,-11 -3,-9 -6,-25 -5,-34 1,-6 4,-11 10,-13 8,-1 13,4 17,9 1,4 3,8 4,12 z m -90,490 c 1,12 1,38 -16,40 -18,2 -22,-25 -23,-37 -1,-12 0,-38 17,-40 17,-2 21,24 22,37 z m -36,183 c 0,13 -4,37 -22,37 -17,0 -21,-24 -21,-37 0,-14 4,-38 22,-38 17,1 21,25 21,38 z m 150,-134 c 1,15 3,64 -20,64 -22,-1 -24,-49 -25,-63 -1,-15 -3,-65 21,-64 21,1 24,48 24,63 z m 56,-283 c 1,7 2,13 2,20 1,7 1,16 -7,20 -8,4 -15,0 -18,-7 -1,-2 -2,-5 -2,-7 -2,-6 -3,-13 -5,-19 -1,-7 -2,-14 -2,-20 0,-8 -1,-17 8,-21 7,-3 14,1 17,8 1,2 2,4 3,7 1,6 3,13 4,19 z m 30,135 c 1,11 1,21 1,32 0,7 1,19 -7,24 -9,5 -17,-2 -19,-11 -1,-3 -1,-6 -2,-9 -1,-10 -2,-21 -3,-31 0,-10 -1,-21 -1,-31 0,-8 -1,-19 7,-24 9,-5 17,2 19,10 1,4 2,7 2,10 1,10 2,20 3,30 z m -19,195 c 0,11 0,33 -15,35 -17,3 -19,-22 -19,-33 0,-11 1,-33 15,-35 18,-3 19,22 19,33 z m 31,-39 c 1,10 1,20 0,29 0,8 0,20 -8,23 -9,4 -16,-2 -18,-11 -1,-3 -1,-6 -2,-9 -1,-9 -1,-19 -2,-28 0,-10 0,-20 0,-29 0,-8 0,-20 9,-23 9,-4 16,2 18,11 1,3 1,6 1,9 1,9 2,19 2,28 z m -590,-1773 c 6,9 19,30 3,37 -8,3 -15,-2 -20,-7 -3,-5 -7,-9 -10,-14 -6,-9 -18,-30 -2,-37 8,-3 14,2 19,7 4,5 7,9 10,14 z m 90,162 c 5,9 18,30 2,37 -8,3 -15,-2 -20,-8 -3,-4 -7,-9 -10,-13 -5,-10 -18,-30 -2,-37 8,-3 15,2 20,7 3,5 7,9 10,14 z m 44,64 c 6,9 18,29 2,36 -8,4 -14,-1 -19,-7 -4,-4 -7,-9 -10,-14 -6,-9 -19,-30 -3,-36 8,-4 15,1 20,7 3,4 7,9 10,14 z m -3296,3159 c -42,-22 -62,-72 -35,-114 27,-40 84,-49 126,-28 42,22 62,73 35,114 -27,41 -84,49 -126,28 z m 598,0 c -42,22 -99,13 -126,-28 -28,-41 -8,-91 35,-113 41,-22 99,-13 126,27 27,42 7,92 -35,114 z m -1468,344 c -18,-13 -28,-40 -15,-60 14,-21 42,-19 60,-5 18,14 28,40 15,61 -14,20 -42,18 -60,4 z m 233,88 c -22,-7 -43,-29 -35,-53 8,-25 37,-30 59,-23 22,7 42,29 34,53 -7,24 -37,30 -58,23 z m -951,519 c -10,-8 -23,-25 -14,-39 1,-2 3,-4 5,-5 14,-9 35,3 46,12 10,9 22,26 14,40 -2,2 -4,3 -6,5 -14,9 -35,-3 -45,-13 z m 29,-148 c -10,-10 -20,-29 -10,-42 2,-2 4,-4 6,-6 16,-8 38,6 49,17 9,11 20,29 10,43 -2,2 -4,4 -7,5 -16,9 -37,-5 -48,-17 z m 178,25 c -11,-9 -25,-27 -17,-42 1,-2 3,-5 5,-6 16,-12 40,0 53,10 12,9 26,26 17,42 -1,2 -3,5 -5,6 -15,12 -40,0 -53,-10 z m -138,277 c -10,-9 -24,-24 -16,-38 2,-2 3,-4 5,-5 13,-10 34,2 45,10 10,8 23,24 15,38 -1,2 -3,4 -5,5 -13,9 -33,-2 -44,-10 z m -4,182.00003 c -13,-8 -45,-32 -34,-51 1,-2 4,-5 7,-6 18,-10 55,12 69,22 13,9 44,32 34,51 -2,3 -4,5 -7,6 -18,10 -55,-12 -69,-22 z m -295,-30 c -8,-6 -25,-20 -17,-32 2,-2 3,-3 5,-4 11,-5 27,8 35,14 8,6 25,20 17,32 -2,2 -3,3 -5,4 -11,5 -27,-8 -35,-14 z m 467,19 c -10,-7 -27,-23 -19,-36 1,-2 2,-3 3,-4 12,-11 33,1 44,9 10,7 27,22 18,36 0,2 -1,3 -3,4 -12,10 -33,-1 -43,-9 z m 180,75 c -11,-6 -28,-19 -22,-34 1,-2 2,-4 3,-5 11,-12 34,-4 45,3 12,6 28,19 22,34 0,2 -1,4 -3,5 -11,12 -33,4 -45,-3 z m -287,25 c -5,-4 -11,-8 -16,-13 -6,-6 -10,-16 -3,-23 11,-11 31,0 41,6 5,4 11,8 15,13 6,6 10,16 3,23 -10,11 -30,0 -40,-6 z m 429,226 c -14,-7 -56,-29 -42,-50 12,-17 53,0 67,7 14,6 56,29 42,49 -12,18 -53,1 -67,-6 z m -164,12 c -6,-2 -11,-5 -16,-9 -7,-4 -14,-11 -10,-20 7,-15 29,-5 39,0 6,3 11,6 16,9 7,5 13,12 9,20 -6,15 -28,5 -38,0 z m 297,149 c -10,-4 -20,-8 -30,-13 -4,-2 -7,-3 -10,-5 -6,-4 -10,-10 -8,-17 5,-13 19,-9 28,-7 11,3 22,6 32,10 10,4 21,8 30,13 4,2 7,4 10,6 6,4 10,9 8,17 -4,12 -19,8 -28,6 -11,-3 -21,-6 -32,-10 z m 110,-111 c -12,-4 -25,-10 -36,-17 -9,-6 -21,-17 -14,-30 11,-19 56,-6 71,0 12,4 26,10 37,17 9,6 20,17 13,29 -10,20 -55,6 -71,1 z m 47,-267 c -11,-6 -24,-19 -20,-33 2,-4 4,-7 7,-9 13,-9 35,-3 48,4 11,7 24,19 19,33 -1,4 -4,7 -7,9 -13,10 -35,3 -47,-4 z m 124,120 c -12,-5 -31,-16 -28,-32 1,-2 2,-5 4,-7 10,-13 35,-8 48,-3 13,4 31,15 28,31 -1,3 -2,5 -4,7 -10,13 -35,8 -48,4 z m -222,-453.00003 c -12,-8 -23,-24 -17,-39 1,-4 4,-7 7,-10 15,-12 40,-5 54,5 12,9 24,24 18,40 -1,4 -4,7 -7,10 -15,12 -40,4 -55,-6 z m 60,-142 c -13,-9 -25,-24 -19,-40 1,-4 4,-8 7,-11 16,-13 42,-7 58,4 12,8 24,23 19,39 -2,5 -4,8 -8,11 -15,13 -42,7 -57,-3 z m 142,878.00003 c -4,-2 -9,-4 -14,-7 -6,-4 -11,-10 -8,-18 1,-3 3,-5 6,-7 9,-6 26,-1 36,3 4,2 9,4 13,7 7,4 11,10 9,18 -1,3 -3,5 -6,7 -9,6 -26,1 -36,-3 z m 113,-57 c -10,-3 -27,-10 -24,-24 0,-4 2,-6 4,-9 9,-9 29,-6 40,-2 11,3 27,10 25,24 0,3 -2,6 -4,9 -10,9 -29,6 -41,2 z m -35,145 c -8,-2 -16,-5 -24,-8 -3,-1 -6,-2 -8,-3 -6,-3 -11,-9 -9,-16 1,-5 5,-8 9,-9 10,-3 42,6 51,9 9,3 17,5 25,8 3,1 6,2 8,4 6,3 10,8 9,15 -2,5 -5,8 -9,9 -10,3 -42,-6 -52,-9 z m 90,-32 c -5,-1 -10,-3 -15,-6 -6,-3 -11,-9 -10,-17 1,-3 3,-6 5,-8 9,-6 27,-2 37,0 4,2 10,4 14,6 6,4 12,9 10,17 -1,4 -2,6 -5,8 -9,7 -27,3 -36,0 z m 73,29 c -5,-1 -10,-3 -14,-6 -6,-3 -12,-9 -10,-17 0,-3 2,-6 5,-8 9,-6 26,-2 36,0 5,2 10,4 14,6 7,4 12,9 11,17 -1,4 -3,6 -6,8 -8,7 -26,3 -36,0 z m 20,-134 c -6,-2 -12,-4 -17,-8 -6,-4 -12,-10 -10,-18 0,-3 2,-6 5,-9 10,-8 32,-4 43,0 6,1 12,4 17,7 7,4 12,10 11,18 -1,4 -3,7 -6,9 -10,8 -32,4 -43,1 z m -1254,-338 c -4,-3 -8,-6 -12,-9 -5,-6 -9,-13 -4,-21 1,-2 2,-3 4,-4 10,-5 25,6 33,11 4,3 9,7 12,10 5,6 10,13 5,21 -1,1 -3,3 -5,4 -10,5 -25,-6 -33,-12 z m 163,89 c -5,-3 -9,-6 -13,-9 -6,-5 -12,-12 -7,-20 1,-2 2,-4 4,-5 10,-6 27,4 35,9 5,3 9,6 14,9 5,5 11,12 6,20 -1,2 -2,4 -4,5 -10,6 -27,-4 -35,-9 z m 65,45 c -5,-3 -10,-6 -14,-9 -6,-5 -11,-12 -7,-20 1,-2 3,-4 5,-5 10,-6 26,4 35,9 4,2 9,5 13,9 6,5 11,12 7,20 -1,2 -3,3 -4,5 -10,6 -27,-4 -35,-9 z m 1169,-802.00003 c -21,-6 -43,-26 -35,-50 8,-22 38,-27 58,-22 21,6 44,26 35,50 -8,22 -37,27 -58,22 z m -111,482.00003 c -13,-6 -26,-19 -23,-35.00003 1,-4 3,-8 6,-11 13,-15 39,-12 54,-4 14,6 27,20.00003 24,36.00003 -1,4 -3,8 -6,11 -13,14 -39,11 -55,3 z m 27,159 c -12,-5 -26,-16 -23,-31 0,-5 3,-9 6,-12 13,-13 37,-11 52,-4 12,5 26,16 24,31 -1,5 -3,9 -7,12 -13,13 -37,11 -52,4 z m 201,306 c -12,-3 -33,-9 -32,-25 0,-4 1,-7 3,-9 10,-12 35,-10 48,-7 12,2 34,8 32,24 0,4 -1,7 -3,9 -10,12 -35,10 -48,8 z m 112,-1201.00003 c -22,-6 -44,-27 -36,-53 8,-24 38,-31 60,-25 23,6 45,27 37,52 -8,24 -38,31 -61,26 z m 602,0 c -22,6 -52,-2 -60,-26 -8,-25 13,-46 36,-52 23,-6 53,1 61,26 8,25 -14,46 -37,52 z m -333,61 c 24,1 47,18 46,43 -1,25 -25,41 -49,41 -24,-1 -46,-18 -45,-43 1,-25 24,-41 48,-41 z m 562,192 c -21,6 -50,1 -58,-22 -9,-24 13,-43 34,-49 21,-5 50,-1 58,22 9,24 -13,44 -34,49 z m -484,306 c -31,0 -74,-15 -80,-49 -1,-3 -1,-7 -1,-11 0,-1 0,-3 1,-5 7,-36 54,-51 86,-50 31,0 73,15 80,49 1,3 1,7 1,11 0,1 -1,3 -1,5 -7,36 -54,51 -86,50 z m 432,-17 c -19,4 -48,1 -56,-19 -10,-23 15,-40 34,-45 19,-4 48,-1 56,20 10,22 -15,39 -34,44 z m -47,70 c -19,5 -45,0 -53,-20 -8,-22 13,-40 32,-45 19,-5 45,0 53,20 8,22 -13,40 -32,45 z m 471,-509 c -29,13 -67,14 -90,-10 -5,-6 -9,-12 -11,-19 -15,-41 16,-82 52,-98 28,-13 66,-13 89,11 5,6 9,12 12,19 15,40 -17,81 -52,97 z m 38,-152 c -21,8 -51,5 -60,-18 -10,-24 10,-47 31,-55 21,-8 51,-5 60,18 10,24 -10,47 -31,55 z m 543,9 c -27,15 -67,20 -90,-5 -4,-4 -7,-8 -9,-14 -7,-17 -3,-36 6,-52 10,-18 26,-32 44,-42 27,-14 67,-20 90,5 4,4 7,9 9,14 7,18 3,37 -6,53 -10,18 -26,32 -44,41 z m 407,-397 c -19,23 -52,43 -83,30 -5,-2 -11,-6 -15,-10 -29,-30 -14,-80 9,-108 19,-23 52,-44 83,-31 5,3 11,6 15,11 29,29 14,80 -9,108 z m -1870,1541.00003 c -18,-3 -50,-11 -52,-35 0,-6 2,-12 6,-17 18,-22 64,-25 90,-21 18,2 51,11 52,34 0,6 -2,12 -6,17 -18,22 -64,25 -90,22 z m -237,197 c -11,-2 -28,-8 -28,-22 0,-5 3,-9 7,-12 10,-8 32,-7 44,-5 11,2 29,8 28,22 0,5 -3,9 -6,12 -11,8 -33,7 -45,5 z m 182,-36 c -12,-2 -27,-7 -28,-21 0,-4 1,-9 4,-12 10,-10 31,-11 44,-10 11,2 27,7 27,21 1,4 -1,8 -4,12 -10,10 -30,11 -43,10 z m -144,149 c -13,-2 -44,-7 -43,-25 0,-6 4,-11 9,-14 17,-9 55,-7 73,-5 13,2 44,6 44,24 0,7 -4,12 -10,15 -16,8 -54,7 -73,5 z m 63,68 c -10,-1 -28,-4 -28,-18 -1,-3 1,-6 3,-9 7,-8 25,-8 35,-7 11,1 29,4 29,18 0,3 -1,6 -3,9 -8,8 -26,8 -36,7 z m 295,-67 c -18,2 -56,4 -72,-5 -6,-3 -10,-8 -10,-14 0,-19 30,-23 44,-25 18,-2 56,-4 72,5 6,3 10,8 10,14 0,19 -30,23 -44,25 z m 39,-114 c -13,3 -34,4 -45,-5 -4,-2 -6,-7 -6,-11 -1,-15 16,-20 27,-22 13,-2 35,-3 45,5 4,3 6,7 6,12 1,14 -16,19 -27,21 z m 195,-100 c -13,2 -37,4 -46,-8 -2,-2 -3,-5 -3,-8 -2,-16 19,-23 31,-25 12,-3 36,-4 46,7 2,3 3,6 3,9 1,16 -19,22 -31,25 z m 351,164 c -11,3 -35,6 -46,0 -4,-2 -8,-6 -8,-11 -2,-15 18,-20 28,-22 12,-3 35,-6 46,0 5,2 9,6 9,11 2,15 -18,20 -29,22 z m 152,-340 c -13,5 -37,10 -48,0 -3,-3 -4,-6 -5,-9 -4,-15 14,-26 26,-31 13,-5 37,-10 48,1 3,2 4,5 5,8 4,16 -14,26 -26,31 z m 203,-194 c -13,8 -36,15 -48,2 -2,-2 -3,-4 -4,-6 -6,-15 7,-30 19,-37 13,-8 36,-15 48,-2 2,1 3,4 4,6 6,15 -7,30 -19,37 z m -42,345 c -15,4 -54,13 -62,-7 -1,-2 -1,-5 -1,-7 1,-21 42,-35 58,-40 15,-4 55,-14 62,7 1,2 2,4 1,7 -1,21 -42,35 -58,40 z m 180,22 c -13,5 -46,18 -55,0 -1,-3 -1,-7 0,-10 4,-16 39,-31 53,-36 12,-5 46,-17 54,0 1,3 2,7 1,10 -5,16 -39,31 -53,36 z m 33,-285 c -12,7 -35,14 -45,1 -1,-2 -2,-3 -3,-5 -5,-15 11,-28 22,-35 13,-6 35,-13 45,0 2,1 3,3 3,5 6,15 -10,28 -22,34 z m 179,-40 c -12,6 -36,15 -45,1 -6,-8 -2,-18 4,-24 5,-6 12,-11 19,-14 11,-7 35,-15 45,-1 6,8 2,17 -4,24 -5,6 -12,10 -19,14 z m -400,-437.00003 c -18,7 -45,8 -55,-11 -11,-21 9,-41 26,-48 18,-7 45,-7 55,12 11,20 -9,40 -26,47 z m 103,213 c -15,8 -41,12 -52,-6 -10,-18 9,-37 24,-44 15,-8 41,-12 51,5 11,18 -8,37 -23,45 z m 296,-232 c -14,11 -39,20 -52,5 -15,-17 1,-39 14,-50 14,-10 39,-20 53,-4 14,16 -1,39 -15,49 z m 210,-64 c -14,10 -38,19 -51,3 -1,-1 -2,-2 -3,-4 -8,-16 6,-34 18,-44 14,-10 39,-18 52,-3 1,2 2,3 2,5 8,16 -5,34 -18,43 z m 379,-140 c -11,13 -25,24 -41,30 -13,5 -29,7 -41,-2 -2,-2 -4,-3 -5,-5 -19,-23 2,-60 19,-78 11,-12 25,-23 40,-29 14,-5 30,-7 42,2 2,1 3,3 5,5 18,23 -3,59 -19,77 z m 101,-105 c -11,12 -25,22 -40,28 -12,5 -28,7 -40,-2 -1,-2 -3,-3 -4,-5 -18,-22 4,-57 20,-74 11,-12 25,-22 40,-28 12,-5 28,-7 40,2 1,1 3,3 4,5 18,22 -4,57 -20,74 z m -343,520 c -12,8 -36,18 -46,4 -6,-8 -3,-18 2,-25 5,-6 11,-12 18,-16 11,-8 35,-19 46,-4 5,8 2,18 -3,25 -4,6 -11,12 -17,16 z m 68,-152 c -11,9 -36,22 -47,7 -13,-15 7,-36 18,-44 12,-9 36,-22 48,-7 12,15 -7,35 -19,44 z m -151,475.00003 c -9,6 -29,18 -38,6 -10,-14 9,-28 19,-34 9,-7 28,-19 38,-6 9,13 -10,27 -19,34 z m -50,65 c -10,5 -29,14 -36,1 -8,-13 10,-25 19,-30 10,-5 29,-14 36,-1 8,13 -10,24 -19,30 z m 81,-4 c -9,6 -29,18 -37,3 -3,-8 2,-15 8,-20 4,-4 9,-7 13,-10 10,-5 29,-17 37,-2 4,8 -2,14 -7,19 -5,4 -9,7 -14,10 z m 161,-88 c -9,6 -29,18 -36,3 -4,-8 1,-15 7,-20 4,-3 9,-6 14,-9 9,-6 29,-18 36,-3 4,8 -1,15 -7,20 -4,3 -9,7 -14,9 z m 183,-434.00003 c -10,9 -30,22 -42,10 -13,-13 2,-33 12,-42 9,-9 29,-22 42,-10 12,13 -2,33 -12,42 z m 60,45 c -9,8 -28,22 -39,10 -12,-12 4,-30 13,-38 9,-8 28,-22 39,-10 12,12 -4,30 -13,38 z m -5,120 c -8,7 -28,22 -38,10 -11,-12 7,-29 16,-36 9,-8 28,-23 38,-10 11,12 -7,29 -16,36 z m 46,35 c -8,7 -25,24.00003 -36,13.00003 -12,-12.00003 7,-28.00003 15,-35.00003 8,-8 25,-25 36,-14 12,12 -7,28 -15,36 z m -81,80.00003 c -8,7 -24,21 -34,10 -6,-8 -1,-16 4,-21 4,-4 8,-8 12,-11 7,-6 23,-21 33,-9 7,7 2,15 -3,21 -4,4 -8,7 -12,10 z m 136,-286.00003 c -9,8 -28,22 -40,11 -12,-12 4,-30 13,-39 9,-8 28,-22 40,-10 12,12 -4,30 -13,38 z m -108,-92 c -10,9 -31,23 -44,10 -13,-13 3,-34 13,-43 10,-10 31,-23 44,-11 13,14 -2,34 -13,44 z m 270,-70 c -8,8 -26,26 -39,16 -14,-11 3,-32 11,-41 8,-9 26,-27 39,-16 14,11 -3,32 -11,41 z m -94,-108 c -9,9 -29,26 -42,15 -14,-12 1,-34 10,-44 9,-9 29,-26 42,-14 14,12 -1,33 -10,43 z m 99,-50 c -9,10 -29,27 -42,15 -14,-12 1,-33 10,-43 9,-10 29,-26 42,-15 14,12 -1,34 -10,43 z m 46,60 c -7,9 -25,28 -38,20 -17,-10 1,-33 9,-42 8,-10 25,-29 39,-21 16,10 -2,33 -10,43 z m 119,-1 c -7,8 -22,24 -35,17 -15,-10 0,-30 8,-39 7,-8 22,-24 34,-17 16,10 1,30 -7,39 z m -310,-476 c -9,9 -23,17 -35,11 -5,-3 -9,-8 -11,-14 -5,-16 5,-38 16,-50 9,-9 23,-17 35,-11 6,3 9,8 11,13 6,17 -4,39 -16,51 z m 64,-210 c -10,9 -26,16 -38,8 -5,-3 -8,-8 -10,-13 -5,-18 8,-40 21,-52 10,-8 26,-16 39,-7 4,3 7,7 9,12 5,19 -8,41 -21,52 z m -322,-545 c -20,21 -51,35 -80,24 -10,-3 -18,-9 -25,-17 -28,-33 -17,-85 10,-115 20,-21 52,-34 80,-24 10,3 19,9 26,18 28,33 17,84 -11,114 z m -142,19 c -14,19 -41,28 -59,10 -17,-17 -13,-46 0,-64 14,-18 41,-28 59,-9 16,17 13,45 0,63 z m 484,128 c -8,12 -23,23 -38,18 -5,-1 -10,-5 -13,-9 -11,-17 -4,-43 6,-58 8,-13 23,-24 39,-19 5,2 9,5 12,9 12,17 5,43 -6,59 z m 210,106 c -8,9 -21,16 -32,11 -7,-3 -11,-9 -13,-15 -5,-17 3,-39 15,-51 8,-9 20,-16 32,-11 6,3 11,9 13,15 5,17 -4,39 -15,51 z m 28,-416 c -11,17 -33,27 -48,8 -11,-15 -8,-40 1,-55 11,-17 34,-27 48,-8 12,15 9,39 -1,55 z m -415,-270 c 6,20 -1,47 -19,60 -21,15 -44,2 -50,-21 -6,-20 1,-47 19,-60 21,-15 43,-2 50,21 z m 290,-52 c 5,20 0,47 -17,60 -20,16 -42,2 -47,-21 -5,-20 0,-46 17,-59 20,-17 42,-2 47,20 z m 70,-44 c 6,19 -1,44 -17,56 -20,14 -41,2 -47,-20 -5,-19 1,-44 17,-55 20,-14 41,-3 47,19 z m 320,272 c 5,15 -1,37 -11,49 -14,16 -36,14 -42,-8 -4,-15 1,-37 12,-49 14,-17 35,-14 41,8 z m 270,-284 c 1,14 -3,34 -11,45 -4,4 -10,8 -16,6 -13,-2 -16,-16 -16,-26 -1,-14 3,-34 11,-44 4,-5 10,-8 16,-7 13,2 16,16 16,26 z m 99,-183 c 0,12 -5,37 -22,35 -17,-1 -17,-26 -17,-38 1,-13 5,-38 23,-36 16,1 17,26 16,39 z m 114,-47 c -1,14 -3,61 -26,59 -21,-2 -20,-48 -19,-62 0,-15 2,-62 25,-60 21,2 20,48 20,63 z m -49,580 c 0,12 -2,32 -8,43 -2,5 -8,9 -14,9 -14,-2 -14,-20 -13,-30 0,-12 2,-32 8,-43 2,-5 8,-9 14,-9 14,2 14,20 13,30 z m -336,144 c 0,15 -6,35 -15,47 -13,19 -34,12 -34,-11 -1,-15 5,-35 14,-47 13,-20 34,-13 35,11 z m -207,246 c -7,8 -17,14 -28,10 -7,-3 -11,-10 -13,-17 -2,-16 5,-37 16,-49 6,-7 16,-14 27,-10 8,3 12,10 13,18 3,16 -5,36 -15,48 z m 82,170 c -6,8 -17,16 -27,12 -7,-3 -10,-9 -11,-16 -1,-14 7,-33 15,-44 7,-8 17,-16 28,-11 6,3 9,9 10,16 2,14 -6,32 -15,43 z m -40,182 c -7,8 -17,16 -28,11 -6,-3 -10,-9 -10,-16 -2,-14 6,-32 15,-43 6,-8 16,-16 27,-12 7,3 10,9 11,16 1,14 -7,33 -15,44 z m 316,-193 c -5,9 -15,25 -28,19 -10,-3 -10,-15 -8,-23 3,-20 14,-48 24,-65 6,-10 15,-25 28,-20 10,4 10,15 9,24 -3,20 -15,48 -25,65 z m 2,-247 c -1,24 -13,57 -26,76 -6,9 -15,20 -27,16 -13,-4 -14,-20 -13,-31 1,-23 12,-57 25,-76 6,-9 16,-19 28,-15 13,4 14,19 13,30 z m 88,182 c -2,4 -4,8 -6,12 -4,6 -10,10 -17,7 -12,-4 -9,-16 -7,-25 5,-19 14,-42 22,-60 2,-3 4,-7 6,-11 4,-6 10,-11 18,-8 11,4 8,17 6,25 -5,20 -14,42 -22,60 z m -798,662 c -8,10 -24,25 -38,16 -3,-1 -5,-3 -6,-6 -8,-14 4,-35 13,-46 8,-10 24,-24 38,-16 2,2 4,4 6,6 8,14 -4,35 -13,46 z m 152,-70 c -4,5 -9,10 -14,14 -7,4 -15,7 -22,3 -2,-2 -4,-4 -5,-6 -8,-13 4,-33 11,-43 4,-6 9,-11 15,-15 6,-4 14,-6 21,-2 3,1 4,3 6,5 7,13 -4,34 -12,44 z m 325,-84 c -7,9 -19,26 -32,18 -1,-1 -3,-2 -4,-4 -6,-10 5,-27 11,-36 6,-9 19,-26 31,-18 2,1 3,2 5,4 6,11 -6,27 -11,36 z m 65,-49 c -3,5 -6,10 -10,14 -5,6 -12,11 -20,7 -2,-1 -3,-2 -5,-4 -7,-10 4,-28 9,-37 3,-4 6,-9 9,-14 5,-6 13,-11 21,-7 2,1 3,3 4,4 7,10 -3,28 -8,37 z m -3,78 c -3,4 -6,8 -9,12 -4,6 -11,12 -19,7 -2,0 -3,-2 -4,-3 -7,-9 3,-24 8,-33 2,-4 5,-8 8,-12 5,-6 12,-12 20,-7 1,0 2,2 3,3 8,9 -2,24 -7,33 z m 126,-236 c -3,4 -5,9 -8,13 -4,6 -10,12 -19,8 -1,0 -3,-1 -4,-3 -8,-8 2,-24 6,-33 2,-4 5,-9 8,-13 4,-6 10,-12 19,-8 1,0 2,1 3,3 8,8 -1,24 -5,33 z m -1549,1552.00003 c -9,5 -30,15 -36,0 -3,-8 2,-15 8,-19 5,-4 10,-6 15,-9 9,-5 30,-16 36,0 4,8 -2,14 -8,19 -5,3 -10,6 -15,9 z m -1973,331 c -10,-2 -28,-5 -26,-19 1,-4 4,-8 9,-10 7,-3 24,0 31,1 10,2 28,5 26,19 0,5 -4,9 -8,10 -8,3 -24,0 -32,-1 z m 129,31 c -8,-1 -16,-1 -23,-3 -9,-1 -20,-3 -19,-15 0,-6 5,-10 11,-12 6,-1 15,0 21,0 11,0 21,1 32,2 8,1 16,2 24,3 8,1 19,4 18,15 0,7 -5,11 -11,12 -6,1 -15,0 -21,0 -11,0 -21,-1 -32,-2 z m 157,13 c -8,-1 -16,-2 -24,-3 -8,-1 -19,-3 -19,-14 0,-7 5,-11 11,-12 6,-2 15,-1 21,-1 11,0 22,0 32,1 8,1 16,1 24,2 8,2 19,3 19,15 0,7 -5,11 -11,12 -6,1 -15,1 -21,1 -11,0 -22,-1 -32,-1 z m 476,-14 c -11,1 -22,2 -32,3 -6,0 -15,1 -21,0 -6,-1 -11,-5 -12,-12 -1,-11 11,-14 19,-15 8,-1 16,-2 24,-3 11,-1 21,-2 32,-3 6,0 15,-1 21,0 6,1 11,6 11,12 1,12 -10,14 -18,15 -8,2 -16,3 -24,3 z m 422,-60 c -11,2 -21,5 -32,7 -6,1 -15,3 -21,3 -6,0 -11,-4 -13,-10 -1,-5 2,-11 6,-14 1,0 2,-1 3,-1 3,-1 5,-2 8,-3 7,-2 15,-4 23,-6 11,-3 21,-5 32,-8 6,-1 15,-3 21,-3 6,1 11,4 13,10 1,6 -2,11 -6,14 -1,0 -2,1 -3,1 -3,1 -5,2 -8,3 -7,3 -15,5 -23,7 z m 1892,-1174.00003 c -5,6 -16,19 -25,20 -3,0 -7,-1 -9,-3 -11,-10 2,-24 8,-32 5,-6 16,-19 24,-20 4,0 8,1 10,3 11,10 -2,24 -8,32 z m 81,-81 c -5,6 -15,19 -24,20 -3,1 -7,0 -10,-3 -11,-10 2,-24 9,-32 5,-6 16,-19 24,-20 4,0 7,1 10,3 11,10 -2,25 -9,32 z m 729,-1817 c 0,11 -1,21 -3,31 -1,10 -4,25 -18,22 -11,-2 -11,-15 -11,-24 -1,-11 -1,-21 0,-32 0,-10 1,-20 2,-30 2,-10 5,-25 18,-22 12,2 12,15 12,24 1,10 1,21 0,31 z m -2712,-3688 c 9,2 18,3 26,6 3,0 5,1 8,2 6,2 11,7 10,15 0,3 -2,5 -3,7 -6,5 -16,3 -23,2 -9,-1 -18,-2 -27,-4 -8,-2 -17,-4 -25,-6 -3,-1 -6,-1 -8,-2 -6,-3 -12,-8 -10,-15 0,-3 2,-5 3,-7 6,-5 16,-4 22,-3 9,2 19,3 27,5 z m -3568,5351 c -5,-6 -9,-11 -13,-17 -4,-7 -11,-16 -2,-24 7,-5 14,-2 18,2 2,2 4,4 5,6 5,5 9,10 14,16 4,6 8,11 12,17 5,7 11,16 2,24 -6,5 -13,2 -18,-2 -2,-2 -3,-4 -5,-6 -5,-5 -9,-10 -13,-16 z m -543,-1239 c -1,-9 -3,-18 -4,-27 -1,-9 -3,-21 9,-23 4,-1 8,0 11,2 7,6 12,39 14,48 2,9 3,18 4,27 1,9 3,21 -9,23 -4,1 -8,0 -10,-3 -8,-6 -13,-38 -15,-47 z"
             id="path13"
             style="display:inline;fill:#F4A844;fill-opacity:1" /></g></g></g></g></svg>
