<?xml version="1.0" encoding="UTF-8" standalone="no"?>
<!-- Created with Inkscape (http://www.inkscape.org/) -->

<svg
   width="110mm"
   height="92.087257mm"
   viewBox="0 0 110 92.087257"
   version="1.1"
   id="svg5"
   xml:space="preserve"
   xmlns:inkscape="http://www.inkscape.org/namespaces/inkscape"
   xmlns:sodipodi="http://sodipodi.sourceforge.net/DTD/sodipodi-0.dtd"
   xmlns="http://www.w3.org/2000/svg"
   xmlns:svg="http://www.w3.org/2000/svg"><sodipodi:namedview
     id="namedview7"
     pagecolor="#ffffff"
     bordercolor="#000000"
     borderopacity="0.25"
     inkscape:showpageshadow="2"
     inkscape:pageopacity="0.0"
     inkscape:pagecheckerboard="0"
     inkscape:deskcolor="#d1d1d1"
     inkscape:document-units="mm"
     showgrid="false" /><defs
     id="defs2"><style
       type="text/css"
       id="style2">  .fil0 {fill:black} .fil2 {fill:#FF0009} .fil1 {fill:#E31E25;fill-rule:nonzero}  </style><style
       type="text/css"
       id="style2-3">  .fil0 {fill:black} .fil2 {fill:#FF0009} .fil1 {fill:#E31E25;fill-rule:nonzero}  </style><style
       type="text/css"
       id="style2-0">  .fil0 {fill:black} .fil2 {fill:#FF0009} .fil1 {fill:#E31E25;fill-rule:nonzero}  </style></defs><g
     inkscape:label="Warstwa 1"
     inkscape:groupmode="layer"
     id="layer1"
     transform="translate(-258.63608,-61.345358)"><path
       d="m -531.07351,382.5465 c -19.08041,0 -34.53403,20.12201 -34.53403,44.89768 V 601.7679 c 0,24.77753 15.45362,44.89766 34.53403,44.89766 h 151.95367 l 22.05061,90.25004 26.25111,-90.25004 h 39.28263 c 19.08011,0 34.36461,-20.12013 34.36461,-44.89766 V 481.21097 h -0.1708 v -42.12561 h 0.1708 v -11.63988 c 0,-24.77565 -15.2845,-44.89767 -34.36461,-44.89767 z m 18.62109,59.30893 c 9.86382,0 19.65502,4.08399 29.11753,12.19431 l -9.48001,30.2085 c -5.1775,-6.57553 -10.4771,-9.70013 -15.7435,-9.70013 -2.54391,0 -4.76281,0.93027 -6.77121,3.04883 -2.27611,2.41096 -3.5551,5.68121 -3.5551,9.69954 0,3.94544 1.5804,7.40387 4.5708,10.25451 1.3388,1.31545 5.3242,3.43619 12.0193,6.65088 8.39061,4.01876 14.37342,9.80357 17.94382,17.18325 3.07969,6.28317 4.57029,14.24652 4.57029,24.1121 0,25.28146 -6.7459,41.93713 -20.3137,49.60932 -4.7312,2.70343 -9.79091,3.88045 -15.23562,3.88045 -11.4255,0 -22.05119,-5.58095 -31.8257,-16.90678 l 10.1568,-31.31732 c 7.1414,10.52158 14.16271,15.79662 20.99161,15.79662 3.0791,0 5.6445,-1.26373 7.7867,-3.60221 2.49951,-2.62999 3.72461,-6.26289 3.72461,-11.08545 0,-4.38369 -1.29591,-8.16404 -4.06291,-11.08549 -2.0528,-2.19255 -5.4619,-4.38746 -10.3265,-6.65281 -5.891,-2.84919 -9.6555,-4.72468 -11.1727,-5.82029 -2.40991,-1.68035 -4.39841,-3.55511 -6.09432,-5.82027 -4.8646,-6.57552 -7.2791,-16.63272 -7.2791,-29.93131 0,-13.88178 2.40531,-25.50951 7.44841,-34.6425 5.8915,-10.74055 13.71171,-16.07443 23.53061,-16.07443 z m 204.15802,0 c 9.8633,0 19.48541,4.08399 28.94752,12.19431 l -9.48002,30.2085 c -5.1775,-6.57553 -10.4771,-9.70013 -15.7437,-9.70013 -2.5438,0 -4.7628,0.93027 -6.77141,3.04883 -2.27599,2.41096 -3.38539,5.68121 -3.38539,9.69954 0,3.94544 1.41079,7.40387 4.40129,10.25451 1.33891,1.31545 5.4935,3.43619 12.18821,6.65088 8.3906,4.01876 14.37371,9.80357 17.94472,17.18325 3.07919,6.28317 4.5704,14.24652 4.5704,24.1121 0,25.28146 -6.74651,41.93713 -20.31432,49.60932 -4.73069,2.70343 -9.9602,3.88045 -15.40491,3.88045 -11.4254,0 -21.88191,-5.58095 -31.65602,-16.90678 l 10.15681,-31.31732 c 7.14091,10.52158 13.99331,15.79662 20.82242,15.79662 3.0797,0 5.8137,-1.26373 7.956,-3.60221 2.4996,-2.62999 3.7242,-6.26289 3.72439,-11.08545 -1.9e-4,-4.38369 -1.46509,-8.16404 -4.23239,-11.08549 -2.05291,-2.19255 -5.46211,-4.38746 -10.32651,-6.65281 -5.8911,-2.84919 -9.6554,-4.72468 -11.1727,-5.82029 -2.41011,-1.68035 -4.39811,-3.55511 -6.09401,-5.82027 -4.8651,-6.57552 -7.2792,-16.63272 -7.2792,-29.93131 0,-13.88178 2.5745,-25.50951 7.6179,-34.6425 5.891,-10.74055 13.71161,-16.07443 23.53031,-16.07443 z m -144.90817,3.6033 h 23.53091 l 18.4519,79.81986 19.63692,-79.81986 h 23.6996 l 13.71221,149.65667 h -23.70001 l -6.77111,-86.19423 -22.17661,86.19423 h -9.31029 l -21.16082,-86.19423 -7.7869,86.19423 h -23.53072 z"
       fill="#ff6600"
       id="path3829"
       style="fill:#216778;fill-opacity:1;stroke-width:4.99183"
       transform="matrix(0.35663725,0,0,0.25986256,460.3528,-38.064152)" /></g></svg>
