<?xml version="1.0" encoding="UTF-8" standalone="no"?>
<!-- Created with Inkscape (http://www.inkscape.org/) -->

<svg
   width="110mm"
   height="70.000008mm"
   viewBox="0 0 110 70.000008"
   version="1.1"
   id="svg5"
   xml:space="preserve"
   xmlns="http://www.w3.org/2000/svg"
   xmlns:svg="http://www.w3.org/2000/svg"><defs
     id="defs2"><linearGradient
       id="linearGradient44351"><stop
         style="stop-color:#2299ff;stop-opacity:1;"
         offset="0"
         id="stop44349" /></linearGradient><linearGradient
       id="linearGradient30201"><stop
         style="stop-color:#9da1a6;stop-opacity:1;"
         offset="0"
         id="stop30199" /></linearGradient><linearGradient
       id="linearGradient29901"><stop
         style="stop-color:#000000;stop-opacity:1;"
         offset="0"
         id="stop29899" /></linearGradient><linearGradient
       id="linearGradient29048"><stop
         style="stop-color:#000000;stop-opacity:1;"
         offset="0"
         id="stop29046" /></linearGradient><linearGradient
       id="linearGradient28938"><stop
         style="stop-color:#2299ff;stop-opacity:1;"
         offset="0"
         id="stop28936" /></linearGradient><linearGradient
       id="linearGradient4648"><stop
         style="stop-color:#a1c0ff;stop-opacity:0;"
         offset="0"
         id="stop4646" /></linearGradient><style
       type="text/css"
       id="style2">  .fil0 {fill:black} .fil2 {fill:#FF0009} .fil1 {fill:#E31E25;fill-rule:nonzero}  </style><style
       type="text/css"
       id="style2-3">  .fil0 {fill:black} .fil2 {fill:#FF0009} .fil1 {fill:#E31E25;fill-rule:nonzero}  </style><style
       type="text/css"
       id="style2-0">  .fil0 {fill:black} .fil2 {fill:#FF0009} .fil1 {fill:#E31E25;fill-rule:nonzero}  </style><style
       type="text/css"
       id="style2-03">  .fil0 {fill:black} .fil2 {fill:#FF0009} .fil1 {fill:#E31E25;fill-rule:nonzero}  </style><style
       type="text/css"
       id="style2-3-2">  .fil0 {fill:black} .fil2 {fill:#FF0009} .fil1 {fill:#E31E25;fill-rule:nonzero}  </style><style
       type="text/css"
       id="style2-0-9">  .fil0 {fill:black} .fil2 {fill:#FF0009} .fil1 {fill:#E31E25;fill-rule:nonzero}  </style><style
       type="text/css"
       id="style2-6">  .fil0 {fill:black} .fil2 {fill:#FF0009} .fil1 {fill:#E31E25;fill-rule:nonzero}  </style><style
       type="text/css"
       id="style2-3-5">  .fil0 {fill:black} .fil2 {fill:#FF0009} .fil1 {fill:#E31E25;fill-rule:nonzero}  </style><style
       type="text/css"
       id="style2-0-2">  .fil0 {fill:black} .fil2 {fill:#FF0009} .fil1 {fill:#E31E25;fill-rule:nonzero}  </style><style
       type="text/css"
       id="style28054">  .fil0 {fill:#F0F0F0} .fil1 {fill:#011627;fill-rule:nonzero}  </style></defs><g
     id="layer1"
     transform="translate(-140.16129,135.46299)"><path
       d="m 152.47741,-135.46299 c -6.80478,0 -12.31612,3.97478 -12.31612,8.86883 v 34.434882 c 0,4.894409 5.51134,8.868825 12.31612,8.868825 h 54.19234 l 7.86407,17.827464 9.36212,-17.827464 h 14.00966 c 6.80466,0 12.25569,-3.974416 12.25569,-8.868825 v -23.814102 h -0.0608 v -8.32125 h 0.0608 v -2.29927 c 0,-4.89404 -5.45103,-8.86882 -12.25569,-8.86882 z m 6.64098,11.71554 c 3.5178,0 7.00971,0.80673 10.38439,2.4088 l -3.38093,5.9672 c -1.84649,-1.29889 -3.73651,-1.9161 -5.61471,-1.9161 -0.90726,0 -1.69859,0.18376 -2.41486,0.60224 -0.81176,0.47626 -1.26789,1.12224 -1.26789,1.916 0,0.77936 0.56364,1.46252 1.63012,2.02561 0.47747,0.25986 1.8988,0.67877 4.28653,1.31378 2.99241,0.79384 5.1261,1.93654 6.39943,3.39428 1.09833,1.24114 1.62995,2.81418 1.62995,4.76296 0,4.99396 -2.40584,8.284011 -7.24463,9.799539 -1.68733,0.534016 -3.49181,0.766522 -5.43359,0.766522 -4.07476,0 -7.86428,-1.102442 -11.35023,-3.339675 l 3.6223,-6.186246 c 2.54688,2.07839 5.05095,3.120375 7.48638,3.120375 1.09813,0 2.01304,-0.249625 2.77704,-0.711554 0.8914,-0.519511 1.32832,-1.237141 1.32832,-2.189761 0,-0.86592 -0.46216,-1.61267 -1.44898,-2.18975 -0.7321,-0.43311 -1.94791,-0.86668 -3.68282,-1.31417 -2.10094,-0.5628 -3.44351,-0.93328 -3.98459,-1.1497 -0.85947,-0.33192 -1.56865,-0.70225 -2.17346,-1.1497 -1.73491,-1.29889 -2.59601,-3.28554 -2.59601,-5.91245 0,-2.74213 0.85783,-5.03901 2.65638,-6.84308 2.10113,-2.12163 4.89012,-3.17525 8.39189,-3.17525 z m 72.81035,0 c 3.51761,0 6.94922,0.80673 10.32377,2.4088 l -3.38093,5.9672 c -1.8465,-1.29889 -3.73652,-1.9161 -5.61479,-1.9161 -0.90722,0 -1.69859,0.18376 -2.41494,0.60224 -0.81171,0.47626 -1.20737,1.12224 -1.20737,1.916 0,0.77936 0.50316,1.46252 1.56968,2.02561 0.4775,0.25986 1.95918,0.67877 4.34677,1.31378 2.99239,0.79384 5.1262,1.93654 6.39975,3.39428 1.09815,1.24114 1.62998,2.81418 1.62998,4.76296 0,4.99396 -2.40608,8.284011 -7.24485,9.799539 -1.68713,0.534016 -3.55218,0.766522 -5.49396,0.766522 -4.07473,0 -7.80391,-1.102442 -11.28972,-3.339675 l 3.6223,-6.186246 c 2.54671,2.07839 4.99054,3.120375 7.42605,3.120375 1.09834,0 2.07338,-0.249625 2.8374,-0.711554 0.89145,-0.519511 1.3282,-1.237141 1.32827,-2.189761 -7e-5,-0.86592 -0.52253,-1.61267 -1.50944,-2.18975 -0.73214,-0.43311 -1.94799,-0.86668 -3.68282,-1.31417 -2.10098,-0.5628 -3.44347,-0.93328 -3.98459,-1.1497 -0.85954,-0.33192 -1.56853,-0.70225 -2.17336,-1.1497 -1.73507,-1.29889 -2.59603,-3.28554 -2.59603,-5.91245 0,-2.74213 0.91816,-5.03901 2.71682,-6.84308 2.10096,-2.12163 4.89008,-3.17525 8.39179,-3.17525 z m -51.67965,0.71179 h 8.39201 l 6.58062,15.76714 7.00326,-15.76714 h 8.45216 l 4.89028,29.562286 h -8.45229 l -2.41483,-17.026296 -7.90902,17.026296 h -3.32039 l -7.54674,-17.026296 -2.77711,17.026296 h -8.39192 z"
       fill="#ff6600"
       id="path3829"
       style="fill:#2299ff;fill-opacity:1;stroke-width:1.32493" /></g></svg>
