<!-- Generated by IcoMoon.io -->
<svg version="1.1" xmlns="http://www.w3.org/2000/svg" width="884" height="1024" viewBox="0 0 884 1024">
<title></title>
<g id="icomoon-ignore">
</g>
<path fill="#000" opacity="0.619718" d="M451.921 24.965c-196.284 0.004-355.4 152.64-355.398 340.923v66.454c-40.593 2.406-72.564 35.875-72.564 77.093v432.922c0 42.791 34.454 77.237 77.245 77.237h701.433c42.791 0 77.245-34.446 77.245-77.237v-432.922c0-41.218-31.97-74.687-72.564-77.093v-66.454c0.002-188.283-159.114-340.918-355.398-340.923zM451.921 125.136c138.612 0.001 250.979 107.789 250.977 240.752v66.31h-501.953v-66.31c-0.002-132.962 112.364-240.751 250.977-240.752z"></path>
<path fill="#fff" d="M427.962 0c-196.282 0.004-355.398 152.637-355.398 340.919 0 0.001 0 0.002 0 0.003v0 66.454c-40.593 2.406-72.564 35.875-72.564 77.093v432.922c0 42.791 34.454 77.237 77.245 77.237h701.433c42.791 0 77.245-34.446 77.245-77.237v-432.922c0-41.218-31.97-74.687-72.564-77.093v-66.454c0-0.001 0-0.002 0-0.004 0-188.282-159.116-340.915-355.397-340.919h-0.001zM427.962 100.171c138.611 0.001 250.977 107.787 250.977 240.748 0 0.001 0 0.003 0 0.004v0 66.31h-501.953v-66.31c0-0.001 0-0.003 0-0.004 0-132.961 112.366-240.747 250.977-240.748v0z"></path>
</svg>
