<!-- Generated by IcoMoon.io -->
<svg version="1.1" xmlns="http://www.w3.org/2000/svg" width="1706" height="1024" viewBox="0 0 1706 1024">
<title></title>
<g id="icomoon-ignore">
</g>
<path fill="#000" opacity="0.619608" d="M878.236 38.445c-352.804 0.344-659.812 196.082-818.674 484.818l-2.439 4.837c161.301 293.573 468.309 489.312 821.065 489.655h0.048c353.106-0.041 660.467-195.859 819.452-484.818l2.439-4.837c-161.426-293.798-468.787-489.615-821.887-489.655h-0.004zM878.316 142.462c287.711 0.036 538.148 154.255 667.689 381.828l1.988 3.811c-131.529 231.383-381.965 385.602-669.671 385.638h-0.006c-287.473-0.267-537.631-154.426-667.075-381.828l-1.988-3.81c131.432-231.212 381.59-385.371 669.023-385.638h0.039zM878.633 279.123c-0.006 0-0.014 0-0.021 0-137.499 0-248.965 111.459-248.976 248.956v0.001c0 0.006 0 0.014 0 0.021 0 137.506 111.471 248.976 248.976 248.976 0.007 0 0.015 0 0.022 0h-0.001c0.006 0 0.014 0 0.021 0 137.506 0 248.976-111.471 248.976-248.976 0-0.007 0-0.015 0-0.022v0.001c-0.011-137.497-111.477-248.957-248.976-248.957-0.007 0-0.015 0-0.022 0h0.001zM827.075 293.631c14.035 0.032 26.181 6.434 31.141 17.732 0.002 0.005 0.004 0.010 0.007 0.015v-0.001c7.256 16.562-3.674 37.365-24.422 46.474-0.001 0.001-0.003 0.001-0.004 0.002v0c-0.006 0.002-0.012 0.005-0.019 0.008-20.747 9.108-43.457 3.077-50.74-13.47l-0.001-0.001c-0.002-0.005-0.005-0.010-0.007-0.016-7.272-16.564 3.658-37.38 24.414-46.492 0.007-0.003 0.014-0.006 0.020-0.009h-0.001c0.002-0.001 0.005-0.002 0.007-0.003 6.598-2.897 13.395-4.262 19.83-4.245l-0.227 0.006zM751.562 346.357c0.757-0.017 1.523-0.006 2.276 0.020 13.062 0.458 25.421 7.391 24.631 23.156-0.278 12.555-71.038 194.402-84.857 205.637-12.571 15.194-53.136-18.563-48.545-61.783 4.306-85.85 76.65-163.562 99.775-166.313 2.205-0.413 4.455-0.666 6.721-0.717z"></path>
<path fill="#fff" d="M821.113 0c-352.804 0.344-659.812 196.082-818.674 484.818l-2.439 4.837c161.301 293.573 468.309 489.312 821.065 489.655h0.048c353.106-0.041 660.467-195.859 819.452-484.818l2.439-4.837c-161.426-293.798-468.787-489.615-821.887-489.655h-0.004zM821.192 104.017c287.711 0.036 538.148 154.255 667.689 381.828l1.988 3.811c-131.529 231.383-381.965 385.602-669.671 385.638h-0.006c-287.473-0.267-537.631-154.426-667.075-381.828l-1.988-3.81c131.432-231.212 381.59-385.371 669.023-385.638h0.039zM821.51 240.678c-0.006 0-0.014 0-0.021 0-137.499 0-248.965 111.459-248.976 248.956v0.001c0 0.006 0 0.014 0 0.021 0 137.506 111.471 248.976 248.976 248.976 0.007 0 0.015 0 0.022 0h-0.001c0.006 0 0.014 0 0.021 0 137.506 0 248.976-111.471 248.976-248.976 0-0.007 0-0.015 0-0.022v0.001c-0.011-137.497-111.477-248.957-248.976-248.957-0.007 0-0.015 0-0.022 0h0.001zM769.952 255.186c14.035 0.032 26.181 6.434 31.141 17.732 0.002 0.005 0.004 0.010 0.007 0.015v-0.001c7.256 16.562-3.674 37.365-24.422 46.474-0.001 0.001-0.003 0.001-0.004 0.002v0c-0.006 0.002-0.012 0.005-0.019 0.008-20.747 9.108-43.457 3.077-50.74-13.47l-0.001-0.001c-0.002-0.005-0.005-0.010-0.007-0.016-7.272-16.564 3.658-37.38 24.414-46.492 0.007-0.003 0.014-0.006 0.020-0.009h-0.001c0.002-0.001 0.005-0.002 0.007-0.003 6.598-2.897 13.395-4.262 19.83-4.245l-0.227 0.006zM694.439 307.912c0.757-0.017 1.523-0.006 2.276 0.020 13.062 0.458 25.421 7.391 24.631 23.156-0.278 12.555-71.038 194.402-84.857 205.637-12.571 15.194-53.136-18.563-48.545-61.783 4.306-85.85 76.65-163.562 99.775-166.313 2.205-0.413 4.455-0.666 6.721-0.717z"></path>
</svg>
