<svg aria-hidden="true" style="position: absolute; width: 0; height: 0; overflow: hidden;" version="1.1" xmlns="http://www.w3.org/2000/svg" xmlns:xlink="http://www.w3.org/1999/xlink">
<defs>
<symbol id="next-idea" viewBox="0 0 32 32">
<path d="M0 14.906c10.14-17.364 11.611 21.745 21.756 0 4.563-9.504 6.644 9.453 10.244 0z"></path>
</symbol>
<symbol id="previous-idea" viewBox="0 0 32 32">
<path d="M32 17.094c-10.14 17.364-11.611-21.745-21.756 0-4.563 9.504-6.644-9.453-10.243 0z"></path>
</symbol>
<symbol id="exit" viewBox="0 0 32 32">
<path d="M3.513 25.358l21.845-21.845c0.864-0.864 2.265-0.864 3.129 0v0c0.864 0.864 0.864 2.265 0 3.129l-21.845 21.845c-0.864 0.864-2.265 0.864-3.129 0v0c-0.864-0.864-0.864-2.265 0-3.129z"></path>
<path d="M3.513 6.642l21.845 21.845c0.864 0.864 2.265 0.864 3.129 0v0c0.864-0.864 0.864-2.265 0-3.129l-21.845-21.845c-0.864-0.864-2.265-0.864-3.129 0v0c-0.864 0.864-0.864 2.265 0 3.129z"></path>
</symbol>
<symbol id="eye" viewBox="0 0 53 32">
<path fill="#000" style="fill: var(--color1, #000)" opacity="0.619608" d="M27.445 1.201c-11.025 0.011-20.619 6.128-25.584 15.151l-0.076 0.151c5.041 9.174 14.635 15.291 25.658 15.302h0.002c11.035-0.001 20.64-6.121 25.608-15.151l0.076-0.151c-5.045-9.181-14.65-15.3-25.684-15.302h-0zM27.447 4.452c8.991 0.001 16.817 4.82 20.865 11.932l0.062 0.119c-4.11 7.231-11.936 12.050-20.927 12.051h-0c-8.984-0.008-16.801-4.826-20.846-11.932l-0.062-0.119c4.107-7.225 11.925-12.043 20.907-12.051h0.001zM27.457 8.723c-0 0-0 0-0.001 0-4.297 0-7.78 3.483-7.78 7.78v0c0 0 0 0 0 0.001 0 4.297 3.483 7.78 7.78 7.78 0 0 0 0 0.001 0h-0c0 0 0 0 0.001 0 4.297 0 7.78-3.483 7.78-7.78 0-0 0-0 0-0.001v0c-0-4.297-3.484-7.78-7.78-7.78-0 0-0 0-0.001 0h0zM25.846 9.176c0.439 0.001 0.818 0.201 0.973 0.554 0 0 0 0 0 0v-0c0.227 0.518-0.115 1.168-0.763 1.452-0 0-0 0-0 0v0c-0 0-0 0-0.001 0-0.648 0.285-1.358 0.096-1.586-0.421l-0-0c-0-0-0-0-0-0.001-0.227-0.518 0.114-1.168 0.763-1.453 0-0 0-0 0.001-0h-0c0-0 0-0 0-0 0.206-0.091 0.419-0.133 0.62-0.133l-0.007 0zM23.486 10.824c0.024-0.001 0.048-0 0.071 0.001 0.408 0.014 0.794 0.231 0.77 0.724-0.009 0.392-2.22 6.075-2.652 6.426-0.393 0.475-1.66-0.58-1.517-1.931 0.135-2.683 2.395-5.111 3.118-5.197 0.069-0.013 0.139-0.021 0.21-0.022z"></path>
<path fill="#fff" style="fill: var(--color2, #fff)" d="M25.66 0c-11.025 0.011-20.619 6.128-25.584 15.151l-0.076 0.151c5.041 9.174 14.635 15.291 25.658 15.302h0.002c11.035-0.001 20.64-6.121 25.608-15.151l0.076-0.151c-5.045-9.181-14.65-15.3-25.684-15.302h-0zM25.662 3.251c8.991 0.001 16.817 4.82 20.865 11.932l0.062 0.119c-4.11 7.231-11.936 12.050-20.927 12.051h-0c-8.984-0.008-16.801-4.826-20.846-11.932l-0.062-0.119c4.107-7.225 11.925-12.043 20.907-12.051h0.001zM25.672 7.521c-0 0-0 0-0.001 0-4.297 0-7.78 3.483-7.78 7.78v0c0 0 0 0 0 0.001 0 4.297 3.483 7.781 7.78 7.781 0 0 0 0 0.001 0h-0c0 0 0 0 0.001 0 4.297 0 7.78-3.483 7.78-7.78 0-0 0-0 0-0.001v0c-0-4.297-3.484-7.78-7.78-7.78-0 0-0 0-0.001 0h0zM24.061 7.975c0.439 0.001 0.818 0.201 0.973 0.554 0 0 0 0 0 0v-0c0.227 0.518-0.115 1.168-0.763 1.452-0 0-0 0-0 0v0c-0 0-0 0-0.001 0-0.648 0.285-1.358 0.096-1.586-0.421l-0-0c-0-0-0-0-0-0.001-0.227-0.518 0.114-1.168 0.763-1.453 0-0 0-0 0.001-0h-0c0-0 0-0 0-0 0.206-0.091 0.419-0.133 0.62-0.133l-0.007 0zM21.701 9.622c0.024-0.001 0.048-0 0.071 0.001 0.408 0.014 0.794 0.231 0.77 0.724-0.009 0.392-2.22 6.075-2.652 6.426-0.393 0.475-1.66-0.58-1.517-1.931 0.135-2.683 2.395-5.111 3.118-5.197 0.069-0.013 0.139-0.021 0.21-0.022z"></path>
</symbol>
<symbol id="lock" viewBox="0 0 28 32">
<path fill="#000" style="fill: var(--color1, #000)" opacity="0.619718" d="M14.431 1.323c-6.027 0-10.913 4.687-10.913 10.469v2.041c-1.247 0.074-2.228 1.102-2.228 2.367v13.294c0 1.314 1.058 2.372 2.372 2.372h21.539c1.314 0 2.372-1.058 2.372-2.372v-13.294c0-1.266-0.982-2.293-2.228-2.367v-2.041c0-5.782-4.886-10.469-10.913-10.469zM14.431 4.399c4.256 0 7.707 3.31 7.707 7.393v2.036h-15.413v-2.036c-0-4.083 3.45-7.393 7.707-7.393z"></path>
<path fill="#fff" style="fill: var(--color2, #fff)" d="M13.141 0c-6.027 0-10.913 4.687-10.913 10.469 0 0 0 0 0 0v0 2.041c-1.246 0.074-2.228 1.102-2.228 2.367v13.294c0 1.314 1.058 2.372 2.372 2.372h21.539c1.314 0 2.372-1.058 2.372-2.372v-13.294c0-1.266-0.982-2.293-2.228-2.367v-2.041c0-0 0-0 0-0 0-5.782-4.886-10.468-10.913-10.469h-0zM13.141 3.076c4.256 0 7.707 3.31 7.707 7.393 0 0 0 0 0 0v0 2.036h-15.413v-2.036c0-0 0-0 0-0 0-4.083 3.45-7.393 7.707-7.393v0z"></path>
</symbol>
<symbol id="cloud" viewBox="0 0 44 32">
<path fill="#000" style="fill: var(--color1, #000)" opacity="0.619608" d="M18.535 1.398c-6.245 0-11.308 5.063-11.308 11.308v0c0.003 0.427 0.029 0.845 0.077 1.256l-0.005-0.053c-3.247 1.471-5.496 4.733-5.496 8.542 0 5.195 4.182 9.377 9.377 9.377h23.167c5.195 0 9.377-4.182 9.377-9.377 0-3.6-2.009-6.712-4.971-8.285 0.179-0.574 0.282-1.235 0.283-1.919v-0c0-3.706-3.005-6.711-6.711-6.711v0c-1.541 0.001-2.959 0.522-4.091 1.396l0.016-0.012c-2.008-3.329-5.605-5.521-9.714-5.521h-0z"></path>
<path fill="#fff" style="fill: var(--color2, #fff)" d="M16.732 0c-6.245 0-11.308 5.063-11.308 11.308v0c0.003 0.427 0.029 0.845 0.077 1.256l-0.005-0.053c-3.247 1.471-5.496 4.733-5.496 8.542 0 5.195 4.182 9.377 9.377 9.377h23.167c5.195 0 9.377-4.182 9.377-9.377 0-3.6-2.009-6.712-4.971-8.285 0.179-0.574 0.282-1.235 0.283-1.919v-0c0-3.706-3.005-6.711-6.711-6.711v0c-1.541 0.001-2.959 0.522-4.091 1.396l0.016-0.012c-2.008-3.329-5.605-5.521-9.714-5.521h-0z"></path>
</symbol>
<symbol id="people" viewBox="0 0 55 32">
<path fill="#000" style="fill: var(--color1, #000)" opacity="0.38391407366400004" d="M7.57 20.393l-4.855 1.303h0.024c-0.74 0-1.335 0.595-1.335 1.335v6.166c0 0.739 0.595 1.335 1.335 1.335h11.671c-0.056-0.176-0.087-0.364-0.087-0.56v-8.448c0-0.403 0.129-0.775 0.349-1.076l-0.202-0.054c-2.38 0.832-4.684 0.875-6.9-0z"></path>
<path fill="#000" style="fill: var(--color1, #000)" opacity="0.38391407366400004" d="M23.285 17.909l-6.651 1.785h0.033c-1.013 0-1.829 0.816-1.829 1.829v8.448c0 1.013 0.816 1.829 1.829 1.829h22.687c1.013 0 1.829-0.816 1.829-1.829v-8.448c0-1.009-0.809-1.821-1.815-1.829h0.023l-6.651-1.785c-3.261 1.14-6.418 1.199-9.454-0z"></path>
<path fill="#000" style="fill: var(--color1, #000)" opacity="0.38391407366400004" d="M48.449 20.393l4.855 1.303h-0.024c0.739 0 1.335 0.595 1.335 1.335v6.166c0 0.739-0.595 1.335-1.335 1.335h-11.671c0.056-0.176 0.087-0.364 0.087-0.56v-8.448c0-0.403-0.129-0.775-0.349-1.076l0.202-0.054c2.38 0.832 4.684 0.875 6.9-0z"></path>
<path fill="#000" style="fill: var(--color1, #000)" opacity="0.38391407366400004" d="M36.202 9.575c0 4.671-3.786 8.457-8.457 8.457s-8.457-3.786-8.457-8.457c0-4.671 3.786-8.457 8.457-8.457s8.457 3.786 8.457 8.457z"></path>
<path fill="#000" style="fill: var(--color1, #000)" opacity="0.38391407366400004" d="M51.085 14.216c0 3.412-2.766 6.177-6.177 6.177s-6.177-2.766-6.177-6.177c0-3.412 2.766-6.177 6.177-6.177s6.177 2.766 6.177 6.177z"></path>
<path fill="#000" style="fill: var(--color1, #000)" opacity="0.38391407366400004" d="M17.288 14.216c0 3.412-2.766 6.177-6.177 6.177s-6.177-2.766-6.177-6.177c0-3.412 2.766-6.177 6.177-6.177s6.177 2.766 6.177 6.177z"></path>
<path fill="#fff" style="fill: var(--color2, #fff)" d="M6.166 19.275l-4.855 1.303h0.024c-0.74 0-1.335 0.595-1.335 1.335v6.166c0 0.739 0.595 1.335 1.335 1.335h11.671c-0.056-0.176-0.087-0.364-0.087-0.56v-8.448c0-0.403 0.129-0.775 0.349-1.076l-0.202-0.054c-2.38 0.832-4.684 0.875-6.9-0z"></path>
<path fill="#fff" style="fill: var(--color2, #fff)" d="M21.881 16.791l-6.652 1.785h0.033c-1.013 0-1.829 0.816-1.829 1.829v8.448c0 1.013 0.816 1.829 1.829 1.829h22.687c1.013 0 1.829-0.816 1.829-1.829v-8.448c0-1.009-0.809-1.821-1.815-1.829h0.023l-6.651-1.785c-3.261 1.14-6.418 1.199-9.454-0z"></path>
<path fill="#fff" style="fill: var(--color2, #fff)" d="M47.045 19.275l4.855 1.303h-0.024c0.739 0 1.335 0.595 1.335 1.335v6.166c0 0.739-0.595 1.335-1.335 1.335h-11.671c0.056-0.176 0.087-0.364 0.087-0.56v-8.448c0-0.403-0.129-0.775-0.349-1.076l0.202-0.054c2.38 0.832 4.684 0.875 6.9-0z"></path>
<path fill="#fff" style="fill: var(--color2, #fff)" d="M34.798 8.457c0 4.671-3.786 8.457-8.457 8.457s-8.457-3.786-8.457-8.457c0-4.671 3.786-8.457 8.457-8.457s8.457 3.786 8.457 8.457z"></path>
<path fill="#fff" style="fill: var(--color2, #fff)" d="M49.681 13.098c0 3.412-2.766 6.177-6.177 6.177s-6.177-2.766-6.177-6.177c0-3.412 2.766-6.177 6.177-6.177s6.177 2.766 6.177 6.177z"></path>
<path fill="#fff" style="fill: var(--color2, #fff)" d="M15.884 13.098c0 3.412-2.766 6.177-6.177 6.177s-6.177-2.766-6.177-6.177c0-3.412 2.766-6.177 6.177-6.177s6.177 2.766 6.177 6.177z"></path>
</symbol>
<symbol id="planet" viewBox="0 0 32 32">
<path fill="#000" style="fill: var(--color1, #000)" opacity="0.619608" d="M18.944 1.253c1.627 2.855 2.823 5.698 3.57 8.529h8.202c-2.252-4.557-6.566-7.798-11.69-8.52l-0.082-0.009zM16.386 1.285c-1.712 2.892-2.963 5.723-3.762 8.497h7.525c-0.799-2.774-2.051-5.606-3.764-8.497zM13.719 1.444c-4.752 1.010-8.626 4.099-10.685 8.249l-0.040 0.090h7.265c0.73-2.768 1.887-5.548 3.46-8.339zM2.010 12.383c-0.359 1.238-0.565 2.66-0.565 4.131v0c0.004 1.472 0.213 2.894 0.602 4.24l-0.027-0.109h7.631c-0.431-2.742-0.41-5.496 0.049-8.263zM12.005 12.383c-0.529 2.813-0.585 5.566-0.176 8.263h9.114c0.409-2.697 0.353-5.45-0.176-8.263zM23.074 12.383c0.459 2.766 0.48 5.521 0.049 8.263h8.568c0.361-1.237 0.571-2.659 0.575-4.129v-0.002c-0-1.471-0.207-2.893-0.592-4.24l0.027 0.109zM2.995 23.247c2.123 4.29 6.064 7.405 10.789 8.358l0.099 0.017c-1.725-2.778-2.946-5.57-3.685-8.375zM12.372 23.247c0.781 2.935 2.125 5.803 4.014 8.607 1.889-2.804 3.233-5.671 4.015-8.607zM22.576 23.247c-0.755 2.863-2.013 5.713-3.795 8.547 5.273-0.682 9.657-3.943 11.894-8.458l0.040-0.090z"></path>
<path fill="#fff" style="fill: var(--color2, #fff)" d="M17.5 0c1.627 2.855 2.823 5.698 3.57 8.529h8.202c-2.252-4.557-6.566-7.798-11.69-8.52l-0.082-0.009zM14.941 0.032c-1.712 2.892-2.963 5.723-3.762 8.497h7.525c-0.799-2.774-2.051-5.606-3.764-8.497zM12.275 0.191c-4.752 1.010-8.626 4.099-10.685 8.249l-0.040 0.090h7.265c0.73-2.768 1.887-5.548 3.46-8.339zM0.565 11.131c-0.358 1.238-0.565 2.661-0.565 4.131v0c0.004 1.472 0.213 2.894 0.602 4.24l-0.027-0.109h7.631c-0.431-2.742-0.41-5.496 0.049-8.263zM10.561 11.131c-0.529 2.813-0.585 5.566-0.176 8.263h9.114c0.409-2.697 0.353-5.45-0.176-8.263zM21.629 11.131c0.459 2.766 0.48 5.521 0.049 8.263h8.568c0.361-1.237 0.571-2.659 0.575-4.129v-0.002c-0-1.471-0.207-2.893-0.592-4.24l0.027 0.109zM1.551 21.994c2.123 4.29 6.064 7.405 10.789 8.358l0.099 0.017c-1.725-2.778-2.946-5.57-3.685-8.375zM10.928 21.994c0.781 2.935 2.125 5.803 4.014 8.607 1.889-2.804 3.233-5.671 4.015-8.607zM21.132 21.994c-0.755 2.863-2.013 5.713-3.795 8.547 5.273-0.682 9.657-3.943 11.894-8.458l0.040-0.090z"></path>
</symbol>
<symbol id="hands" viewBox="0 0 51 32">
<path fill="#505050" style="fill: var(--color1, #505050)" d="M21.772 1.766c-0.607 0.026-1.273 0.244-1.938 0.502-0.082 0.019-0.15 0.007-0.233 0.029-0.073 0.019-0.135 0.041-0.195 0.067l0.009-0.003c-0.015 0.006-0.026 0.020-0.041 0.027-0.628 0.274-1.095 0.644-1.761 1.149-0.681 0.517-1.452 1.139-2.183 1.744-1.251 1.036-2.064 1.748-2.367 2.012h-3.742v2.762h4.252c0 0 0.001 0 0.001 0 0.349 0 0.667-0.129 0.91-0.342l-0.002 0.001c0 0 1.282-1.124 2.709-2.305 0.713-0.591 1.463-1.195 2.091-1.671 0.582-0.441 1.078-0.739 1.12-0.771 2.219-0.541 3.829 0.224 3.89 0.255l0.171 0.122-2.707 3.058c-0.011 0.012-0.022 0.024-0.033 0.037l-0.001 0.002c0 0-1.664 1.826-2.079 4.088-0.009 0.047-0.016 0.104-0.020 0.161l-0 0.004c-0.022 0.365-0.112 1.245 0.273 2.207s1.365 1.921 2.813 2.313c0.077 0.022 0.166 0.038 0.259 0.045l0.005 0c1.29 0.092 2.023 0.071 3.331-0.51 0.043-0.019 0.077-0.035 0.109-0.053l-0.007 0.004c0.97-0.529 0.693-0.381 1.336-0.867 0.062-0.048 0.118-0.098 0.169-0.152l0.001-0.001 2.283-2.407 5.935 6.304v2.385c0 0.763 0.619 1.381 1.381 1.381h5.91c0 0 0.001 0 0.001 0 0.763 0 1.382-0.618 1.382-1.381v-13.289c-0-0.763-0.619-1.381-1.382-1.381-0 0-0.001 0-0.001 0h-3.748l-4.527-3.799c-0.008-0.006-0.017-0.014-0.028-0.022l-0.003-0.002c0 0-2.682-2.323-5.906-1.414-0.023 0.005-0.037 0.009-0.051 0.013l0.010-0.002c-1.256 0.395-2.124 0.879-2.721 1.298l-0.686-0.488c-0.050-0.035-0.106-0.070-0.166-0.1l-0.008-0.004c0 0-0.218-0.066-0.243-0.078-0.405-0.255-1.624-1.010-3.576-0.926zM29.975 4.714c1.49-0.408 3.427 0.922 3.427 0.922l4.884 4.094c0.238 0.2 0.548 0.322 0.887 0.322 0 0 0 0 0 0h2.868v10.525h-3.148v-1.548c-0-0.367-0.143-0.7-0.376-0.947l0.001 0.001-6.33-6.728 0.353-0.61c0.116-0.198 0.185-0.437 0.185-0.691 0-0.763-0.619-1.382-1.382-1.382-0.394 0-0.75 0.165-1.002 0.43l-4.332 4.57c-0.505 0.393-0.095 0.145-0.894 0.577-0.915 0.411-0.856 0.36-1.72 0.273-0.713-0.207-0.837-0.412-0.932-0.651-0.088-0.22-0.086-0.557-0.071-0.902 0.227-1.040 1.451-2.755 1.461-2.768l3.701-4.18c0.009-0.017 0.022-0.042 0.033-0.067l0.004-0.009c0.017-0.002 0.027-0.004 0.036-0.005l-0.008 0.001c0 0 0.010-0.045 0.369-0.3 0.354-0.252 0.987-0.61 1.985-0.928z"></path>
<path fill="#505050" style="fill: var(--color1, #505050)" d="M7.942 8.672v13.722c0 0.763 0.619 1.381 1.381 1.381h3.909c0.32 0.313 1.22 1.205 2.695 2.466 0.856 0.732 1.787 1.483 2.687 2.103 0.897 0.619 1.69 1.134 2.675 1.328 0.999 0.238 2.556 0.567 2.556 0.567 0.063 0.013 0.136 0.023 0.211 0.026l0.003 0c0 0 0.89 0.047 1.971-0.118 0.893-0.137 1.96-0.496 2.911-1.206 0.576 0.035 1.705-0.047 2.854-1.079 0.82 0.002 2.17-0.197 3.517-1.644 1.611-0.51 2.697-1.439 3.158-2.369 0.508-1.024 0.418-2.024 0.418-2.024l-2.75 0.267c0 0 0.026 0.183-0.145 0.528s-0.478 0.807-1.742 1.104c-0.32 0.077-0.59 0.257-0.779 0.503l-0.002 0.003c-1.009 1.321-1.965 0.969-1.965 0.969-0.080-0.017-0.173-0.026-0.267-0.026-0.453 0-0.855 0.218-1.107 0.555l-0.003 0.004c-0.364 0.491-1.424 0.483-1.424 0.483-0.047-0.006-0.102-0.009-0.158-0.009-0.394 0-0.749 0.165-1.001 0.429l-0.001 0.001c-0.324 0.342-1.15 0.659-1.934 0.779-0.748 0.114-1.292 0.088-1.346 0.086-0.172-0.036-1.525-0.323-2.383-0.528-0.010-0.003-0.029-0.007-0.048-0.011l-0.009-0.001c-0.133-0.026-0.87-0.36-1.642-0.892s-1.649-1.236-2.46-1.93c-1.623-1.388-2.983-2.73-2.983-2.73-0.249-0.246-0.592-0.398-0.97-0.398-0 0-0.001 0-0.001 0h-3.062v-12.34z"></path>
<path fill="#505050" style="fill: var(--color1, #505050)" d="M2.844 6.226c-0.731 0-1.32 0.589-1.32 1.32v18.109c0 0.731 0.589 1.32 1.32 1.32h6.894c0.731 0 1.32-0.589 1.32-1.32v-18.109c0-0.731-0.589-1.32-1.32-1.32zM6.291 21.358c0 0 0 0 0 0 0.917 0 1.661 0.744 1.661 1.661v0c-0 0.917-0.744 1.661-1.661 1.661-0 0-0 0-0 0h0c-0.917-0-1.661-0.744-1.661-1.661v0c0-0.917 0.744-1.661 1.661-1.661v0z"></path>
<path fill="#505050" style="fill: var(--color1, #505050)" d="M42.904 6.226c-0.731 0-1.32 0.589-1.32 1.32v18.109c0 0.731 0.589 1.32 1.32 1.32h6.895c0.731 0 1.32-0.589 1.32-1.32v-18.109c0-0.731-0.589-1.32-1.32-1.32zM46.351 21.358c0 0 0 0 0 0 0.917 0 1.661 0.744 1.661 1.661v0c-0 0.917-0.744 1.661-1.661 1.661-0 0-0 0-0 0h0c-0.917-0-1.661-0.744-1.661-1.661v0c0-0.917 0.744-1.661 1.661-1.661v0z"></path>
<path fill="#fff" style="fill: var(--color2, #fff)" d="M20.249 0.006c-0.607 0.026-1.273 0.244-1.938 0.502-0.082 0.019-0.15 0.007-0.233 0.029-0.073 0.019-0.135 0.041-0.195 0.067l0.009-0.003c-0.015 0.006-0.026 0.020-0.041 0.027-0.628 0.274-1.095 0.644-1.761 1.149-0.681 0.517-1.452 1.139-2.183 1.744-1.251 1.036-2.064 1.748-2.367 2.012h-3.742c-0.755 0.011-1.362 0.625-1.363 1.381v0c0 0.756 0.608 1.37 1.362 1.381h4.253c0 0 0.001 0 0.001 0 0.349 0 0.667-0.129 0.91-0.342l-0.002 0.001c0 0 1.282-1.124 2.709-2.305 0.713-0.591 1.464-1.195 2.091-1.671 0.582-0.441 1.078-0.739 1.12-0.771 2.219-0.541 3.829 0.224 3.89 0.255l0.171 0.122-2.707 3.058c-0.011 0.012-0.022 0.024-0.033 0.037l-0.001 0.002c0 0-1.664 1.826-2.079 4.088-0.009 0.047-0.016 0.104-0.020 0.161l-0 0.004c-0.022 0.365-0.112 1.245 0.273 2.207s1.365 1.921 2.813 2.313c0.077 0.022 0.166 0.038 0.259 0.045l0.005 0c1.29 0.092 2.023 0.071 3.331-0.51 0.043-0.019 0.077-0.035 0.109-0.053l-0.007 0.004c0.97-0.529 0.693-0.381 1.336-0.867 0.062-0.048 0.118-0.098 0.169-0.152l0.001-0.001 2.283-2.407 5.935 6.304v2.385c0 0.763 0.619 1.381 1.381 1.381h5.91c0 0 0.001 0 0.001 0 0.763 0 1.382-0.618 1.382-1.381v-13.289c-0-0.763-0.619-1.381-1.382-1.381-0 0-0.001 0-0.001 0h-3.748l-4.527-3.799c-0.008-0.006-0.017-0.014-0.028-0.022l-0.003-0.002c0 0-2.682-2.323-5.906-1.414-0.023 0.005-0.037 0.009-0.051 0.013l0.010-0.002c-1.256 0.395-2.124 0.879-2.721 1.298l-0.686-0.488c-0.050-0.035-0.106-0.070-0.166-0.1l-0.008-0.004c0 0-0.218-0.066-0.243-0.078-0.405-0.255-1.624-1.010-3.576-0.926zM28.452 2.954c1.49-0.408 3.427 0.922 3.427 0.922l4.884 4.094c0.238 0.201 0.548 0.322 0.887 0.322 0 0 0 0 0 0h2.868v10.525h-3.148v-1.548c-0-0.367-0.143-0.7-0.376-0.947l0.001 0.001-6.33-6.728 0.353-0.61c0.116-0.198 0.185-0.437 0.185-0.691 0-0.763-0.619-1.382-1.382-1.382-0.394 0-0.75 0.165-1.002 0.43l-4.332 4.57c-0.505 0.393-0.095 0.145-0.894 0.577-0.915 0.411-0.856 0.36-1.72 0.273-0.713-0.207-0.837-0.412-0.932-0.651-0.088-0.22-0.086-0.557-0.071-0.902 0.227-1.040 1.451-2.755 1.461-2.768l3.701-4.18c0.009-0.017 0.022-0.042 0.033-0.067l0.004-0.009c0.017-0.002 0.027-0.004 0.036-0.005l-0.008 0.001c0 0 0.010-0.045 0.369-0.3 0.354-0.252 0.987-0.61 1.985-0.928z"></path>
<path fill="#fff" style="fill: var(--color2, #fff)" d="M6.419 6.912v13.722c0 0.763 0.619 1.381 1.381 1.381h3.909c0.32 0.313 1.22 1.205 2.695 2.466 0.856 0.732 1.787 1.483 2.687 2.103 0.897 0.619 1.69 1.134 2.675 1.328 0.999 0.238 2.556 0.567 2.556 0.567 0.063 0.013 0.136 0.023 0.211 0.026l0.003 0c0 0 0.89 0.047 1.971-0.118 0.893-0.137 1.96-0.496 2.911-1.206 0.576 0.035 1.705-0.047 2.854-1.079 0.82 0.002 2.17-0.197 3.517-1.644 1.611-0.51 2.697-1.439 3.158-2.369 0.508-1.024 0.418-2.024 0.418-2.024l-2.75 0.267c0 0 0.026 0.183-0.145 0.528s-0.478 0.807-1.742 1.104c-0.32 0.077-0.59 0.257-0.779 0.503l-0.002 0.003c-1.009 1.321-1.965 0.969-1.965 0.969-0.080-0.017-0.173-0.026-0.267-0.026-0.453 0-0.855 0.218-1.107 0.555l-0.003 0.004c-0.364 0.491-1.424 0.483-1.424 0.483-0.047-0.006-0.102-0.009-0.158-0.009-0.394 0-0.749 0.165-1.001 0.429l-0.001 0.001c-0.324 0.342-1.15 0.659-1.934 0.779-0.748 0.114-1.292 0.088-1.346 0.086-0.172-0.036-1.525-0.323-2.383-0.528-0.010-0.003-0.029-0.007-0.048-0.011l-0.009-0.001c-0.133-0.026-0.87-0.36-1.642-0.892s-1.649-1.236-2.46-1.93c-1.623-1.388-2.983-2.73-2.983-2.73-0.249-0.246-0.592-0.398-0.97-0.398-0 0-0.001 0-0.001 0h-3.062v-12.34z"></path>
<path fill="#fff" style="fill: var(--color2, #fff)" d="M1.32 4.467c-0.731 0-1.32 0.589-1.32 1.32v18.109c0 0.731 0.589 1.32 1.32 1.32h6.895c0.731 0 1.32-0.589 1.32-1.32v-18.109c0-0.731-0.589-1.32-1.32-1.32zM4.767 19.599c0 0 0 0 0 0 0.917 0 1.661 0.744 1.661 1.661v0c-0 0.917-0.744 1.661-1.661 1.661-0 0-0 0-0 0h0c-0.917-0-1.661-0.744-1.661-1.661v0c0-0.917 0.744-1.661 1.661-1.661v0z"></path>
<path fill="#fff" style="fill: var(--color2, #fff)" d="M41.381 4.467c-0.731 0-1.32 0.589-1.32 1.32v18.109c0 0.731 0.589 1.32 1.32 1.32h6.895c0.731 0 1.32-0.589 1.32-1.32v-18.109c0-0.731-0.589-1.32-1.32-1.32zM44.828 19.599c0 0 0 0 0 0 0.917 0 1.661 0.744 1.661 1.661v0c-0 0.917-0.744 1.661-1.661 1.661-0 0-0 0-0 0h0c-0.917-0-1.661-0.744-1.661-1.661v0c0-0.917 0.744-1.661 1.661-1.661v0z"></path>
</symbol>
</defs>
</svg>
