<?xml version="1.0" encoding="UTF-8" standalone="no"?>
<!-- Created with Inkscape (http://www.inkscape.org/) -->

<svg width="110mm" height="68mm" viewBox="0 0 110 68" version="1.1" id="svg5" xml:space="preserve" xmlns="http://www.w3.org/2000/svg" xmlns:svg="http://www.w3.org/2000/svg"><defs id="defs2"><style id="style2">.fil0 {
  fill: #000;
}

.fil2 {
  fill: #ff0009;
}

.fil1 {
  fill: #e31e25;
  fill-rule: nonzero;
}

</style></defs><g id="layer1" transform="translate(909.36226,326.39525)"><g id="g3844" transform="matrix(1.0324668,0,0,0.98631305,-1677.2219,-86.263011)" style="fill: #216778; fill-opacity: 1"><path d="m 755.64266,-243.46453 c -1.3001,0 -2.57104,0.19711 -3.74242,0.57405 l 45.08406,29.27603 45.08404,-29.27603 c -1.16762,-0.37694 -2.38391,-0.57405 -3.68394,-0.57405 h -82.74265 z m -9.82381,5.05171 c -1.33104,1.88952 -2.10523,4.1866 -2.10523,6.65895 v 45.5223 c 0,2.65683 0.93877,5.09632 2.45605,7.06076 l 38.0089,-34.32837 -38.3592,-24.91402 z m 102.27255,0 -38.24331,24.85649 38.00891,34.38591 c 1.5058,-1.96444 2.39758,-4.40393 2.39758,-7.06076 v -31.51583 h -0.0579 v -10.9642 h 0.0579 v -3.04266 c 0,-2.48411 -0.83158,-4.76431 -2.1637,-6.65895 z m -40.69805,26.40595 -10.40867,6.77376 -10.35005,-6.71636 -38.24331,35.01745 c 2.00989,1.51366 4.52025,2.41112 7.25082,2.41112 h 82.74264 c 2.73057,0 5.25278,-0.89734 7.25109,-2.41112 L 807.39256,-212.007 Z" fill="#ff6600" id="path3827" style="fill: #216778; fill-opacity: 1; stroke-width: 1.29029px"></path></g></g></svg>
